999
dxflib 2.2.0.0
  0
SECTION
  2
HEADER
  9
$ACADVER
  1
AC1015
  9
$HANDSEED
  5
FFFF
  9
$DIMASZ
 40
2.5
  9
$PLIMMIN
 10
0.0
 20
0.0
  9
$DIMEXE
 40
1.25
  9
$DIMGAP
 40
0.625
  9
$PLIMMAX
 10
210.0
 20
297.0
  9
$INSUNITS
 70
4
  9
$DIMEXO
 40
0.625
  9
$DIMTXT
 40
2.5
  0
ENDSEC
  0
SECTION
  2
TABLES
  0
TABLE
  2
VPORT
  5
8
100
AcDbSymbolTable
 70
1
  0
VPORT
  5
30
100
AcDbSymbolTableRecord
100
AcDbViewportTableRecord
  2
*Active
 70
0
 10
0.0
 20
0.0
 11
1.0
 21
1.0
 12
286.3055555555554861
 22
148.5
 13
0.0
 23
0.0
 14
10.0
 24
10.0
 15
10.0
 25
10.0
 16
0.0
 26
0.0
 36
1.0
 17
0.0
 27
0.0
 37
0.0
 40
297.0
 41
1.92798353909465
 42
50.0
 43
0.0
 44
0.0
 50
0.0
 51
0.0
 71
0
 72
100
 73
1
 74
3
 75
1
 76
1
 77
0
 78
0
281
0
 65
1
110
0.0
120
0.0
130
0.0
111
1.0
121
0.0
131
0.0
112
0.0
122
1.0
132
0.0
 79
0
146
0.0
  0
ENDTAB
  0
TABLE
  2
LTYPE
  5
5
100
AcDbSymbolTable
 70
21
  0
LTYPE
  5
14
100
AcDbSymbolTableRecord
100
AcDbLinetypeTableRecord
  2
ByBlock
 70
0
  3

 72
65
 73
0
 40
0.0
  0
LTYPE
  5
15
100
AcDbSymbolTableRecord
100
AcDbLinetypeTableRecord
  2
ByLayer
 70
0
  3

 72
65
 73
0
 40
0.0
  0
LTYPE
  5
16
100
AcDbSymbolTableRecord
100
AcDbLinetypeTableRecord
  2
CONTINUOUS
 70
0
  3
Solid line
 72
65
 73
0
 40
0.0
  0
LTYPE
  5
31
100
AcDbSymbolTableRecord
100
AcDbLinetypeTableRecord
  2
DOT
 70
0
  3
Dot . . . . . . . . . . . . . . . . . . . . . .
 72
65
 73
2
 40
6.3499999999999996
 49
0.0
 74
0
 49
-6.3499999999999996
 74
0
  0
LTYPE
  5
32
100
AcDbSymbolTableRecord
100
AcDbLinetypeTableRecord
  2
DOT2
 70
0
  3
Dot (.5x) .....................................
 72
65
 73
2
 40
3.1749999999999998
 49
0.0
 74
0
 49
-3.1749999999999998
 74
0
  0
LTYPE
  5
33
100
AcDbSymbolTableRecord
100
AcDbLinetypeTableRecord
  2
DOTX2
 70
0
  3
Dot (2x) .  .  .  .  .  .  .  .  .  .  .  .  .
 72
65
 73
2
 40
12.6999999999999993
 49
0.0
 74
0
 49
-12.6999999999999993
 74
0
  0
LTYPE
  5
34
100
AcDbSymbolTableRecord
100
AcDbLinetypeTableRecord
  2
DASHED
 70
0
  3
Dashed __ __ __ __ __ __ __ __ __ __ __ __ __ _
 72
65
 73
2
 40
19.0500000000000007
 49
12.6999999999999993
 74
0
 49
-6.3499999999999996
 74
0
  0
LTYPE
  5
35
100
AcDbSymbolTableRecord
100
AcDbLinetypeTableRecord
  2
DASHED2
 70
0
  3
Dashed (.5x) _ _ _ _ _ _ _ _ _ _ _ _ _ _ _ _ _
 72
65
 73
2
 40
9.5250000000000004
 49
6.3499999999999996
 74
0
 49
-3.1749999999999998
 74
0
  0
LTYPE
  5
36
100
AcDbSymbolTableRecord
100
AcDbLinetypeTableRecord
  2
DASHEDX2
 70
0
  3
Dashed (2x) ____  ____  ____  ____  ____  ___
 72
65
 73
2
 40
38.1000000000000014
 49
25.3999999999999986
 74
0
 49
-12.6999999999999993
 74
0
  0
LTYPE
  5
37
100
AcDbSymbolTableRecord
100
AcDbLinetypeTableRecord
  2
DASHDOT
 70
0
  3
Dash dot __ . __ . __ . __ . __ . __ . __ . __
 72
65
 73
4
 40
25.3999999999999986
 49
12.6999999999999993
 74
0
 49
-6.3499999999999996
 74
0
 49
0.0
 74
0
 49
-6.3499999999999996
 74
0
  0
LTYPE
  5
38
100
AcDbSymbolTableRecord
100
AcDbLinetypeTableRecord
  2
DASHDOT2
 70
0
  3
Dash dot (.5x) _._._._._._._._._._._._._._._.
 72
65
 73
4
 40
12.6999999999999993
 49
6.3499999999999996
 74
0
 49
-3.1749999999999998
 74
0
 49
0.0
 74
0
 49
-3.1749999999999998
 74
0
  0
LTYPE
  5
39
100
AcDbSymbolTableRecord
100
AcDbLinetypeTableRecord
  2
DASHDOTX2
 70
0
  3
Dash dot (2x) ____  .  ____  .  ____  .  ___
 72
65
 73
4
 40
50.7999999999999972
 49
25.3999999999999986
 74
0
 49
-12.6999999999999993
 74
0
 49
0.0
 74
0
 49
-12.6999999999999993
 74
0
  0
LTYPE
  5
3A
100
AcDbSymbolTableRecord
100
AcDbLinetypeTableRecord
  2
DIVIDE
 70
0
  3
Divide ____ . . ____ . . ____ . . ____ . . ____
 72
65
 73
6
 40
31.75
 49
12.6999999999999993
 74
0
 49
-6.3499999999999996
 74
0
 49
0.0
 74
0
 49
-6.3499999999999996
 74
0
 49
0.0
 74
0
 49
-6.3499999999999996
 74
0
  0
LTYPE
  5
3B
100
AcDbSymbolTableRecord
100
AcDbLinetypeTableRecord
  2
DIVIDE2
 70
0
  3
Divide (.5x) __..__..__..__..__..__..__..__.._
 72
65
 73
6
 40
15.875
 49
6.3499999999999996
 74
0
 49
-3.1749999999999998
 74
0
 49
0.0
 74
0
 49
-3.1749999999999998
 74
0
 49
0.0
 74
0
 49
-3.1749999999999998
 74
0
  0
LTYPE
  5
3C
100
AcDbSymbolTableRecord
100
AcDbLinetypeTableRecord
  2
DIVIDEX2
 70
0
  3
Divide (2x) ________  .  .  ________  .  .  _
 72
65
 73
6
 40
63.5
 49
25.3999999999999986
 74
0
 49
-12.6999999999999993
 74
0
 49
0.0
 74
0
 49
-12.6999999999999993
 74
0
 49
0.0
 74
0
 49
-12.6999999999999993
 74
0
  0
LTYPE
  5
3D
100
AcDbSymbolTableRecord
100
AcDbLinetypeTableRecord
  2
CENTER
 70
0
  3
Center ____ _ ____ _ ____ _ ____ _ ____ _ ____
 72
65
 73
4
 40
50.7999999999999972
 49
31.75
 74
0
 49
-6.3499999999999996
 74
0
 49
6.3499999999999996
 74
0
 49
-6.3499999999999996
 74
0
  0
LTYPE
  5
3E
100
AcDbSymbolTableRecord
100
AcDbLinetypeTableRecord
  2
CENTER2
 70
0
  3
Center (.5x) ___ _ ___ _ ___ _ ___ _ ___ _ ___
 72
65
 73
4
 40
28.5749999999999993
 49
19.0500000000000007
 74
0
 49
-3.1749999999999998
 74
0
 49
3.1749999999999998
 74
0
 49
-3.1749999999999998
 74
0
  0
LTYPE
  5
3F
100
AcDbSymbolTableRecord
100
AcDbLinetypeTableRecord
  2
CENTERX2
 70
0
  3
Center (2x) ________  __  ________  __  _____
 72
65
 73
4
 40
101.5999999999999943
 49
63.5
 74
0
 49
-12.6999999999999993
 74
0
 49
12.6999999999999993
 74
0
 49
-12.6999999999999993
 74
0
  0
LTYPE
  5
40
100
AcDbSymbolTableRecord
100
AcDbLinetypeTableRecord
  2
BORDER
 70
0
  3
Border __ __ . __ __ . __ __ . __ __ . __ __ .
 72
65
 73
6
 40
44.4500000000000028
 49
12.6999999999999993
 74
0
 49
-6.3499999999999996
 74
0
 49
12.6999999999999993
 74
0
 49
-6.3499999999999996
 74
0
 49
0.0
 74
0
 49
-6.3499999999999996
 74
0
  0
LTYPE
  5
41
100
AcDbSymbolTableRecord
100
AcDbLinetypeTableRecord
  2
BORDER2
 70
0
  3
Border (.5x) __.__.__.__.__.__.__.__.__.__.__.
 72
65
 73
6
 40
22.2250000000000014
 49
6.3499999999999996
 74
0
 49
-3.1749999999999998
 74
0
 49
6.3499999999999996
 74
0
 49
-3.1749999999999998
 74
0
 49
0.0
 74
0
 49
-3.1749999999999998
 74
0
  0
LTYPE
  5
42
100
AcDbSymbolTableRecord
100
AcDbLinetypeTableRecord
  2
BORDERX2
 70
0
  3
Border (2x) ____  ____  .  ____  ____  .  ___
 72
65
 73
6
 40
88.9000000000000057
 49
25.3999999999999986
 74
0
 49
-12.6999999999999993
 74
0
 49
25.3999999999999986
 74
0
 49
-12.6999999999999993
 74
0
 49
0.0
 74
0
 49
-12.6999999999999993
 74
0
  0
ENDTAB
  0
TABLE
  2
LAYER
  5
2
100
AcDbSymbolTable
 70
2
  0
LAYER
  5
10
100
AcDbSymbolTableRecord
100
AcDbLayerTableRecord
  2
0
 70
0
 62
7
  6
CONTINUOUS
370
0
390
F
  0
LAYER
  5
43
100
AcDbSymbolTableRecord
100
AcDbLayerTableRecord
  2
hole cross hairs
 70
0
 62
7
  6
CONTINUOUS
370
0
390
F
  0
ENDTAB
  0
TABLE
  2
STYLE
  5
3
100
AcDbSymbolTable
 70
1
  0
STYLE
  5
11
100
AcDbSymbolTableRecord
100
AcDbTextStyleTableRecord
  2
Standard
 70
0
 40
0.0
 41
0.75
 50
0.0
 71
0
 42
2.5
  3
txt
  4

  0
ENDTAB
  0
TABLE
  2
VIEW
  5
6
100
AcDbSymbolTable
 70
0
  0
ENDTAB
  0
TABLE
  2
UCS
  5
7
100
AcDbSymbolTable
 70
0
  0
ENDTAB
  0
TABLE
  2
APPID
  5
9
100
AcDbSymbolTable
 70
1
  0
APPID
  5
12
100
AcDbSymbolTableRecord
100
AcDbRegAppTableRecord
  2
ACAD
 70
0
  0
ENDTAB
  0
TABLE
  2
DIMSTYLE
  5
A
100
AcDbSymbolTable
 70
1
100
AcDbDimStyleTable
 71
0
  0
DIMSTYLE
105
27
100
AcDbSymbolTableRecord
100
AcDbDimStyleTableRecord
  2
Standard
 41
2.5
 42
0.625
 43
3.75
 44
1.25
 70
0
 73
0
 74
0
 77
1
 78
8
140
2.5
141
2.5
143
0.03937007874016
147
0.625
171
3
172
1
271
2
272
2
274
3
278
44
283
0
284
8
340
11
  0
ENDTAB
  0
TABLE
  2
BLOCK_RECORD
  5
1
100
AcDbSymbolTable
 70
1
  0
BLOCK_RECORD
  5
1F
100
AcDbSymbolTableRecord
100
AcDbBlockTableRecord
  2
*Model_Space
340
22
  0
BLOCK_RECORD
  5
1B
100
AcDbSymbolTableRecord
100
AcDbBlockTableRecord
  2
*Paper_Space
340
1E
  0
BLOCK_RECORD
  5
23
100
AcDbSymbolTableRecord
100
AcDbBlockTableRecord
  2
*Paper_Space0
340
26
  0
ENDTAB
  0
ENDSEC
  0
SECTION
  2
BLOCKS
  0
BLOCK
  5
20
100
AcDbEntity
  8
0
100
AcDbBlockBegin
  2
*Model_Space
 70
0
 10
0.0
 20
0.0
 30
0.0
  3
*Model_Space
  1

  0
ENDBLK
  5
21
100
AcDbEntity
  8
0
100
AcDbBlockEnd
  0
BLOCK
  5
1C
100
AcDbEntity
 67
1
  8
0
100
AcDbBlockBegin
  2
*Paper_Space
 70
0
 10
0.0
 20
0.0
 30
0.0
  3
*Paper_Space
  1

  0
ENDBLK
  5
1D
100
AcDbEntity
 67
1
  8
0
100
AcDbBlockEnd
  0
BLOCK
  5
24
100
AcDbEntity
  8
0
100
AcDbBlockBegin
  2
*Paper_Space0
 70
0
 10
0.0
 20
0.0
 30
0.0
  3
*Paper_Space0
  1

  0
ENDBLK
  5
25
100
AcDbEntity
  8
0
100
AcDbBlockEnd
  0
ENDSEC
  0
SECTION
  2
ENTITIES
  0
LINE
  5
44
100
AcDbEntity
100
AcDbLine
  8
0
 62
256
370
-1
  6
ByLayer
 10
-52.001698279999367
 20
-43.3184164991740062
 30
0.0
 11
-52.0014260516879787
 21
-41.5688880124405955
 31
0.0
  0
LINE
  5
45
100
AcDbEntity
100
AcDbLine
  8
0
 62
256
370
-1
  6
ByLayer
 10
-52.0014260516879787
 20
-41.5688880124405955
 30
0.0
 11
-50.4858815950652087
 21
-40.6938880124405884
 31
0.0
  0
LINE
  5
46
100
AcDbEntity
100
AcDbLine
  8
0
 62
256
370
-1
  6
ByLayer
 10
-50.4858815950652087
 20
-40.6938880124405884
 30
0.0
 11
-48.9706093667538553
 21
-41.5684164991739991
 31
0.0
  0
LINE
  5
47
100
AcDbEntity
100
AcDbLine
  8
0
 62
256
370
-1
  6
ByLayer
 10
-48.9706093667538553
 20
-41.5684164991739991
 30
0.0
 11
-48.9703815950652057
 21
-43.3188110113112117
 31
0.0
  0
LINE
  5
48
100
AcDbEntity
100
AcDbLine
  8
0
 62
256
370
-1
  6
ByLayer
 10
-48.9703815950652057
 20
-43.3188110113112117
 30
0.0
 11
-50.4859260516879971
 21
-44.1938110113112117
 31
0.0
  0
LINE
  5
49
100
AcDbEntity
100
AcDbLine
  8
0
 62
256
370
-1
  6
ByLayer
 10
-50.4859260516879971
 20
-44.1938110113112117
 30
0.0
 11
-52.001698279999367
 21
-43.3184164991740062
 31
0.0
  0
LINE
  5
4A
100
AcDbEntity
100
AcDbLine
  8
0
 62
256
370
-1
  6
ByLayer
 10
-67.8532205645371533
 20
-0.9267745250442053
 30
0.0
 11
-67.8529150152289873
 21
0.9266962480298004
 31
0.0
  0
LINE
  5
4B
100
AcDbEntity
100
AcDbLine
  8
0
 62
256
370
-1
  6
ByLayer
 10
-67.8529150152289873
 20
0.9266962480298004
 30
0.0
 11
-66.7633679812181526
 21
2.4275454278870927
 31
0.0
  0
LINE
  5
4C
100
AcDbEntity
100
AcDbLine
  8
0
 62
256
370
-1
  6
ByLayer
 10
-66.7633679812181526
 20
2.4275454278870927
 30
0.0
 11
-65.0002639241569682
 21
2.9997596220261711
 31
0.0
  0
LINE
  5
4D
100
AcDbEntity
100
AcDbLine
  8
0
 62
256
370
-1
  6
ByLayer
 10
-65.0002639241569682
 20
2.9997596220261711
 30
0.0
 11
-63.2365263980604695
 21
2.4268766156113166
 31
0.0
  0
LINE
  5
4E
100
AcDbEntity
100
AcDbLine
  8
0
 62
256
370
-1
  6
ByLayer
 10
-63.2365263980604695
 20
2.4268766156113166
 30
0.0
 11
-62.146517469726291
 21
0.9269257710327454
 31
0.0
  0
LINE
  5
4F
100
AcDbEntity
100
AcDbLine
  8
0
 62
256
370
-1
  6
ByLayer
 10
-62.146517469726291
 20
0.9269257710327454
 30
0.0
 11
-62.1468230190344713
 21
-0.926545002041244
 31
0.0
  0
LINE
  5
50
100
AcDbEntity
100
AcDbLine
  8
0
 62
256
370
-1
  6
ByLayer
 10
-62.1468230190344713
 20
-0.926545002041244
 30
0.0
 11
-63.2363700530453059
 21
-2.4273941818984599
 31
0.0
  0
LINE
  5
51
100
AcDbEntity
100
AcDbLine
  8
0
 62
256
370
-1
  6
ByLayer
 10
-63.2363700530453059
 20
-2.4273941818984599
 30
0.0
 11
-65.0003401355102852
 21
-3.0001083760377618
 31
0.0
  0
LINE
  5
52
100
AcDbEntity
100
AcDbLine
  8
0
 62
256
370
-1
  6
ByLayer
 10
-65.0003401355102852
 20
-3.0001083760377618
 30
0.0
 11
-66.7632116362029819
 21
-2.4267253696227016
 31
0.0
  0
LINE
  5
53
100
AcDbEntity
100
AcDbLine
  8
0
 62
256
370
-1
  6
ByLayer
 10
-66.7632116362029819
 20
-2.4267253696227016
 30
0.0
 11
-67.8532205645371533
 21
-0.9267745250442053
 31
0.0
  0
LINE
  5
54
100
AcDbEntity
100
AcDbLine
  8
0
 62
256
370
-1
  6
ByLayer
 10
-13.030126694849482
 20
-65.8191585354611703
 30
0.0
 11
-13.0303544665381015
 21
-64.0687640233239648
 31
0.0
  0
LINE
  5
55
100
AcDbEntity
100
AcDbLine
  8
0
 62
256
370
-1
  6
ByLayer
 10
-13.0303544665381015
 20
-64.0687640233239648
 30
0.0
 11
-11.5148100099153687
 21
-63.1937640233239577
 31
0.0
  0
LINE
  5
56
100
AcDbEntity
100
AcDbLine
  8
0
 62
256
370
-1
  6
ByLayer
 10
-11.5148100099153687
 20
-63.1937640233239577
 30
0.0
 11
-9.999037781603926
 21
-64.0691585354611703
 31
0.0
  0
LINE
  5
57
100
AcDbEntity
100
AcDbLine
  8
0
 62
256
370
-1
  6
ByLayer
 10
-9.999037781603926
 20
-64.0691585354611703
 30
0.0
 11
-9.9993100099153303
 21
-65.8186870221945952
 31
0.0
  0
LINE
  5
58
100
AcDbEntity
100
AcDbLine
  8
0
 62
256
370
-1
  6
ByLayer
 10
-9.9993100099153303
 20
-65.8186870221945952
 30
0.0
 11
-11.5148544665381038
 21
-66.6936870221945952
 31
0.0
  0
LINE
  5
59
100
AcDbEntity
100
AcDbLine
  8
0
 62
256
370
-1
  6
ByLayer
 10
-11.5148544665381038
 20
-66.6936870221945952
 30
0.0
 11
-13.030126694849482
 21
-65.8191585354611703
 31
0.0
  0
LINE
  5
5A
100
AcDbEntity
100
AcDbLine
  8
0
 62
256
370
-1
  6
ByLayer
 10
-35.251569265405216
 20
-14.3064909857846931
 30
0.0
 11
-35.2512970370938206
 21
-12.5569624990512807
 31
0.0
  0
LINE
  5
5B
100
AcDbEntity
100
AcDbLine
  8
0
 62
256
370
-1
  6
ByLayer
 10
-35.2512970370938206
 20
-12.5569624990512807
 30
0.0
 11
-33.7357525804710718
 21
-11.6819624990512381
 31
0.0
  0
LINE
  5
5C
100
AcDbEntity
100
AcDbLine
  8
0
 62
256
370
-1
  6
ByLayer
 10
-33.7357525804710718
 20
-11.6819624990512381
 30
0.0
 11
-32.2204803521596688
 21
-12.5564909857847109
 31
0.0
  0
LINE
  5
5D
100
AcDbEntity
100
AcDbLine
  8
0
 62
256
370
-1
  6
ByLayer
 10
-32.2204803521596688
 20
-12.5564909857847109
 30
0.0
 11
-32.2202525804710618
 21
-14.3068854979218933
 31
0.0
  0
LINE
  5
5E
100
AcDbEntity
100
AcDbLine
  8
0
 62
256
370
-1
  6
ByLayer
 10
-32.2202525804710618
 20
-14.3068854979218933
 30
0.0
 11
-33.735797037093846
 21
-15.1818854979218578
 31
0.0
  0
LINE
  5
5F
100
AcDbEntity
100
AcDbLine
  8
0
 62
256
370
-1
  6
ByLayer
 10
-33.735797037093846
 20
-15.1818854979218578
 30
0.0
 11
-35.251569265405216
 21
-14.3064909857846931
 31
0.0
  0
LINE
  5
60
100
AcDbEntity
100
AcDbLine
  8
0
 62
256
370
-1
  6
ByLayer
 10
-35.2511160417726401
 20
12.5567240078565057
 30
0.0
 11
-35.25134381346124
 21
14.3071185199937361
 31
0.0
  0
LINE
  5
61
100
AcDbEntity
100
AcDbLine
  8
0
 62
256
370
-1
  6
ByLayer
 10
-35.25134381346124
 20
14.3071185199937361
 30
0.0
 11
-33.7357993568384913
 21
15.1821185199937005
 31
0.0
  0
LINE
  5
62
100
AcDbEntity
100
AcDbLine
  8
0
 62
256
370
-1
  6
ByLayer
 10
-33.7357993568384913
 20
15.1821185199937005
 30
0.0
 11
-32.2200271285271
 21
14.3067240078565163
 31
0.0
  0
LINE
  5
63
100
AcDbEntity
100
AcDbLine
  8
0
 62
256
370
-1
  6
ByLayer
 10
-32.2200271285271
 20
14.3067240078565163
 30
0.0
 11
-32.2197993568384788
 21
12.5563294957193197
 31
0.0
  0
LINE
  5
64
100
AcDbEntity
100
AcDbLine
  8
0
 62
256
370
-1
  6
ByLayer
 10
-32.2197993568384788
 20
12.5563294957193197
 30
0.0
 11
-33.7353438134612418
 21
11.6813294957193321
 31
0.0
  0
LINE
  5
65
100
AcDbEntity
100
AcDbLine
  8
0
 62
256
370
-1
  6
ByLayer
 10
-33.7353438134612418
 20
11.6813294957193321
 30
0.0
 11
-35.2511160417726401
 21
12.5567240078565057
 31
0.0
  0
LINE
  5
66
100
AcDbEntity
100
AcDbLine
  8
0
 62
256
370
-1
  6
ByLayer
 10
-52.0011160417725904
 20
41.5685750346352521
 30
0.0
 11
-52.0013438134612471
 21
43.3189695467724221
 31
0.0
  0
LINE
  5
67
100
AcDbEntity
100
AcDbLine
  8
0
 62
256
370
-1
  6
ByLayer
 10
-52.0013438134612471
 20
43.3189695467724221
 30
0.0
 11
-50.4857993568384558
 21
44.1939695467724505
 31
0.0
  0
LINE
  5
68
100
AcDbEntity
100
AcDbLine
  8
0
 62
256
370
-1
  6
ByLayer
 10
-50.4857993568384558
 20
44.1939695467724505
 30
0.0
 11
-48.9700271285270929
 21
43.3185750346352094
 31
0.0
  0
LINE
  5
69
100
AcDbEntity
100
AcDbLine
  8
0
 62
256
370
-1
  6
ByLayer
 10
-48.9700271285270929
 20
43.3185750346352094
 30
0.0
 11
-48.9697993568384575
 21
41.568180522498011
 31
0.0
  0
LINE
  5
6A
100
AcDbEntity
100
AcDbLine
  8
0
 62
256
370
-1
  6
ByLayer
 10
-48.9697993568384575
 20
41.568180522498011
 30
0.0
 11
-50.4853438134611991
 21
40.6931805224980394
 31
0.0
  0
LINE
  5
6B
100
AcDbEntity
100
AcDbLine
  8
0
 62
256
370
-1
  6
ByLayer
 10
-50.4853438134611991
 20
40.6931805224980394
 30
0.0
 11
-52.0011160417725904
 21
41.5685750346352521
 31
0.0
  0
LINE
  5
6C
100
AcDbEntity
100
AcDbLine
  8
0
 62
256
370
-1
  6
ByLayer
 10
3.7200023197446663
 20
-36.8072330220718129
 30
0.0
 11
3.7197745480560367
 21
-35.0568385099346145
 31
0.0
  0
LINE
  5
6D
100
AcDbEntity
100
AcDbLine
  8
0
 62
256
370
-1
  6
ByLayer
 10
3.7197745480560367
 20
-35.0568385099346145
 30
0.0
 11
5.2353190046787992
 21
-34.1818385099346145
 31
0.0
  0
LINE
  5
6E
100
AcDbEntity
100
AcDbLine
  8
0
 62
256
370
-1
  6
ByLayer
 10
5.2353190046787992
 20
-34.1818385099346145
 30
0.0
 11
6.751091232990186
 21
-35.05723302207182
 31
0.0
  0
LINE
  5
6F
100
AcDbEntity
100
AcDbLine
  8
0
 62
256
370
-1
  6
ByLayer
 10
6.751091232990186
 20
-35.05723302207182
 30
0.0
 11
6.7508190046788057
 21
-36.806761508805252
 31
0.0
  0
LINE
  5
70
100
AcDbEntity
100
AcDbLine
  8
0
 62
256
370
-1
  6
ByLayer
 10
6.7508190046788057
 20
-36.806761508805252
 30
0.0
 11
5.2352745480560303
 21
-37.6817615088052449
 31
0.0
  0
LINE
  5
71
100
AcDbEntity
100
AcDbLine
  8
0
 62
256
370
-1
  6
ByLayer
 10
5.2352745480560303
 20
-37.6817615088052449
 30
0.0
 11
3.7200023197446663
 21
-36.8072330220718129
 31
0.0
  0
LINE
  5
72
100
AcDbEntity
100
AcDbLine
  8
0
 62
256
370
-1
  6
ByLayer
 10
44.9019237886466698
 20
-83.7724133595216784
 30
0.0
 11
44.5166563450151784
 21
-81.959110572649692
 31
0.0
  0
LINE
  5
73
100
AcDbEntity
100
AcDbLine
  8
0
 62
256
370
-1
  6
ByLayer
 10
44.5166563450151784
 20
-81.959110572649692
 30
0.0
 11
45.2706944506918205
 21
-80.2651428825246711
 31
0.0
  0
LINE
  5
74
100
AcDbEntity
100
AcDbLine
  8
0
 62
256
370
-1
  6
ByLayer
 10
45.2706944506918205
 20
-80.2651428825246711
 30
0.0
 11
46.8763055493081922
 21
-79.3381428825246644
 31
0.0
  0
LINE
  5
75
100
AcDbEntity
100
AcDbLine
  8
0
 62
256
370
-1
  6
ByLayer
 10
46.8763055493081922
 20
-79.3381428825246644
 30
0.0
 11
48.7203436549848377
 21
-79.5321105726496995
 31
0.0
  0
LINE
  5
76
100
AcDbEntity
100
AcDbLine
  8
0
 62
256
370
-1
  6
ByLayer
 10
48.7203436549848377
 20
-79.5321105726496995
 30
0.0
 11
50.0980762113533444
 21
-80.77241335952165
 31
0.0
  0
LINE
  5
77
100
AcDbEntity
100
AcDbLine
  8
0
 62
256
370
-1
  6
ByLayer
 10
50.0980762113533444
 20
-80.77241335952165
 30
0.0
 11
50.4833436549848429
 21
-82.5857161463936364
 31
0.0
  0
LINE
  5
78
100
AcDbEntity
100
AcDbLine
  8
0
 62
256
370
-1
  6
ByLayer
 10
50.4833436549848429
 20
-82.5857161463936364
 30
0.0
 11
49.7293055493081653
 21
-84.2796838365186858
 31
0.0
  0
LINE
  5
79
100
AcDbEntity
100
AcDbLine
  8
0
 62
256
370
-1
  6
ByLayer
 10
49.7293055493081653
 20
-84.2796838365186858
 30
0.0
 11
48.1236944506918576
 21
-85.2066838365186641
 31
0.0
  0
LINE
  5
7A
100
AcDbEntity
100
AcDbLine
  8
0
 62
256
370
-1
  6
ByLayer
 10
48.1236944506918576
 20
-85.2066838365186641
 30
0.0
 11
46.2796563450151694
 21
-85.0127161463936289
 31
0.0
  0
LINE
  5
7B
100
AcDbEntity
100
AcDbLine
  8
0
 62
256
370
-1
  6
ByLayer
 10
46.2796563450151694
 20
-85.0127161463936289
 30
0.0
 11
44.9019237886466698
 21
-83.7724133595216784
 31
0.0
  0
LINE
  5
7C
100
AcDbEntity
100
AcDbLine
  8
0
 62
256
370
-1
  6
ByLayer
 10
26.9849087670098129
 20
-23.3752330220718143
 30
0.0
 11
26.9846809953212059
 21
-21.6248385099346052
 31
0.0
  0
LINE
  5
7D
100
AcDbEntity
100
AcDbLine
  8
0
 62
256
370
-1
  6
ByLayer
 10
26.9846809953212059
 20
-21.6248385099346052
 30
0.0
 11
28.5002254519439653
 21
-20.7498385099346052
 31
0.0
  0
LINE
  5
7E
100
AcDbEntity
100
AcDbLine
  8
0
 62
256
370
-1
  6
ByLayer
 10
28.5002254519439653
 20
-20.7498385099346052
 30
0.0
 11
30.0159976802553423
 21
-21.625233022071825
 31
0.0
  0
LINE
  5
7F
100
AcDbEntity
100
AcDbLine
  8
0
 62
256
370
-1
  6
ByLayer
 10
30.0159976802553423
 20
-21.625233022071825
 30
0.0
 11
30.0157254519439718
 21
-23.3747615088052356
 31
0.0
  0
LINE
  5
80
100
AcDbEntity
100
AcDbLine
  8
0
 62
256
370
-1
  6
ByLayer
 10
30.0157254519439718
 20
-23.3747615088052356
 30
0.0
 11
28.5001809953212017
 21
-24.2497615088052427
 31
0.0
  0
LINE
  5
81
100
AcDbEntity
100
AcDbLine
  8
0
 62
256
370
-1
  6
ByLayer
 10
28.5001809953212017
 20
-24.2497615088052427
 30
0.0
 11
26.9849087670098129
 21
-23.3752330220718143
 31
0.0
  0
LINE
  5
82
100
AcDbEntity
100
AcDbLine
  8
0
 62
256
370
-1
  6
ByLayer
 10
-90.5732417715238967
 20
-52.994543445500895
 30
0.0
 11
-88.3968438559249137
 21
-50.0001752128053027
 31
0.0
  0
LINE
  5
83
100
AcDbEntity
100
AcDbLine
  8
0
 62
256
370
-1
  6
ByLayer
 10
-88.3968438559249137
 20
-50.0001752128053027
 30
0.0
 11
-79.8942562017186617
 21
-30.9010890256984538
 31
0.0
  0
LINE
  5
84
100
AcDbEntity
100
AcDbLine
  8
0
 62
256
370
-1
  6
ByLayer
 10
-79.8942562017186617
 20
-30.9010890256984538
 30
0.0
 11
-75.547792853581953
 21
-10.4533843779071329
 31
0.0
  0
LINE
  5
85
100
AcDbEntity
100
AcDbLine
  8
0
 62
256
370
-1
  6
ByLayer
 10
-75.547792853581953
 20
-10.4533843779071329
 30
0.0
 11
-75.5477293078232037
 21
10.4525055576102162
 31
0.0
  0
LINE
  5
86
100
AcDbEntity
100
AcDbLine
  8
0
 62
256
370
-1
  6
ByLayer
 10
-75.5477293078232037
 20
10.4525055576102162
 30
0.0
 11
-79.8947051993757498
 21
30.9016886610561201
 31
0.0
  0
LINE
  5
87
100
AcDbEntity
100
AcDbLine
  8
0
 62
256
370
-1
  6
ByLayer
 10
-79.8947051993757498
 20
30.9016886610561201
 30
0.0
 11
-88.3970736667029797
 21
50.0002228311383092
 31
0.0
  0
LINE
  5
88
100
AcDbEntity
100
AcDbLine
  8
0
 62
256
370
-1
  6
ByLayer
 10
-88.3970736667029797
 20
50.0002228311383092
 30
0.0
 11
-90.5727254979675251
 21
52.9945623424688961
 31
0.0
  0
LINE
  5
89
100
AcDbEntity
100
AcDbLine
  8
0
 62
256
370
-1
  6
ByLayer
 10
-90.5727254979675251
 20
52.9945623424688961
 30
0.0
 11
-78.9006586479139713
 21
69.0599495288358725
 31
0.0
  0
LINE
  5
8A
100
AcDbEntity
100
AcDbLine
  8
0
 62
256
370
-1
  6
ByLayer
 10
-78.9006586479139713
 20
69.0599495288358725
 30
0.0
 11
-64.2716586479140375
 21
43.7217782649106681
 31
0.0
  0
LINE
  5
8B
100
AcDbEntity
100
AcDbLine
  8
0
 62
256
370
-1
  6
ByLayer
 10
-64.2716586479140375
 20
43.7217782649106681
 30
0.0
 11
-5.7283413520859714
 21
77.5217782649107079
 31
0.0
  0
LINE
  5
8C
100
AcDbEntity
100
AcDbLine
  8
0
 62
256
370
-1
  6
ByLayer
 10
-5.7283413520859714
 20
77.5217782649107079
 30
0.0
 11
-20.3573413520860029
 21
102.8599495288358128
 31
0.0
  0
LINE
  5
8D
100
AcDbEntity
100
AcDbLine
  8
0
 62
256
370
-1
  6
ByLayer
 10
-20.3573413520860029
 20
102.8599495288358128
 30
0.0
 11
-0.0001663013169025
 21
105.0002880423303679
 31
0.0
  0
LINE
  5
8E
100
AcDbEntity
100
AcDbLine
  8
0
 62
256
370
-1
  6
ByLayer
 10
-0.0001663013169025
 20
105.0002880423303679
 30
0.0
 11
21.8310788444908539
 21
102.7054622572997431
 31
0.0
  0
LINE
  5
8F
100
AcDbEntity
100
AcDbLine
  8
0
 62
256
370
-1
  6
ByLayer
 10
21.8310788444908539
 20
102.7054622572997431
 30
0.0
 11
42.7077599752767227
 21
95.9219898453641946
 31
0.0
  0
LINE
  5
90
100
AcDbEntity
100
AcDbLine
  8
0
 62
256
370
-1
  6
ByLayer
 10
42.7077599752767227
 20
95.9219898453641946
 30
0.0
 11
61.7173887818109321
 21
84.9463469194220266
 31
0.0
  0
LINE
  5
91
100
AcDbEntity
100
AcDbLine
  8
0
 62
256
370
-1
  6
ByLayer
 10
61.7173887818109321
 20
84.9463469194220266
 30
0.0
 11
78.02963909568075
 21
70.2587005900180799
 31
0.0
  0
LINE
  5
92
100
AcDbEntity
100
AcDbLine
  8
0
 62
256
370
-1
  6
ByLayer
 10
78.02963909568075
 20
70.2587005900180799
 30
0.0
 11
90.9326673973660604
 21
52.4999999999999929
 31
0.0
  0
LINE
  5
93
100
AcDbEntity
100
AcDbLine
  8
0
 62
256
370
-1
  6
ByLayer
 10
90.9326673973660604
 20
52.4999999999999929
 30
0.0
 11
99.2583730332673611
 21
33.7994548297563711
 31
0.0
  0
LINE
  5
94
100
AcDbEntity
100
AcDbLine
  8
0
 62
256
370
-1
  6
ByLayer
 10
99.2583730332673611
 20
33.7994548297563711
 30
0.0
 11
70.0000213521772565
 21
33.8004064871227285
 31
0.0
  0
LINE
  5
95
100
AcDbEntity
100
AcDbLine
  8
0
 62
256
370
-1
  6
ByLayer
 10
70.0000213521772565
 20
33.8004064871227285
 30
0.0
 11
70.0003627042632246
 21
-33.800184752033438
 31
0.0
  0
LINE
  5
96
100
AcDbEntity
100
AcDbLine
  8
0
 62
256
370
-1
  6
ByLayer
 10
70.0003627042632246
 20
-33.800184752033438
 30
0.0
 11
99.2582143853533267
 21
-33.8002703839960148
 31
0.0
  0
LINE
  5
97
100
AcDbEntity
100
AcDbLine
  8
0
 62
256
370
-1
  6
ByLayer
 10
99.2582143853533267
 20
-33.8002703839960148
 30
0.0
 11
90.932833698683055
 21
-52.5002880423303182
 31
0.0
  0
LINE
  5
98
100
AcDbEntity
100
AcDbLine
  8
0
 62
256
370
-1
  6
ByLayer
 10
90.932833698683055
 20
-52.5002880423303182
 30
0.0
 11
78.0304262765937011
 21
-70.2586628473178223
 31
0.0
  0
LINE
  5
99
100
AcDbEntity
100
AcDbLine
  8
0
 62
256
370
-1
  6
ByLayer
 10
78.0304262765937011
 20
-70.2586628473178223
 30
0.0
 11
61.7171288065341699
 21
-84.9472027901900191
 31
0.0
  0
LINE
  5
9A
100
AcDbEntity
100
AcDbLine
  8
0
 62
256
370
-1
  6
ByLayer
 10
61.7171288065341699
 20
-84.9472027901900191
 30
0.0
 11
42.7078711934658344
 21
-95.9222027901899708
 31
0.0
  0
LINE
  5
9B
100
AcDbEntity
100
AcDbLine
  8
0
 62
256
370
-1
  6
ByLayer
 10
42.7078711934658344
 20
-95.9222027901899708
 30
0.0
 11
21.8305737234063244
 21
-102.705662847317825
 31
0.0
  0
LINE
  5
9C
100
AcDbEntity
100
AcDbLine
  8
0
 62
256
370
-1
  6
ByLayer
 10
21.8305737234063244
 20
-102.705662847317825
 30
0.0
 11
0.0001663013169363
 21
-105.0002880423303679
 31
0.0
  0
LINE
  5
9D
100
AcDbEntity
100
AcDbLine
  8
0
 62
256
370
-1
  6
ByLayer
 10
0.0001663013169363
 20
-105.0002880423303679
 30
0.0
 11
-20.3572143853533802
 21
-102.8602703839959815
 31
0.0
  0
LINE
  5
9E
100
AcDbEntity
100
AcDbLine
  8
0
 62
256
370
-1
  6
ByLayer
 10
-20.3572143853533802
 20
-102.8602703839959815
 30
0.0
 11
-5.7283627042632173
 21
-77.5221847520334535
 31
0.0
  0
LINE
  5
9F
100
AcDbEntity
100
AcDbLine
  8
0
 62
256
370
-1
  6
ByLayer
 10
-5.7283627042632173
 20
-77.5221847520334535
 30
0.0
 11
-64.2720213521772763
 21
-43.7215935128772273
 31
0.0
  0
LINE
  5
A0
100
AcDbEntity
100
AcDbLine
  8
0
 62
256
370
-1
  6
ByLayer
 10
-64.2720213521772763
 20
-43.7215935128772273
 30
0.0
 11
-78.9003730332673854
 21
-69.0605451702435573
 31
0.0
  0
LINE
  5
A1
100
AcDbEntity
100
AcDbLine
  8
0
 62
256
370
-1
  6
ByLayer
 10
-78.9003730332673854
 20
-69.0605451702435573
 30
0.0
 11
-90.5732417715238967
 21
-52.994543445500895
 31
0.0
  0
LINE
  5
A2
100
AcDbEntity
100
AcDbLine
  8
0
 62
256
370
-1
  6
ByLayer
 10
3.7200271285271023
 20
35.0567240078565021
 30
0.0
 11
3.7197993568384793
 21
36.8071185199937077
 31
0.0
  0
LINE
  5
A3
100
AcDbEntity
100
AcDbLine
  8
0
 62
256
370
-1
  6
ByLayer
 10
3.7197993568384793
 20
36.8071185199937077
 30
0.0
 11
5.2353438134612418
 21
37.6821185199937077
 31
0.0
  0
LINE
  5
A4
100
AcDbEntity
100
AcDbLine
  8
0
 62
256
370
-1
  6
ByLayer
 10
5.2353438134612418
 20
37.6821185199937077
 30
0.0
 11
6.751116041772649
 21
36.8067240078565021
 31
0.0
  0
LINE
  5
A5
100
AcDbEntity
100
AcDbLine
  8
0
 62
256
370
-1
  6
ByLayer
 10
6.751116041772649
 20
36.8067240078565021
 30
0.0
 11
6.7513438134612613
 21
35.0563294957192966
 31
0.0
  0
LINE
  5
A6
100
AcDbEntity
100
AcDbLine
  8
0
 62
256
370
-1
  6
ByLayer
 10
6.7513438134612613
 20
35.0563294957192966
 30
0.0
 11
5.2357993568384735
 21
34.1813294957192966
 31
0.0
  0
LINE
  5
A7
100
AcDbEntity
100
AcDbLine
  8
0
 62
256
370
-1
  6
ByLayer
 10
5.2357993568384735
 20
34.1813294957192966
 30
0.0
 11
3.7200271285271023
 21
35.0567240078565021
 31
0.0
  0
LINE
  5
A8
100
AcDbEntity
100
AcDbLine
  8
0
 62
256
370
-1
  6
ByLayer
 10
-13.029972871472884
 20
64.0685750346352023
 30
0.0
 11
-13.0302006431615389
 21
65.8189695467724079
 31
0.0
  0
LINE
  5
A9
100
AcDbEntity
100
AcDbLine
  8
0
 62
256
370
-1
  6
ByLayer
 10
-13.0302006431615389
 20
65.8189695467724079
 30
0.0
 11
-11.5146561865387351
 21
66.6939695467724221
 31
0.0
  0
LINE
  5
AA
100
AcDbEntity
100
AcDbLine
  8
0
 62
256
370
-1
  6
ByLayer
 10
-11.5146561865387351
 20
66.6939695467724221
 30
0.0
 11
-9.9988839582273439
 21
65.8185750346352023
 31
0.0
  0
LINE
  5
AB
100
AcDbEntity
100
AcDbLine
  8
0
 62
256
370
-1
  6
ByLayer
 10
-9.9988839582273439
 20
65.8185750346352023
 30
0.0
 11
-9.9986561865387333
 21
64.0681805224979826
 31
0.0
  0
LINE
  5
AC
100
AcDbEntity
100
AcDbLine
  8
0
 62
256
370
-1
  6
ByLayer
 10
-9.9986561865387333
 20
64.0681805224979826
 30
0.0
 11
-11.5142006431615158
 21
63.1931805224979826
 31
0.0
  0
LINE
  5
AD
100
AcDbEntity
100
AcDbLine
  8
0
 62
256
370
-1
  6
ByLayer
 10
-11.5142006431615158
 20
63.1931805224979826
 30
0.0
 11
-13.029972871472884
 21
64.0685750346352023
 31
0.0
  0
LINE
  5
AE
100
AcDbEntity
100
AcDbLine
  8
0
 62
256
370
-1
  6
ByLayer
 10
26.984480352159693
 20
21.6255090142153108
 30
0.0
 11
26.9847525804710635
 21
23.3750375009487499
 31
0.0
  0
LINE
  5
AF
100
AcDbEntity
100
AcDbLine
  8
0
 62
256
370
-1
  6
ByLayer
 10
26.9847525804710635
 20
23.3750375009487499
 30
0.0
 11
28.5002970370938371
 21
24.2500375009487392
 31
0.0
  0
LINE
  5
B0
100
AcDbEntity
100
AcDbLine
  8
0
 62
256
370
-1
  6
ByLayer
 10
28.5002970370938371
 20
24.2500375009487392
 30
0.0
 11
30.0155692654052118
 21
23.3755090142153286
 31
0.0
  0
LINE
  5
B1
100
AcDbEntity
100
AcDbLine
  8
0
 62
256
370
-1
  6
ByLayer
 10
30.0155692654052118
 20
23.3755090142153286
 30
0.0
 11
30.0157970370938436
 21
21.6251145020781053
 31
0.0
  0
LINE
  5
B2
100
AcDbEntity
100
AcDbLine
  8
0
 62
256
370
-1
  6
ByLayer
 10
30.0157970370938436
 20
21.6251145020781053
 30
0.0
 11
28.5002525804710736
 21
20.7501145020780982
 31
0.0
  0
LINE
  5
B3
100
AcDbEntity
100
AcDbLine
  8
0
 62
256
370
-1
  6
ByLayer
 10
28.5002525804710736
 20
20.7501145020780982
 30
0.0
 11
26.984480352159693
 21
21.6255090142153108
 31
0.0
  0
LINE
  5
B4
100
AcDbEntity
100
AcDbLine
  8
0
 62
256
370
-1
  6
ByLayer
 10
60.4850377816039426
 20
-23.3751585354611748
 30
0.0
 11
60.4848100099153285
 21
-21.6247640233239657
 31
0.0
  0
LINE
  5
B5
100
AcDbEntity
100
AcDbLine
  8
0
 62
256
370
-1
  6
ByLayer
 10
60.4848100099153285
 20
-21.6247640233239657
 30
0.0
 11
62.0003544665381057
 21
-20.7497640233239444
 31
0.0
  0
LINE
  5
B6
100
AcDbEntity
100
AcDbLine
  8
0
 62
256
370
-1
  6
ByLayer
 10
62.0003544665381057
 20
-20.7497640233239444
 30
0.0
 11
63.5161266948494898
 21
-21.6251585354611571
 31
0.0
  0
LINE
  5
B7
100
AcDbEntity
100
AcDbLine
  8
0
 62
256
370
-1
  6
ByLayer
 10
63.5161266948494898
 20
-21.6251585354611571
 30
0.0
 11
63.5158544665381086
 21
-23.3746870221945819
 31
0.0
  0
LINE
  5
B8
100
AcDbEntity
100
AcDbLine
  8
0
 62
256
370
-1
  6
ByLayer
 10
63.5158544665381086
 20
-23.3746870221945819
 30
0.0
 11
62.0003100099153244
 21
-24.2496870221945784
 31
0.0
  0
LINE
  5
B9
100
AcDbEntity
100
AcDbLine
  8
0
 62
256
370
-1
  6
ByLayer
 10
62.0003100099153244
 20
-24.2496870221945784
 30
0.0
 11
60.4850377816039426
 21
-23.3751585354611748
 31
0.0
  0
LINE
  5
BA
100
AcDbEntity
100
AcDbLine
  8
0
 62
256
370
-1
  6
ByLayer
 10
60.4846093667538227
 20
21.6255835008259716
 30
0.0
 11
60.4848815950652039
 21
23.3751119875594
 31
0.0
  0
LINE
  5
BB
100
AcDbEntity
100
AcDbLine
  8
0
 62
256
370
-1
  6
ByLayer
 10
60.4848815950652039
 20
23.3751119875594
 30
0.0
 11
62.0004260516879668
 21
24.2501119875594249
 31
0.0
  0
LINE
  5
BC
100
AcDbEntity
100
AcDbLine
  8
0
 62
256
370
-1
  6
ByLayer
 10
62.0004260516879668
 20
24.2501119875594249
 30
0.0
 11
63.5156982799993486
 21
23.3755835008259787
 31
0.0
  0
LINE
  5
BD
100
AcDbEntity
100
AcDbLine
  8
0
 62
256
370
-1
  6
ByLayer
 10
63.5156982799993486
 20
23.3755835008259787
 30
0.0
 11
63.5159260516879769
 21
21.6251889886887589
 31
0.0
  0
LINE
  5
BE
100
AcDbEntity
100
AcDbLine
  8
0
 62
256
370
-1
  6
ByLayer
 10
63.5159260516879769
 20
21.6251889886887589
 30
0.0
 11
62.0003815950651926
 21
20.750188988688766
 31
0.0
  0
LINE
  5
BF
100
AcDbEntity
100
AcDbLine
  8
0
 62
256
370
-1
  6
ByLayer
 10
62.0003815950651926
 20
20.750188988688766
 30
0.0
 11
60.4846093667538227
 21
21.6255835008259716
 31
0.0
  0
LINE
  5
C0
100
AcDbEntity
100
AcDbLine
  8
0
 62
256
370
-1
  6
ByLayer
 10
45.2707234854498282
 20
80.264806827799319
 30
0.0
 11
44.5167324137839771
 21
81.9587576723778568
 31
0.0
  0
LINE
  5
C1
100
AcDbEntity
100
AcDbLine
  8
0
 62
256
370
-1
  6
ByLayer
 10
44.5167324137839771
 20
81.9587576723778568
 30
0.0
 11
44.9016039144766665
 21
83.7721406787928231
 31
0.0
  0
LINE
  5
C2
100
AcDbEntity
100
AcDbLine
  8
0
 62
256
370
-1
  6
ByLayer
 10
44.9016039144766665
 20
83.7721406787928231
 30
0.0
 11
46.2795739969416857
 21
85.0134264846535928
 31
0.0
  0
LINE
  5
C3
100
AcDbEntity
100
AcDbLine
  8
0
 62
256
370
-1
  6
ByLayer
 10
46.2795739969416857
 20
85.0134264846535928
 30
0.0
 11
48.1241210309525229
 21
85.2065773047963404
 31
0.0
  0
LINE
  5
C4
100
AcDbEntity
100
AcDbLine
  8
0
 62
256
370
-1
  6
ByLayer
 10
48.1241210309525229
 20
85.2065773047963404
 30
0.0
 11
49.7294265802606859
 21
84.2801065317223106
 31
0.0
  0
LINE
  5
C5
100
AcDbEntity
100
AcDbLine
  8
0
 62
256
370
-1
  6
ByLayer
 10
49.7294265802606859
 20
84.2801065317223106
 30
0.0
 11
50.4834176519264943
 21
82.5861556871438296
 31
0.0
  0
LINE
  5
C6
100
AcDbEntity
100
AcDbLine
  8
0
 62
256
370
-1
  6
ByLayer
 10
50.4834176519264943
 20
82.5861556871438296
 30
0.0
 11
50.0976801258299744
 21
80.7722726807288751
 31
0.0
  0
LINE
  5
C7
100
AcDbEntity
100
AcDbLine
  8
0
 62
256
370
-1
  6
ByLayer
 10
50.0976801258299744
 20
80.7722726807288751
 30
0.0
 11
48.7205760687687928
 21
79.5314868748680794
 31
0.0
  0
LINE
  5
C8
100
AcDbEntity
100
AcDbLine
  8
0
 62
256
370
-1
  6
ByLayer
 10
48.7205760687687928
 20
79.5314868748680794
 30
0.0
 11
46.8760290347579769
 21
79.3383360547253176
 31
0.0
  0
LINE
  5
C9
100
AcDbEntity
100
AcDbLine
  8
0
 62
256
370
-1
  6
ByLayer
 10
46.8760290347579769
 20
79.3383360547253176
 30
0.0
 11
45.2707234854498282
 21
80.264806827799319
 31
0.0
  0
LINE
  5
CA
100
AcDbEntity
100
AcDbLine
  8
hole cross hairs
 62
256
370
-1
  6
ByLayer
 10
-65.0002639241569682
 20
2.9997596220261711
 30
0.0
 11
-65.0003401355102852
 21
-3.0001083760377618
 31
0.0
  0
LINE
  5
CB
100
AcDbEntity
100
AcDbLine
  8
hole cross hairs
 62
256
370
-1
  6
ByLayer
 10
-67.8530677898830703
 20
-0.0000391385072024
 30
0.0
 11
-62.1466702443803811
 21
0.0001903844957507
 31
0.0
  0
LINE
  5
CC
100
AcDbEntity
100
AcDbLine
  8
hole cross hairs
 62
256
370
-1
  6
ByLayer
 10
47.7983246021465149
 20
-79.4351267275871749
 30
0.0
 11
47.2016753978535135
 21
-85.1096999914561536
 31
0.0
  0
LINE
  5
CD
100
AcDbEntity
100
AcDbLine
  8
hole cross hairs
 62
256
370
-1
  6
ByLayer
 10
44.5166563450151784
 20
-81.959110572649692
 30
0.0
 11
50.4833436549848429
 21
-82.5857161463936364
 31
0.0
  0
LINE
  5
CE
100
AcDbEntity
100
AcDbLine
  8
hole cross hairs
 62
256
370
-1
  6
ByLayer
 10
48.1241210309525229
 20
85.2065773047963404
 30
0.0
 11
46.8760290347579769
 21
79.3383360547253176
 31
0.0
  0
LINE
  5
CF
100
AcDbEntity
100
AcDbLine
  8
hole cross hairs
 62
256
370
-1
  6
ByLayer
 10
50.2905488888782344
 20
81.6792141839363524
 30
0.0
 11
44.7091681641303182
 21
82.86544917558534
 31
0.0
  0
LINE
  5
D0
100
AcDbEntity
100
AcDbLine
  8
hole cross hairs
 62
256
370
-1
  6
ByLayer
 10
63.5158121658436627
 20
22.5003862447573688
 30
0.0
 11
60.4847454809095098
 21
22.5003477441926876
 31
0.0
  0
LINE
  5
D1
100
AcDbEntity
100
AcDbLine
  8
hole cross hairs
 62
256
370
-1
  6
ByLayer
 10
30.0156831512495259
 20
22.5003117581467151
 30
0.0
 11
26.98461646631538
 21
22.5002732575820303
 31
0.0
  0
LINE
  5
D2
100
AcDbEntity
100
AcDbLine
  8
hole cross hairs
 62
256
370
-1
  6
ByLayer
 10
30.0158615660996588
 20
-22.4999972654385303
 30
0.0
 11
26.9847948811655094
 21
-22.500035766003208
 31
0.0
  0
LINE
  5
D3
100
AcDbEntity
100
AcDbLine
  8
hole cross hairs
 62
256
370
-1
  6
ByLayer
 10
60.4849238957596356
 20
-22.4999612793925721
 30
0.0
 11
63.5159905806937957
 21
-22.4999227788278695
 31
0.0
  0
LINE
  5
D4
100
AcDbEntity
100
AcDbLine
  8
hole cross hairs
 62
256
370
-1
  6
ByLayer
 10
5.9932051188344921
 20
-34.6195357660032172
 30
0.0
 11
4.4776384339003483
 21
-37.2444972654385253
 31
0.0
  0
LINE
  5
D5
100
AcDbEntity
100
AcDbLine
  8
hole cross hairs
 62
256
370
-1
  6
ByLayer
 10
-32.9781164663153703
 20
-12.1192267424179754
 30
0.0
 11
-34.4936831512495274
 21
-14.7441882418532764
 31
0.0
  0
LINE
  5
D6
100
AcDbEntity
100
AcDbLine
  8
hole cross hairs
 62
256
370
-1
  6
ByLayer
 10
-9.999173895759629
 20
-64.9439227788278828
 30
0.0
 11
-13.0302405806937927
 21
-64.9439612793925676
 31
0.0
  0
LINE
  5
D7
100
AcDbEntity
100
AcDbLine
  8
hole cross hairs
 62
256
370
-1
  6
ByLayer
 10
-49.7282454809095356
 20
-41.1311522558072937
 30
0.0
 11
-51.2438121658436785
 21
-43.7561137552426089
 31
0.0
  0
LINE
  5
D8
100
AcDbEntity
100
AcDbLine
  8
hole cross hairs
 62
256
370
-1
  6
ByLayer
 10
5.9932299276169454
 20
37.2444212639251049
 30
0.0
 11
4.4779132426827877
 21
34.6190267517878993
 31
0.0
  0
LINE
  5
D9
100
AcDbEntity
100
AcDbLine
  8
hole cross hairs
 62
256
370
-1
  6
ByLayer
 10
-10.7567700723830395
 20
66.2562722907038051
 30
0.0
 11
-12.2720867573172008
 21
63.6308777785665924
 31
0.0
  0
LINE
  5
DA
100
AcDbEntity
100
AcDbLine
  8
hole cross hairs
 62
256
370
-1
  6
ByLayer
 10
-49.7279132426827744
 20
43.7562722907038335
 30
0.0
 11
-51.2432299276168948
 21
41.1308777785666422
 31
0.0
  0
LINE
  5
DB
100
AcDbEntity
100
AcDbLine
  8
hole cross hairs
 62
256
370
-1
  6
ByLayer
 10
-32.9779132426827957
 20
14.7444212639251084
 30
0.0
 11
-34.4932299276169374
 21
12.1190267517879189
 31
0.0
  0
LINE
  5
DC
100
AcDbEntity
100
AcDbLine
  8
hole cross hairs
 62
256
370
-1
  6
ByLayer
 10
-13.0302006431615389
 20
65.8189695467724079
 30
0.0
 11
-9.9986561865387333
 21
64.0681805224979826
 31
0.0
  0
LINE
  5
DD
100
AcDbEntity
100
AcDbLine
  8
hole cross hairs
 62
256
370
-1
  6
ByLayer
 10
3.7197993568384793
 20
36.8071185199937077
 30
0.0
 11
6.7513438134612613
 21
35.0563294957192966
 31
0.0
  0
LINE
  5
DE
100
AcDbEntity
100
AcDbLine
  8
hole cross hairs
 62
256
370
-1
  6
ByLayer
 10
-52.0013438134612471
 20
43.3189695467724221
 30
0.0
 11
-48.9697993568384575
 21
41.568180522498011
 31
0.0
  0
LINE
  5
DF
100
AcDbEntity
100
AcDbLine
  8
hole cross hairs
 62
256
370
-1
  6
ByLayer
 10
-35.25134381346124
 20
14.3071185199937361
 30
0.0
 11
-32.2197993568384788
 21
12.5563294957193197
 31
0.0
  0
LINE
  5
E0
100
AcDbEntity
100
AcDbLine
  8
hole cross hairs
 62
256
370
-1
  6
ByLayer
 10
28.5002970370938371
 20
24.2500375009487392
 30
0.0
 11
28.5002525804710736
 21
20.7501145020780982
 31
0.0
  0
LINE
  5
E1
100
AcDbEntity
100
AcDbLine
  8
hole cross hairs
 62
256
370
-1
  6
ByLayer
 10
28.5002254519439653
 20
-20.7498385099346052
 30
0.0
 11
28.5001809953212017
 21
-24.2497615088052427
 31
0.0
  0
LINE
  5
E2
100
AcDbEntity
100
AcDbLine
  8
hole cross hairs
 62
256
370
-1
  6
ByLayer
 10
62.0004260516879668
 20
24.2501119875594249
 30
0.0
 11
62.0003815950651926
 21
20.750188988688766
 31
0.0
  0
LINE
  5
E3
100
AcDbEntity
100
AcDbLine
  8
hole cross hairs
 62
256
370
-1
  6
ByLayer
 10
62.0003544665381057
 20
-20.7497640233239444
 30
0.0
 11
62.0003100099153244
 21
-24.2496870221945784
 31
0.0
  0
LINE
  5
E4
100
AcDbEntity
100
AcDbLine
  8
hole cross hairs
 62
256
370
-1
  6
ByLayer
 10
3.7197745480560367
 20
-35.0568385099346145
 30
0.0
 11
6.7508190046788057
 21
-36.806761508805252
 31
0.0
  0
LINE
  5
E5
100
AcDbEntity
100
AcDbLine
  8
hole cross hairs
 62
256
370
-1
  6
ByLayer
 10
-32.2202525804710618
 20
-14.3068854979218933
 30
0.0
 11
-35.2512970370938206
 21
-12.5569624990512807
 31
0.0
  0
LINE
  5
E6
100
AcDbEntity
100
AcDbLine
  8
hole cross hairs
 62
256
370
-1
  6
ByLayer
 10
-52.0014260516879787
 20
-41.5688880124405955
 30
0.0
 11
-48.9703815950652057
 21
-43.3188110113112117
 31
0.0
  0
LINE
  5
E7
100
AcDbEntity
100
AcDbLine
  8
hole cross hairs
 62
256
370
-1
  6
ByLayer
 10
-11.5148100099153687
 20
-63.1937640233239577
 30
0.0
 11
-11.5148544665381038
 21
-66.6936870221945952
 31
0.0
  0
ENDSEC
  0
SECTION
  2
OBJECTS
  0
DICTIONARY
  5
C
100
AcDbDictionary
280
0
281
1
  3
ACAD_GROUP
350
D
  3
ACAD_LAYOUT
350
1A
  3
ACAD_MLINESTYLE
350
17
  3
ACAD_PLOTSETTINGS
350
19
  3
ACAD_PLOTSTYLENAME
350
E
  3
AcDbVariableDictionary
350
E8
  0
DICTIONARY
  5
D
100
AcDbDictionary
280
0
281
1
  0
ACDBDICTIONARYWDFLT
  5
E
100
AcDbDictionary
281
1
  3
Normal
350
F
100
AcDbDictionaryWithDefault
340
F
  0
ACDBPLACEHOLDER
  5
F
  0
DICTIONARY
  5
17
100
AcDbDictionary
280
0
281
1
  3
Standard
350
18
  0
MLINESTYLE
  5
18
100
AcDbMlineStyle
  2
STANDARD
 70
0
  3

 62
256
 51
90.0
 52
90.0
 71
2
 49
0.5
 62
256
  6
BYLAYER
 49
-0.5
 62
256
  6
BYLAYER
  0
DICTIONARY
  5
19
100
AcDbDictionary
280
0
281
1
  0
DICTIONARY
  5
1A
100
AcDbDictionary
281
1
  3
Layout1
350
1E
  3
Layout2
350
26
  3
Model
350
22
  0
LAYOUT
  5
1E
100
AcDbPlotSettings
  1

  2
C:\Program Files\AutoCAD 2002\plotters\DWF ePlot (optimized for plotting).pc3
  4

  6

 40
0.0
 41
0.0
 42
0.0
 43
0.0
 44
0.0
 45
0.0
 46
0.0
 47
0.0
 48
0.0
 49
0.0
140
0.0
141
0.0
142
1.0
143
1.0
 70
688
 72
0
 73
0
 74
5
  7

 75
16
147
1.0
148
0.0
149
0.0
100
AcDbLayout
  1
Layout1
 70
1
 71
1
 10
0.0
 20
0.0
 11
420.0
 21
297.0
 12
0.0
 22
0.0
 32
0.0
 14
100000000000000000000.0
 24
100000000000000000000.0
 34
100000000000000000000.0
 15
-100000000000000000000.0
 25
-100000000000000000000.0
 35
-100000000000000000000.0
146
0.0
 13
0.0
 23
0.0
 33
0.0
 16
1.0
 26
0.0
 36
0.0
 17
0.0
 27
1.0
 37
0.0
 76
0
330
1B
  0
LAYOUT
  5
22
100
AcDbPlotSettings
  1

  2
C:\Program Files\AutoCAD 2002\plotters\DWF ePlot (optimized for plotting).pc3
  4

  6

 40
0.0
 41
0.0
 42
0.0
 43
0.0
 44
0.0
 45
0.0
 46
0.0
 47
0.0
 48
0.0
 49
0.0
140
0.0
141
0.0
142
1.0
143
1.0
 70
1712
 72
0
 73
0
 74
0
  7

 75
0
147
1.0
148
0.0
149
0.0
100
AcDbLayout
  1
Model
 70
1
 71
0
 10
0.0
 20
0.0
 11
12.0
 21
9.0
 12
0.0
 22
0.0
 32
0.0
 14
0.0
 24
0.0
 34
0.0
 15
0.0
 25
0.0
 35
0.0
146
0.0
 13
0.0
 23
0.0
 33
0.0
 16
1.0
 26
0.0
 36
0.0
 17
0.0
 27
1.0
 37
0.0
 76
0
330
1F
  0
LAYOUT
  5
26
100
AcDbPlotSettings
  1

  2
C:\Program Files\AutoCAD 2002\plotters\DWF ePlot (optimized for plotting).pc3
  4

  6

 40
0.0
 41
0.0
 42
0.0
 43
0.0
 44
0.0
 45
0.0
 46
0.0
 47
0.0
 48
0.0
 49
0.0
140
0.0
141
0.0
142
1.0
143
1.0
 70
688
 72
0
 73
0
 74
5
  7

 75
16
147
1.0
148
0.0
149
0.0
100
AcDbLayout
  1
Layout2
 70
1
 71
2
 10
0.0
 20
0.0
 11
12.0
 21
9.0
 12
0.0
 22
0.0
 32
0.0
 14
0.0
 24
0.0
 34
0.0
 15
0.0
 25
0.0
 35
0.0
146
0.0
 13
0.0
 23
0.0
 33
0.0
 16
1.0
 26
0.0
 36
0.0
 17
0.0
 27
1.0
 37
0.0
 76
0
330
23
  0
DICTIONARY
  5
E8
100
AcDbDictionary
281
1
  3
DIMASSOC
350
EA
  3
HIDETEXT
350
E9
  0
DICTIONARYVAR
  5
E9
100
DictionaryVariables
280
0
  1
2
  0
DICTIONARYVAR
  5
EA
100
DictionaryVariables
280
0
  1
1
  0
ENDSEC
  0
EOF
