999
dxflib 2.2.0.0
  0
SECTION
  2
HEADER
  9
$ACADVER
  1
AC1015
  9
$HANDSEED
  5
FFFF
  9
$DIMASZ
 40
2.5
  9
$PLIMMIN
 10
0.0
 20
0.0
  9
$DIMEXE
 40
1.25
  9
$DIMGAP
 40
0.625
  9
$PLIMMAX
 10
210.0
 20
297.0
  9
$INSUNITS
 70
4
  9
$DIMEXO
 40
0.625
  9
$DIMTXT
 40
2.5
  0
ENDSEC
  0
SECTION
  2
TABLES
  0
TABLE
  2
VPORT
  5
8
100
AcDbSymbolTable
 70
1
  0
VPORT
  5
30
100
AcDbSymbolTableRecord
100
AcDbViewportTableRecord
  2
*Active
 70
0
 10
0.0
 20
0.0
 11
1.0
 21
1.0
 12
286.30555555555549
 22
148.5
 13
0.0
 23
0.0
 14
10.0
 24
10.0
 15
10.0
 25
10.0
 16
0.0
 26
0.0
 36
1.0
 17
0.0
 27
0.0
 37
0.0
 40
297.0
 41
1.92798353909465
 42
50.0
 43
0.0
 44
0.0
 50
0.0
 51
0.0
 71
0
 72
100
 73
1
 74
3
 75
1
 76
1
 77
0
 78
0
281
0
 65
1
110
0.0
120
0.0
130
0.0
111
1.0
121
0.0
131
0.0
112
0.0
122
1.0
132
0.0
 79
0
146
0.0
  0
ENDTAB
  0
TABLE
  2
LTYPE
  5
5
100
AcDbSymbolTable
 70
21
  0
LTYPE
  5
14
100
AcDbSymbolTableRecord
100
AcDbLinetypeTableRecord
  2
ByBlock
 70
0
  3

 72
65
 73
0
 40
0.0
  0
LTYPE
  5
15
100
AcDbSymbolTableRecord
100
AcDbLinetypeTableRecord
  2
ByLayer
 70
0
  3

 72
65
 73
0
 40
0.0
  0
LTYPE
  5
16
100
AcDbSymbolTableRecord
100
AcDbLinetypeTableRecord
  2
CONTINUOUS
 70
0
  3
Solid line
 72
65
 73
0
 40
0.0
  0
LTYPE
  5
31
100
AcDbSymbolTableRecord
100
AcDbLinetypeTableRecord
  2
DOT
 70
0
  3
Dot . . . . . . . . . . . . . . . . . . . . . .
 72
65
 73
2
 40
6.3499999999999996
 49
0.0
 74
0
 49
-6.3499999999999996
 74
0
  0
LTYPE
  5
32
100
AcDbSymbolTableRecord
100
AcDbLinetypeTableRecord
  2
DOT2
 70
0
  3
Dot (.5x) .....................................
 72
65
 73
2
 40
3.1749999999999998
 49
0.0
 74
0
 49
-3.1749999999999998
 74
0
  0
LTYPE
  5
33
100
AcDbSymbolTableRecord
100
AcDbLinetypeTableRecord
  2
DOTX2
 70
0
  3
Dot (2x) .  .  .  .  .  .  .  .  .  .  .  .  .
 72
65
 73
2
 40
12.699999999999999
 49
0.0
 74
0
 49
-12.699999999999999
 74
0
  0
LTYPE
  5
34
100
AcDbSymbolTableRecord
100
AcDbLinetypeTableRecord
  2
DASHED
 70
0
  3
Dashed __ __ __ __ __ __ __ __ __ __ __ __ __ _
 72
65
 73
2
 40
19.050000000000001
 49
12.699999999999999
 74
0
 49
-6.3499999999999996
 74
0
  0
LTYPE
  5
35
100
AcDbSymbolTableRecord
100
AcDbLinetypeTableRecord
  2
DASHED2
 70
0
  3
Dashed (.5x) _ _ _ _ _ _ _ _ _ _ _ _ _ _ _ _ _
 72
65
 73
2
 40
9.5250000000000004
 49
6.3499999999999996
 74
0
 49
-3.1749999999999998
 74
0
  0
LTYPE
  5
36
100
AcDbSymbolTableRecord
100
AcDbLinetypeTableRecord
  2
DASHEDX2
 70
0
  3
Dashed (2x) ____  ____  ____  ____  ____  ___
 72
65
 73
2
 40
38.100000000000001
 49
25.399999999999999
 74
0
 49
-12.699999999999999
 74
0
  0
LTYPE
  5
37
100
AcDbSymbolTableRecord
100
AcDbLinetypeTableRecord
  2
DASHDOT
 70
0
  3
Dash dot __ . __ . __ . __ . __ . __ . __ . __
 72
65
 73
4
 40
25.399999999999999
 49
12.699999999999999
 74
0
 49
-6.3499999999999996
 74
0
 49
0.0
 74
0
 49
-6.3499999999999996
 74
0
  0
LTYPE
  5
38
100
AcDbSymbolTableRecord
100
AcDbLinetypeTableRecord
  2
DASHDOT2
 70
0
  3
Dash dot (.5x) _._._._._._._._._._._._._._._.
 72
65
 73
4
 40
12.699999999999999
 49
6.3499999999999996
 74
0
 49
-3.1749999999999998
 74
0
 49
0.0
 74
0
 49
-3.1749999999999998
 74
0
  0
LTYPE
  5
39
100
AcDbSymbolTableRecord
100
AcDbLinetypeTableRecord
  2
DASHDOTX2
 70
0
  3
Dash dot (2x) ____  .  ____  .  ____  .  ___
 72
65
 73
4
 40
50.799999999999997
 49
25.399999999999999
 74
0
 49
-12.699999999999999
 74
0
 49
0.0
 74
0
 49
-12.699999999999999
 74
0
  0
LTYPE
  5
3A
100
AcDbSymbolTableRecord
100
AcDbLinetypeTableRecord
  2
DIVIDE
 70
0
  3
Divide ____ . . ____ . . ____ . . ____ . . ____
 72
65
 73
6
 40
31.75
 49
12.699999999999999
 74
0
 49
-6.3499999999999996
 74
0
 49
0.0
 74
0
 49
-6.3499999999999996
 74
0
 49
0.0
 74
0
 49
-6.3499999999999996
 74
0
  0
LTYPE
  5
3B
100
AcDbSymbolTableRecord
100
AcDbLinetypeTableRecord
  2
DIVIDE2
 70
0
  3
Divide (.5x) __..__..__..__..__..__..__..__.._
 72
65
 73
6
 40
15.875
 49
6.3499999999999996
 74
0
 49
-3.1749999999999998
 74
0
 49
0.0
 74
0
 49
-3.1749999999999998
 74
0
 49
0.0
 74
0
 49
-3.1749999999999998
 74
0
  0
LTYPE
  5
3C
100
AcDbSymbolTableRecord
100
AcDbLinetypeTableRecord
  2
DIVIDEX2
 70
0
  3
Divide (2x) ________  .  .  ________  .  .  _
 72
65
 73
6
 40
63.5
 49
25.399999999999999
 74
0
 49
-12.699999999999999
 74
0
 49
0.0
 74
0
 49
-12.699999999999999
 74
0
 49
0.0
 74
0
 49
-12.699999999999999
 74
0
  0
LTYPE
  5
3D
100
AcDbSymbolTableRecord
100
AcDbLinetypeTableRecord
  2
CENTER
 70
0
  3
Center ____ _ ____ _ ____ _ ____ _ ____ _ ____
 72
65
 73
4
 40
50.799999999999997
 49
31.75
 74
0
 49
-6.3499999999999996
 74
0
 49
6.3499999999999996
 74
0
 49
-6.3499999999999996
 74
0
  0
LTYPE
  5
3E
100
AcDbSymbolTableRecord
100
AcDbLinetypeTableRecord
  2
CENTER2
 70
0
  3
Center (.5x) ___ _ ___ _ ___ _ ___ _ ___ _ ___
 72
65
 73
4
 40
28.574999999999999
 49
19.050000000000001
 74
0
 49
-3.1749999999999998
 74
0
 49
3.1749999999999998
 74
0
 49
-3.1749999999999998
 74
0
  0
LTYPE
  5
3F
100
AcDbSymbolTableRecord
100
AcDbLinetypeTableRecord
  2
CENTERX2
 70
0
  3
Center (2x) ________  __  ________  __  _____
 72
65
 73
4
 40
101.59999999999999
 49
63.5
 74
0
 49
-12.699999999999999
 74
0
 49
12.699999999999999
 74
0
 49
-12.699999999999999
 74
0
  0
LTYPE
  5
40
100
AcDbSymbolTableRecord
100
AcDbLinetypeTableRecord
  2
BORDER
 70
0
  3
Border __ __ . __ __ . __ __ . __ __ . __ __ .
 72
65
 73
6
 40
44.450000000000003
 49
12.699999999999999
 74
0
 49
-6.3499999999999996
 74
0
 49
12.699999999999999
 74
0
 49
-6.3499999999999996
 74
0
 49
0.0
 74
0
 49
-6.3499999999999996
 74
0
  0
LTYPE
  5
41
100
AcDbSymbolTableRecord
100
AcDbLinetypeTableRecord
  2
BORDER2
 70
0
  3
Border (.5x) __.__.__.__.__.__.__.__.__.__.__.
 72
65
 73
6
 40
22.225000000000001
 49
6.3499999999999996
 74
0
 49
-3.1749999999999998
 74
0
 49
6.3499999999999996
 74
0
 49
-3.1749999999999998
 74
0
 49
0.0
 74
0
 49
-3.1749999999999998
 74
0
  0
LTYPE
  5
42
100
AcDbSymbolTableRecord
100
AcDbLinetypeTableRecord
  2
BORDERX2
 70
0
  3
Border (2x) ____  ____  .  ____  ____  .  ___
 72
65
 73
6
 40
88.900000000000006
 49
25.399999999999999
 74
0
 49
-12.699999999999999
 74
0
 49
25.399999999999999
 74
0
 49
-12.699999999999999
 74
0
 49
0.0
 74
0
 49
-12.699999999999999
 74
0
  0
ENDTAB
  0
TABLE
  2
LAYER
  5
2
100
AcDbSymbolTable
 70
2
  0
LAYER
  5
10
100
AcDbSymbolTableRecord
100
AcDbLayerTableRecord
  2
0
 70
0
 62
7
  6
CONTINUOUS
370
0
390
F
  0
LAYER
  5
43
100
AcDbSymbolTableRecord
100
AcDbLayerTableRecord
  2
Hole cross hairs
 70
0
 62
7
  6
CONTINUOUS
370
0
390
F
  0
ENDTAB
  0
TABLE
  2
STYLE
  5
3
100
AcDbSymbolTable
 70
1
  0
STYLE
  5
11
100
AcDbSymbolTableRecord
100
AcDbTextStyleTableRecord
  2
Standard
 70
0
 40
0.0
 41
0.75
 50
0.0
 71
0
 42
2.5
  3
txt
  4

  0
ENDTAB
  0
TABLE
  2
VIEW
  5
6
100
AcDbSymbolTable
 70
0
  0
ENDTAB
  0
TABLE
  2
UCS
  5
7
100
AcDbSymbolTable
 70
0
  0
ENDTAB
  0
TABLE
  2
APPID
  5
9
100
AcDbSymbolTable
 70
1
  0
APPID
  5
12
100
AcDbSymbolTableRecord
100
AcDbRegAppTableRecord
  2
ACAD
 70
0
  0
ENDTAB
  0
TABLE
  2
DIMSTYLE
  5
A
100
AcDbSymbolTable
 70
1
100
AcDbDimStyleTable
 71
0
  0
DIMSTYLE
105
27
100
AcDbSymbolTableRecord
100
AcDbDimStyleTableRecord
  2
Standard
 41
2.5
 42
0.625
 43
3.75
 44
1.25
 70
0
 73
0
 74
0
 77
1
 78
8
140
2.5
141
2.5
143
0.03937007874016
147
0.625
171
3
172
1
271
2
272
2
274
3
278
44
283
0
284
8
340
11
  0
ENDTAB
  0
TABLE
  2
BLOCK_RECORD
  5
1
100
AcDbSymbolTable
 70
1
  0
BLOCK_RECORD
  5
1F
100
AcDbSymbolTableRecord
100
AcDbBlockTableRecord
  2
*Model_Space
340
22
  0
BLOCK_RECORD
  5
1B
100
AcDbSymbolTableRecord
100
AcDbBlockTableRecord
  2
*Paper_Space
340
1E
  0
BLOCK_RECORD
  5
23
100
AcDbSymbolTableRecord
100
AcDbBlockTableRecord
  2
*Paper_Space0
340
26
  0
ENDTAB
  0
ENDSEC
  0
SECTION
  2
BLOCKS
  0
BLOCK
  5
20
100
AcDbEntity
  8
0
100
AcDbBlockBegin
  2
*Model_Space
 70
0
 10
0.0
 20
0.0
 30
0.0
  3
*Model_Space
  1

  0
ENDBLK
  5
21
100
AcDbEntity
  8
0
100
AcDbBlockEnd
  0
BLOCK
  5
1C
100
AcDbEntity
 67
1
  8
0
100
AcDbBlockBegin
  2
*Paper_Space
 70
0
 10
0.0
 20
0.0
 30
0.0
  3
*Paper_Space
  1

  0
ENDBLK
  5
1D
100
AcDbEntity
 67
1
  8
0
100
AcDbBlockEnd
  0
BLOCK
  5
24
100
AcDbEntity
  8
0
100
AcDbBlockBegin
  2
*Paper_Space0
 70
0
 10
0.0
 20
0.0
 30
0.0
  3
*Paper_Space0
  1

  0
ENDBLK
  5
25
100
AcDbEntity
  8
0
100
AcDbBlockEnd
  0
ENDSEC
  0
SECTION
  2
ENTITIES
  0
LINE
  5
44
100
AcDbEntity
100
AcDbLine
  8
0
 62
256
370
-1
  6
ByLayer
 10
-105.0
 20
0.0
 30
0.0
 11
-102.705
 21
21.831
 31
0.0
  0
LINE
  5
45
100
AcDbEntity
100
AcDbLine
  8
0
 62
256
370
-1
  6
ByLayer
 10
-102.705
 20
21.831
 30
0.0
 11
-95.921999999999997
 21
42.707000000000001
 31
0.0
  0
LINE
  5
46
100
AcDbEntity
100
AcDbLine
  8
0
 62
256
370
-1
  6
ByLayer
 10
-95.921999999999997
 20
42.707000000000001
 30
0.0
 11
-84.947000000000003
 21
61.716999999999999
 31
0.0
  0
LINE
  5
47
100
AcDbEntity
100
AcDbLine
  8
0
 62
256
370
-1
  6
ByLayer
 10
-84.947000000000003
 20
61.716999999999999
 30
0.0
 11
-70.259
 21
78.030000000000001
 31
0.0
  0
LINE
  5
48
100
AcDbEntity
100
AcDbLine
  8
0
 62
256
370
-1
  6
ByLayer
 10
-70.259
 20
78.030000000000001
 30
0.0
 11
-52.5
 21
90.933000000000007
 31
0.0
  0
LINE
  5
49
100
AcDbEntity
100
AcDbLine
  8
0
 62
256
370
-1
  6
ByLayer
 10
-52.5
 20
90.933000000000007
 30
0.0
 11
-32.447000000000003
 21
99.861000000000004
 31
0.0
  0
LINE
  5
4A
100
AcDbEntity
100
AcDbLine
  8
0
 62
256
370
-1
  6
ByLayer
 10
-32.447000000000003
 20
99.861000000000004
 30
0.0
 11
-10.975
 21
104.425
 31
0.0
  0
LINE
  5
4B
100
AcDbEntity
100
AcDbLine
  8
0
 62
256
370
-1
  6
ByLayer
 10
-10.975
 20
104.425
 30
0.0
 11
10.975
 21
104.425
 31
0.0
  0
LINE
  5
4C
100
AcDbEntity
100
AcDbLine
  8
0
 62
256
370
-1
  6
ByLayer
 10
10.975
 20
104.425
 30
0.0
 11
32.447000000000003
 21
99.861000000000004
 31
0.0
  0
LINE
  5
4D
100
AcDbEntity
100
AcDbLine
  8
0
 62
256
370
-1
  6
ByLayer
 10
32.447000000000003
 20
99.861000000000004
 30
0.0
 11
52.5
 21
90.933000000000007
 31
0.0
  0
LINE
  5
4E
100
AcDbEntity
100
AcDbLine
  8
0
 62
256
370
-1
  6
ByLayer
 10
52.5
 20
90.933000000000007
 30
0.0
 11
70.259
 21
78.030000000000001
 31
0.0
  0
LINE
  5
4F
100
AcDbEntity
100
AcDbLine
  8
0
 62
256
370
-1
  6
ByLayer
 10
70.259
 20
78.030000000000001
 30
0.0
 11
84.947000000000003
 21
61.716999999999999
 31
0.0
  0
LINE
  5
50
100
AcDbEntity
100
AcDbLine
  8
0
 62
256
370
-1
  6
ByLayer
 10
84.947000000000003
 20
61.716999999999999
 30
0.0
 11
95.921999999999997
 21
42.707000000000001
 31
0.0
  0
LINE
  5
51
100
AcDbEntity
100
AcDbLine
  8
0
 62
256
370
-1
  6
ByLayer
 10
95.921999999999997
 20
42.707000000000001
 30
0.0
 11
102.705
 21
21.831
 31
0.0
  0
LINE
  5
52
100
AcDbEntity
100
AcDbLine
  8
0
 62
256
370
-1
  6
ByLayer
 10
102.705
 20
21.831
 30
0.0
 11
105.0
 21
0.0
 31
0.0
  0
LINE
  5
53
100
AcDbEntity
100
AcDbLine
  8
0
 62
256
370
-1
  6
ByLayer
 10
105.0
 20
0.0
 30
0.0
 11
102.705
 21
-21.831
 31
0.0
  0
LINE
  5
54
100
AcDbEntity
100
AcDbLine
  8
0
 62
256
370
-1
  6
ByLayer
 10
102.705
 20
-21.831
 30
0.0
 11
95.921999999999997
 21
-42.707000000000001
 31
0.0
  0
LINE
  5
55
100
AcDbEntity
100
AcDbLine
  8
0
 62
256
370
-1
  6
ByLayer
 10
95.921999999999997
 20
-42.707000000000001
 30
0.0
 11
84.947000000000003
 21
-61.716999999999999
 31
0.0
  0
LINE
  5
56
100
AcDbEntity
100
AcDbLine
  8
0
 62
256
370
-1
  6
ByLayer
 10
84.947000000000003
 20
-61.716999999999999
 30
0.0
 11
70.259
 21
-78.030000000000001
 31
0.0
  0
LINE
  5
57
100
AcDbEntity
100
AcDbLine
  8
0
 62
256
370
-1
  6
ByLayer
 10
70.259
 20
-78.030000000000001
 30
0.0
 11
52.5
 21
-90.933000000000007
 31
0.0
  0
LINE
  5
58
100
AcDbEntity
100
AcDbLine
  8
0
 62
256
370
-1
  6
ByLayer
 10
52.5
 20
-90.933000000000007
 30
0.0
 11
32.447000000000003
 21
-99.861000000000004
 31
0.0
  0
LINE
  5
59
100
AcDbEntity
100
AcDbLine
  8
0
 62
256
370
-1
  6
ByLayer
 10
32.447000000000003
 20
-99.861000000000004
 30
0.0
 11
10.975
 21
-104.425
 31
0.0
  0
LINE
  5
5A
100
AcDbEntity
100
AcDbLine
  8
0
 62
256
370
-1
  6
ByLayer
 10
10.975
 20
-104.425
 30
0.0
 11
-10.975
 21
-104.425
 31
0.0
  0
LINE
  5
5B
100
AcDbEntity
100
AcDbLine
  8
0
 62
256
370
-1
  6
ByLayer
 10
-10.975
 20
-104.425
 30
0.0
 11
-32.447000000000003
 21
-99.861000000000004
 31
0.0
  0
LINE
  5
5C
100
AcDbEntity
100
AcDbLine
  8
0
 62
256
370
-1
  6
ByLayer
 10
-32.447000000000003
 20
-99.861000000000004
 30
0.0
 11
-52.5
 21
-90.933000000000007
 31
0.0
  0
LINE
  5
5D
100
AcDbEntity
100
AcDbLine
  8
0
 62
256
370
-1
  6
ByLayer
 10
-52.5
 20
-90.933000000000007
 30
0.0
 11
-70.259
 21
-78.030000000000001
 31
0.0
  0
LINE
  5
5E
100
AcDbEntity
100
AcDbLine
  8
0
 62
256
370
-1
  6
ByLayer
 10
-70.259
 20
-78.030000000000001
 30
0.0
 11
-84.947000000000003
 21
-61.716999999999999
 31
0.0
  0
LINE
  5
5F
100
AcDbEntity
100
AcDbLine
  8
0
 62
256
370
-1
  6
ByLayer
 10
-84.947000000000003
 20
-61.716999999999999
 30
0.0
 11
-95.921999999999997
 21
-42.707000000000001
 31
0.0
  0
LINE
  5
60
100
AcDbEntity
100
AcDbLine
  8
0
 62
256
370
-1
  6
ByLayer
 10
-95.921999999999997
 20
-42.707000000000001
 30
0.0
 11
-102.705
 21
-21.831
 31
0.0
  0
LINE
  5
61
100
AcDbEntity
100
AcDbLine
  8
0
 62
256
370
-1
  6
ByLayer
 10
-102.705
 20
-21.831
 30
0.0
 11
-105.0
 21
0.0
 31
0.0
  0
LINE
  5
62
100
AcDbEntity
100
AcDbLine
  8
0
 62
256
370
-1
  6
ByLayer
 10
-91.203999999999994
 20
43.133000000000003
 30
0.0
 11
-90.957999999999998
 21
44.878999999999998
 31
0.0
  0
LINE
  5
63
100
AcDbEntity
100
AcDbLine
  8
0
 62
256
370
-1
  6
ByLayer
 10
-90.957999999999998
 20
44.878999999999998
 30
0.0
 11
-89.221999999999994
 21
45.185000000000002
 31
0.0
  0
LINE
  5
64
100
AcDbEntity
100
AcDbLine
  8
0
 62
256
370
-1
  6
ByLayer
 10
-89.221999999999994
 20
45.185000000000002
 30
0.0
 11
-88.394000000000005
 21
43.628
 31
0.0
  0
LINE
  5
65
100
AcDbEntity
100
AcDbLine
  8
0
 62
256
370
-1
  6
ByLayer
 10
-88.394000000000005
 20
43.628
 30
0.0
 11
-89.619
 21
42.359999999999999
 31
0.0
  0
LINE
  5
66
100
AcDbEntity
100
AcDbLine
  8
0
 62
256
370
-1
  6
ByLayer
 10
-89.619
 20
42.359999999999999
 30
0.0
 11
-91.203999999999994
 21
43.133000000000003
 31
0.0
  0
LINE
  5
67
100
AcDbEntity
100
AcDbLine
  8
0
 62
256
370
-1
  6
ByLayer
 10
-70.790000000000006
 20
-72.638000000000005
 30
0.0
 11
-70.545000000000002
 21
-70.891999999999996
 31
0.0
  0
LINE
  5
68
100
AcDbEntity
100
AcDbLine
  8
0
 62
256
370
-1
  6
ByLayer
 10
-70.545000000000002
 20
-70.891999999999996
 30
0.0
 11
-68.808000000000007
 21
-70.585999999999999
 31
0.0
  0
LINE
  5
69
100
AcDbEntity
100
AcDbLine
  8
0
 62
256
370
-1
  6
ByLayer
 10
-68.808000000000007
 20
-70.585999999999999
 30
0.0
 11
-67.980000000000004
 21
-72.143000000000001
 31
0.0
  0
LINE
  5
6A
100
AcDbEntity
100
AcDbLine
  8
0
 62
256
370
-1
  6
ByLayer
 10
-67.980000000000004
 20
-72.143000000000001
 30
0.0
 11
-69.204999999999998
 21
-73.411000000000001
 31
0.0
  0
LINE
  5
6B
100
AcDbEntity
100
AcDbLine
  8
0
 62
256
370
-1
  6
ByLayer
 10
-69.204999999999998
 20
-73.411000000000001
 30
0.0
 11
-70.790000000000006
 21
-72.638000000000005
 31
0.0
  0
LINE
  5
6C
100
AcDbEntity
100
AcDbLine
  8
0
 62
256
370
-1
  6
ByLayer
 10
-59.225999999999999
 20
33.124000000000002
 30
0.0
 11
-58.298999999999999
 21
34.728999999999999
 31
0.0
  0
LINE
  5
6D
100
AcDbEntity
100
AcDbLine
  8
0
 62
256
370
-1
  6
ByLayer
 10
-58.298999999999999
 20
34.728999999999999
 30
0.0
 11
-56.604999999999997
 21
35.484000000000002
 31
0.0
  0
LINE
  5
6E
100
AcDbEntity
100
AcDbLine
  8
0
 62
256
370
-1
  6
ByLayer
 10
-56.604999999999997
 20
35.484000000000002
 30
0.0
 11
-54.792000000000002
 21
35.097999999999999
 31
0.0
  0
LINE
  5
6F
100
AcDbEntity
100
AcDbLine
  8
0
 62
256
370
-1
  6
ByLayer
 10
-54.792000000000002
 20
35.097999999999999
 30
0.0
 11
-53.551000000000002
 21
33.719999999999999
 31
0.0
  0
LINE
  5
70
100
AcDbEntity
100
AcDbLine
  8
0
 62
256
370
-1
  6
ByLayer
 10
-53.551000000000002
 20
33.719999999999999
 30
0.0
 11
-53.356999999999999
 21
31.876000000000001
 31
0.0
  0
LINE
  5
71
100
AcDbEntity
100
AcDbLine
  8
0
 62
256
370
-1
  6
ByLayer
 10
-53.356999999999999
 20
31.876000000000001
 30
0.0
 11
-54.283999999999999
 21
30.271000000000001
 31
0.0
  0
LINE
  5
72
100
AcDbEntity
100
AcDbLine
  8
0
 62
256
370
-1
  6
ByLayer
 10
-54.283999999999999
 20
30.271000000000001
 30
0.0
 11
-55.978000000000002
 21
29.515999999999998
 31
0.0
  0
LINE
  5
73
100
AcDbEntity
100
AcDbLine
  8
0
 62
256
370
-1
  6
ByLayer
 10
-55.978000000000002
 20
29.515999999999998
 30
0.0
 11
-57.792000000000002
 21
29.902000000000001
 31
0.0
  0
LINE
  5
74
100
AcDbEntity
100
AcDbLine
  8
0
 62
256
370
-1
  6
ByLayer
 10
-57.792000000000002
 20
29.902000000000001
 30
0.0
 11
-59.031999999999996
 21
31.280000000000001
 31
0.0
  0
LINE
  5
75
100
AcDbEntity
100
AcDbLine
  8
0
 62
256
370
-1
  6
ByLayer
 10
-59.031999999999996
 20
31.280000000000001
 30
0.0
 11
-59.225999999999999
 21
33.124000000000002
 31
0.0
  0
LINE
  5
76
100
AcDbEntity
100
AcDbLine
  8
0
 62
256
370
-1
  6
ByLayer
 10
-42.049999999999997
 20
-84.150000000000006
 30
0.0
 11
-41.174999999999997
 21
-82.634
 31
0.0
  0
LINE
  5
77
100
AcDbEntity
100
AcDbLine
  8
0
 62
256
370
-1
  6
ByLayer
 10
-41.174999999999997
 20
-82.634
 30
0.0
 11
-39.424999999999997
 21
-82.634
 31
0.0
  0
LINE
  5
78
100
AcDbEntity
100
AcDbLine
  8
0
 62
256
370
-1
  6
ByLayer
 10
-39.424999999999997
 20
-82.634
 30
0.0
 11
-38.549999999999997
 21
-84.150000000000006
 31
0.0
  0
LINE
  5
79
100
AcDbEntity
100
AcDbLine
  8
0
 62
256
370
-1
  6
ByLayer
 10
-38.549999999999997
 20
-84.150000000000006
 30
0.0
 11
-39.424999999999997
 21
-85.665999999999997
 31
0.0
  0
LINE
  5
7A
100
AcDbEntity
100
AcDbLine
  8
0
 62
256
370
-1
  6
ByLayer
 10
-39.424999999999997
 20
-85.665999999999997
 30
0.0
 11
-41.174999999999997
 21
-85.665999999999997
 31
0.0
  0
LINE
  5
7B
100
AcDbEntity
100
AcDbLine
  8
0
 62
256
370
-1
  6
ByLayer
 10
-41.174999999999997
 20
-85.665999999999997
 30
0.0
 11
-42.049999999999997
 21
-84.150000000000006
 31
0.0
  0
LINE
  5
7C
100
AcDbEntity
100
AcDbLine
  8
0
 62
256
370
-1
  6
ByLayer
 10
-40.75
 20
-35.850000000000001
 30
0.0
 11
-39.875
 21
-34.334000000000003
 31
0.0
  0
LINE
  5
7D
100
AcDbEntity
100
AcDbLine
  8
0
 62
256
370
-1
  6
ByLayer
 10
-39.875
 20
-34.334000000000003
 30
0.0
 11
-38.125
 21
-34.334000000000003
 31
0.0
  0
LINE
  5
7E
100
AcDbEntity
100
AcDbLine
  8
0
 62
256
370
-1
  6
ByLayer
 10
-38.125
 20
-34.334000000000003
 30
0.0
 11
-37.25
 21
-35.850000000000001
 31
0.0
  0
LINE
  5
7F
100
AcDbEntity
100
AcDbLine
  8
0
 62
256
370
-1
  6
ByLayer
 10
-37.25
 20
-35.850000000000001
 30
0.0
 11
-38.125
 21
-37.366
 31
0.0
  0
LINE
  5
80
100
AcDbEntity
100
AcDbLine
  8
0
 62
256
370
-1
  6
ByLayer
 10
-38.125
 20
-37.366
 30
0.0
 11
-39.875
 21
-37.366
 31
0.0
  0
LINE
  5
81
100
AcDbEntity
100
AcDbLine
  8
0
 62
256
370
-1
  6
ByLayer
 10
-39.875
 20
-37.366
 30
0.0
 11
-40.75
 21
-35.850000000000001
 31
0.0
  0
LINE
  5
82
100
AcDbEntity
100
AcDbLine
  8
0
 62
256
370
-1
  6
ByLayer
 10
-40.25
 20
-18.5
 30
0.0
 11
-39.375
 21
-16.984000000000002
 31
0.0
  0
LINE
  5
83
100
AcDbEntity
100
AcDbLine
  8
0
 62
256
370
-1
  6
ByLayer
 10
-39.375
 20
-16.984000000000002
 30
0.0
 11
-37.625
 21
-16.984000000000002
 31
0.0
  0
LINE
  5
84
100
AcDbEntity
100
AcDbLine
  8
0
 62
256
370
-1
  6
ByLayer
 10
-37.625
 20
-16.984000000000002
 30
0.0
 11
-36.75
 21
-18.5
 31
0.0
  0
LINE
  5
85
100
AcDbEntity
100
AcDbLine
  8
0
 62
256
370
-1
  6
ByLayer
 10
-36.75
 20
-18.5
 30
0.0
 11
-37.625
 21
-20.015999999999998
 31
0.0
  0
LINE
  5
86
100
AcDbEntity
100
AcDbLine
  8
0
 62
256
370
-1
  6
ByLayer
 10
-37.625
 20
-20.015999999999998
 30
0.0
 11
-39.375
 21
-20.015999999999998
 31
0.0
  0
LINE
  5
87
100
AcDbEntity
100
AcDbLine
  8
0
 62
256
370
-1
  6
ByLayer
 10
-39.375
 20
-20.015999999999998
 30
0.0
 11
-40.25
 21
-18.5
 31
0.0
  0
LINE
  5
88
100
AcDbEntity
100
AcDbLine
  8
0
 62
256
370
-1
  6
ByLayer
 10
-40.25
 20
18.5
 30
0.0
 11
-39.375
 21
20.015999999999998
 31
0.0
  0
LINE
  5
89
100
AcDbEntity
100
AcDbLine
  8
0
 62
256
370
-1
  6
ByLayer
 10
-39.375
 20
20.015999999999998
 30
0.0
 11
-37.625
 21
20.015999999999998
 31
0.0
  0
LINE
  5
8A
100
AcDbEntity
100
AcDbLine
  8
0
 62
256
370
-1
  6
ByLayer
 10
-37.625
 20
20.015999999999998
 30
0.0
 11
-36.75
 21
18.5
 31
0.0
  0
LINE
  5
8B
100
AcDbEntity
100
AcDbLine
  8
0
 62
256
370
-1
  6
ByLayer
 10
-36.75
 20
18.5
 30
0.0
 11
-37.625
 21
16.984000000000002
 31
0.0
  0
LINE
  5
8C
100
AcDbEntity
100
AcDbLine
  8
0
 62
256
370
-1
  6
ByLayer
 10
-37.625
 20
16.984000000000002
 30
0.0
 11
-39.375
 21
16.984000000000002
 31
0.0
  0
LINE
  5
8D
100
AcDbEntity
100
AcDbLine
  8
0
 62
256
370
-1
  6
ByLayer
 10
-39.375
 20
16.984000000000002
 30
0.0
 11
-40.25
 21
18.5
 31
0.0
  0
LINE
  5
8E
100
AcDbEntity
100
AcDbLine
  8
0
 62
256
370
-1
  6
ByLayer
 10
-29.75
 20
36.0
 30
0.0
 11
-28.875
 21
37.515999999999998
 31
0.0
  0
LINE
  5
8F
100
AcDbEntity
100
AcDbLine
  8
0
 62
256
370
-1
  6
ByLayer
 10
-28.875
 20
37.515999999999998
 30
0.0
 11
-27.125
 21
37.515999999999998
 31
0.0
  0
LINE
  5
90
100
AcDbEntity
100
AcDbLine
  8
0
 62
256
370
-1
  6
ByLayer
 10
-27.125
 20
37.515999999999998
 30
0.0
 11
-26.25
 21
36.0
 31
0.0
  0
LINE
  5
91
100
AcDbEntity
100
AcDbLine
  8
0
 62
256
370
-1
  6
ByLayer
 10
-26.25
 20
36.0
 30
0.0
 11
-27.125
 21
34.484000000000002
 31
0.0
  0
LINE
  5
92
100
AcDbEntity
100
AcDbLine
  8
0
 62
256
370
-1
  6
ByLayer
 10
-27.125
 20
34.484000000000002
 30
0.0
 11
-28.875
 21
34.484000000000002
 31
0.0
  0
LINE
  5
93
100
AcDbEntity
100
AcDbLine
  8
0
 62
256
370
-1
  6
ByLayer
 10
-28.875
 20
34.484000000000002
 30
0.0
 11
-29.75
 21
36.0
 31
0.0
  0
LINE
  5
94
100
AcDbEntity
100
AcDbLine
  8
0
 62
256
370
-1
  6
ByLayer
 10
-29.75
 20
84.0
 30
0.0
 11
-28.875
 21
85.516000000000005
 31
0.0
  0
LINE
  5
95
100
AcDbEntity
100
AcDbLine
  8
0
 62
256
370
-1
  6
ByLayer
 10
-28.875
 20
85.516000000000005
 30
0.0
 11
-27.125
 21
85.516000000000005
 31
0.0
  0
LINE
  5
96
100
AcDbEntity
100
AcDbLine
  8
0
 62
256
370
-1
  6
ByLayer
 10
-27.125
 20
85.516000000000005
 30
0.0
 11
-26.25
 21
84.0
 31
0.0
  0
LINE
  5
97
100
AcDbEntity
100
AcDbLine
  8
0
 62
256
370
-1
  6
ByLayer
 10
-26.25
 20
84.0
 30
0.0
 11
-27.125
 21
82.483999999999995
 31
0.0
  0
LINE
  5
98
100
AcDbEntity
100
AcDbLine
  8
0
 62
256
370
-1
  6
ByLayer
 10
-27.125
 20
82.483999999999995
 30
0.0
 11
-28.875
 21
82.483999999999995
 31
0.0
  0
LINE
  5
99
100
AcDbEntity
100
AcDbLine
  8
0
 62
256
370
-1
  6
ByLayer
 10
-28.875
 20
82.483999999999995
 30
0.0
 11
-29.75
 21
84.0
 31
0.0
  0
LINE
  5
9A
100
AcDbEntity
100
AcDbLine
  8
0
 62
256
370
-1
  6
ByLayer
 10
-3.25
 20
-18.5
 30
0.0
 11
-2.375
 21
-16.984000000000002
 31
0.0
  0
LINE
  5
9B
100
AcDbEntity
100
AcDbLine
  8
0
 62
256
370
-1
  6
ByLayer
 10
-2.375
 20
-16.984000000000002
 30
0.0
 11
-0.625
 21
-16.984000000000002
 31
0.0
  0
LINE
  5
9C
100
AcDbEntity
100
AcDbLine
  8
0
 62
256
370
-1
  6
ByLayer
 10
-0.625
 20
-16.984000000000002
 30
0.0
 11
0.25
 21
-18.5
 31
0.0
  0
LINE
  5
9D
100
AcDbEntity
100
AcDbLine
  8
0
 62
256
370
-1
  6
ByLayer
 10
0.25
 20
-18.5
 30
0.0
 11
-0.625
 21
-20.015999999999998
 31
0.0
  0
LINE
  5
9E
100
AcDbEntity
100
AcDbLine
  8
0
 62
256
370
-1
  6
ByLayer
 10
-0.625
 20
-20.015999999999998
 30
0.0
 11
-2.375
 21
-20.015999999999998
 31
0.0
  0
LINE
  5
9F
100
AcDbEntity
100
AcDbLine
  8
0
 62
256
370
-1
  6
ByLayer
 10
-2.375
 20
-20.015999999999998
 30
0.0
 11
-3.25
 21
-18.5
 31
0.0
  0
LINE
  5
A0
100
AcDbEntity
100
AcDbLine
  8
0
 62
256
370
-1
  6
ByLayer
 10
-3.25
 20
18.5
 30
0.0
 11
-2.375
 21
20.015999999999998
 31
0.0
  0
LINE
  5
A1
100
AcDbEntity
100
AcDbLine
  8
0
 62
256
370
-1
  6
ByLayer
 10
-2.375
 20
20.015999999999998
 30
0.0
 11
-0.625
 21
20.015999999999998
 31
0.0
  0
LINE
  5
A2
100
AcDbEntity
100
AcDbLine
  8
0
 62
256
370
-1
  6
ByLayer
 10
-0.625
 20
20.015999999999998
 30
0.0
 11
0.25
 21
18.5
 31
0.0
  0
LINE
  5
A3
100
AcDbEntity
100
AcDbLine
  8
0
 62
256
370
-1
  6
ByLayer
 10
0.25
 20
18.5
 30
0.0
 11
-0.625
 21
16.984000000000002
 31
0.0
  0
LINE
  5
A4
100
AcDbEntity
100
AcDbLine
  8
0
 62
256
370
-1
  6
ByLayer
 10
-0.625
 20
16.984000000000002
 30
0.0
 11
-2.375
 21
16.984000000000002
 31
0.0
  0
LINE
  5
A5
100
AcDbEntity
100
AcDbLine
  8
0
 62
256
370
-1
  6
ByLayer
 10
-2.375
 20
16.984000000000002
 30
0.0
 11
-3.25
 21
18.5
 31
0.0
  0
LINE
  5
A6
100
AcDbEntity
100
AcDbLine
  8
0
 62
256
370
-1
  6
ByLayer
 10
-3.0
 20
-95.0
 30
0.0
 11
-2.427
 21
-93.236999999999995
 31
0.0
  0
LINE
  5
A7
100
AcDbEntity
100
AcDbLine
  8
0
 62
256
370
-1
  6
ByLayer
 10
-2.427
 20
-93.236999999999995
 30
0.0
 11
-0.9270000000000001
 21
-92.147000000000006
 31
0.0
  0
LINE
  5
A8
100
AcDbEntity
100
AcDbLine
  8
0
 62
256
370
-1
  6
ByLayer
 10
-0.9270000000000001
 20
-92.147000000000006
 30
0.0
 11
0.9270000000000001
 21
-92.147000000000006
 31
0.0
  0
LINE
  5
A9
100
AcDbEntity
100
AcDbLine
  8
0
 62
256
370
-1
  6
ByLayer
 10
0.9270000000000001
 20
-92.147000000000006
 30
0.0
 11
2.427
 21
-93.236999999999995
 31
0.0
  0
LINE
  5
AA
100
AcDbEntity
100
AcDbLine
  8
0
 62
256
370
-1
  6
ByLayer
 10
2.427
 20
-93.236999999999995
 30
0.0
 11
3.0
 21
-95.0
 31
0.0
  0
LINE
  5
AB
100
AcDbEntity
100
AcDbLine
  8
0
 62
256
370
-1
  6
ByLayer
 10
3.0
 20
-95.0
 30
0.0
 11
2.427
 21
-96.763000000000005
 31
0.0
  0
LINE
  5
AC
100
AcDbEntity
100
AcDbLine
  8
0
 62
256
370
-1
  6
ByLayer
 10
2.427
 20
-96.763000000000005
 30
0.0
 11
0.9270000000000001
 21
-97.852999999999994
 31
0.0
  0
LINE
  5
AD
100
AcDbEntity
100
AcDbLine
  8
0
 62
256
370
-1
  6
ByLayer
 10
0.9270000000000001
 20
-97.852999999999994
 30
0.0
 11
-0.9270000000000001
 21
-97.852999999999994
 31
0.0
  0
LINE
  5
AE
100
AcDbEntity
100
AcDbLine
  8
0
 62
256
370
-1
  6
ByLayer
 10
-0.9270000000000001
 20
-97.852999999999994
 30
0.0
 11
-2.427
 21
-96.763000000000005
 31
0.0
  0
LINE
  5
AF
100
AcDbEntity
100
AcDbLine
  8
0
 62
256
370
-1
  6
ByLayer
 10
-2.427
 20
-96.763000000000005
 30
0.0
 11
-3.0
 21
-95.0
 31
0.0
  0
LINE
  5
B0
100
AcDbEntity
100
AcDbLine
  8
0
 62
256
370
-1
  6
ByLayer
 10
10.050000000000001
 20
-79.049999999999997
 30
0.0
 11
10.925000000000001
 21
-77.534000000000006
 31
0.0
  0
LINE
  5
B1
100
AcDbEntity
100
AcDbLine
  8
0
 62
256
370
-1
  6
ByLayer
 10
10.925000000000001
 20
-77.534000000000006
 30
0.0
 11
12.675000000000001
 21
-77.534000000000006
 31
0.0
  0
LINE
  5
B2
100
AcDbEntity
100
AcDbLine
  8
0
 62
256
370
-1
  6
ByLayer
 10
12.675000000000001
 20
-77.534000000000006
 30
0.0
 11
13.550000000000001
 21
-79.049999999999997
 31
0.0
  0
LINE
  5
B3
100
AcDbEntity
100
AcDbLine
  8
0
 62
256
370
-1
  6
ByLayer
 10
13.550000000000001
 20
-79.049999999999997
 30
0.0
 11
12.675000000000001
 21
-80.566000000000003
 31
0.0
  0
LINE
  5
B4
100
AcDbEntity
100
AcDbLine
  8
0
 62
256
370
-1
  6
ByLayer
 10
12.675000000000001
 20
-80.566000000000003
 30
0.0
 11
10.925000000000001
 21
-80.566000000000003
 31
0.0
  0
LINE
  5
B5
100
AcDbEntity
100
AcDbLine
  8
0
 62
256
370
-1
  6
ByLayer
 10
10.925000000000001
 20
-80.566000000000003
 30
0.0
 11
10.050000000000001
 21
-79.049999999999997
 31
0.0
  0
LINE
  5
B6
100
AcDbEntity
100
AcDbLine
  8
0
 62
256
370
-1
  6
ByLayer
 10
10.050000000000001
 20
-51.049999999999997
 30
0.0
 11
10.925000000000001
 21
-49.533999999999999
 31
0.0
  0
LINE
  5
B7
100
AcDbEntity
100
AcDbLine
  8
0
 62
256
370
-1
  6
ByLayer
 10
10.925000000000001
 20
-49.533999999999999
 30
0.0
 11
12.675000000000001
 21
-49.533999999999999
 31
0.0
  0
LINE
  5
B8
100
AcDbEntity
100
AcDbLine
  8
0
 62
256
370
-1
  6
ByLayer
 10
12.675000000000001
 20
-49.533999999999999
 30
0.0
 11
13.550000000000001
 21
-51.049999999999997
 31
0.0
  0
LINE
  5
B9
100
AcDbEntity
100
AcDbLine
  8
0
 62
256
370
-1
  6
ByLayer
 10
13.550000000000001
 20
-51.049999999999997
 30
0.0
 11
12.675000000000001
 21
-52.566000000000003
 31
0.0
  0
LINE
  5
BA
100
AcDbEntity
100
AcDbLine
  8
0
 62
256
370
-1
  6
ByLayer
 10
12.675000000000001
 20
-52.566000000000003
 30
0.0
 11
10.925000000000001
 21
-52.566000000000003
 31
0.0
  0
LINE
  5
BB
100
AcDbEntity
100
AcDbLine
  8
0
 62
256
370
-1
  6
ByLayer
 10
10.925000000000001
 20
-52.566000000000003
 30
0.0
 11
10.050000000000001
 21
-51.049999999999997
 31
0.0
  0
LINE
  5
BC
100
AcDbEntity
100
AcDbLine
  8
0
 62
256
370
-1
  6
ByLayer
 10
12.082000000000001
 20
-0.988
 30
0.0
 11
12.082000000000001
 21
0.988
 31
0.0
  0
LINE
  5
BD
100
AcDbEntity
100
AcDbLine
  8
0
 62
256
370
-1
  6
ByLayer
 10
12.082000000000001
 20
0.988
 30
0.0
 11
12.723000000000001
 21
2.8559999999999999
 31
0.0
  0
LINE
  5
BE
100
AcDbEntity
100
AcDbLine
  8
0
 62
256
370
-1
  6
ByLayer
 10
12.723000000000001
 20
2.8559999999999999
 30
0.0
 11
13.936
 21
4.4139999999999997
 31
0.0
  0
LINE
  5
BF
100
AcDbEntity
100
AcDbLine
  8
0
 62
256
370
-1
  6
ByLayer
 10
13.936
 20
4.4139999999999997
 30
0.0
 11
15.59
 21
5.4950000000000001
 31
0.0
  0
LINE
  5
C0
100
AcDbEntity
100
AcDbLine
  8
0
 62
256
370
-1
  6
ByLayer
 10
15.59
 20
5.4950000000000001
 30
0.0
 11
17.504999999999999
 21
5.9800000000000004
 31
0.0
  0
LINE
  5
C1
100
AcDbEntity
100
AcDbLine
  8
0
 62
256
370
-1
  6
ByLayer
 10
17.504999999999999
 20
5.9800000000000004
 30
0.0
 11
19.472999999999999
 21
5.8159999999999998
 31
0.0
  0
LINE
  5
C2
100
AcDbEntity
100
AcDbLine
  8
0
 62
256
370
-1
  6
ByLayer
 10
19.472999999999999
 20
5.8159999999999998
 30
0.0
 11
21.282
 21
5.0229999999999997
 31
0.0
  0
LINE
  5
C3
100
AcDbEntity
100
AcDbLine
  8
0
 62
256
370
-1
  6
ByLayer
 10
21.282
 20
5.0229999999999997
 30
0.0
 11
22.734999999999999
 21
3.6850000000000001
 31
0.0
  0
LINE
  5
C4
100
AcDbEntity
100
AcDbLine
  8
0
 62
256
370
-1
  6
ByLayer
 10
22.734999999999999
 20
3.6850000000000001
 30
0.0
 11
23.675000000000001
 21
1.948
 31
0.0
  0
LINE
  5
C5
100
AcDbEntity
100
AcDbLine
  8
0
 62
256
370
-1
  6
ByLayer
 10
23.675000000000001
 20
1.948
 30
0.0
 11
24.0
 21
0.0
 31
0.0
  0
LINE
  5
C6
100
AcDbEntity
100
AcDbLine
  8
0
 62
256
370
-1
  6
ByLayer
 10
24.0
 20
0.0
 30
0.0
 11
23.675000000000001
 21
-1.948
 31
0.0
  0
LINE
  5
C7
100
AcDbEntity
100
AcDbLine
  8
0
 62
256
370
-1
  6
ByLayer
 10
23.675000000000001
 20
-1.948
 30
0.0
 11
22.734999999999999
 21
-3.6850000000000001
 31
0.0
  0
LINE
  5
C8
100
AcDbEntity
100
AcDbLine
  8
0
 62
256
370
-1
  6
ByLayer
 10
22.734999999999999
 20
-3.6850000000000001
 30
0.0
 11
21.282
 21
-5.0229999999999997
 31
0.0
  0
LINE
  5
C9
100
AcDbEntity
100
AcDbLine
  8
0
 62
256
370
-1
  6
ByLayer
 10
21.282
 20
-5.0229999999999997
 30
0.0
 11
19.472999999999999
 21
-5.8159999999999998
 31
0.0
  0
LINE
  5
CA
100
AcDbEntity
100
AcDbLine
  8
0
 62
256
370
-1
  6
ByLayer
 10
19.472999999999999
 20
-5.8159999999999998
 30
0.0
 11
17.504999999999999
 21
-5.9800000000000004
 31
0.0
  0
LINE
  5
CB
100
AcDbEntity
100
AcDbLine
  8
0
 62
256
370
-1
  6
ByLayer
 10
17.504999999999999
 20
-5.9800000000000004
 30
0.0
 11
15.59
 21
-5.4950000000000001
 31
0.0
  0
LINE
  5
CC
100
AcDbEntity
100
AcDbLine
  8
0
 62
256
370
-1
  6
ByLayer
 10
15.59
 20
-5.4950000000000001
 30
0.0
 11
13.936
 21
-4.4139999999999997
 31
0.0
  0
LINE
  5
CD
100
AcDbEntity
100
AcDbLine
  8
0
 62
256
370
-1
  6
ByLayer
 10
13.936
 20
-4.4139999999999997
 30
0.0
 11
12.723000000000001
 21
-2.8559999999999999
 31
0.0
  0
LINE
  5
CE
100
AcDbEntity
100
AcDbLine
  8
0
 62
256
370
-1
  6
ByLayer
 10
12.723000000000001
 20
-2.8559999999999999
 30
0.0
 11
12.082000000000001
 21
-0.988
 31
0.0
  0
LINE
  5
CF
100
AcDbEntity
100
AcDbLine
  8
0
 62
256
370
-1
  6
ByLayer
 10
12.593
 20
98.322999999999993
 30
0.0
 11
12.837999999999999
 21
100.069
 31
0.0
  0
LINE
  5
D0
100
AcDbEntity
100
AcDbLine
  8
0
 62
256
370
-1
  6
ByLayer
 10
12.837999999999999
 20
100.069
 30
0.0
 11
14.574999999999999
 21
100.375
 31
0.0
  0
LINE
  5
D1
100
AcDbEntity
100
AcDbLine
  8
0
 62
256
370
-1
  6
ByLayer
 10
14.574999999999999
 20
100.375
 30
0.0
 11
15.403
 21
98.817999999999998
 31
0.0
  0
LINE
  5
D2
100
AcDbEntity
100
AcDbLine
  8
0
 62
256
370
-1
  6
ByLayer
 10
15.403
 20
98.817999999999998
 30
0.0
 11
14.178000000000001
 21
97.549999999999997
 31
0.0
  0
LINE
  5
D3
100
AcDbEntity
100
AcDbLine
  8
0
 62
256
370
-1
  6
ByLayer
 10
14.178000000000001
 20
97.549999999999997
 30
0.0
 11
12.593
 21
98.322999999999993
 31
0.0
  0
LINE
  5
D4
100
AcDbEntity
100
AcDbLine
  8
0
 62
256
370
-1
  6
ByLayer
 10
26.75
 20
-66.5
 30
0.0
 11
27.625
 21
-64.983999999999995
 31
0.0
  0
LINE
  5
D5
100
AcDbEntity
100
AcDbLine
  8
0
 62
256
370
-1
  6
ByLayer
 10
27.625
 20
-64.983999999999995
 30
0.0
 11
29.375
 21
-64.983999999999995
 31
0.0
  0
LINE
  5
D6
100
AcDbEntity
100
AcDbLine
  8
0
 62
256
370
-1
  6
ByLayer
 10
29.375
 20
-64.983999999999995
 30
0.0
 11
30.25
 21
-66.5
 31
0.0
  0
LINE
  5
D7
100
AcDbEntity
100
AcDbLine
  8
0
 62
256
370
-1
  6
ByLayer
 10
30.25
 20
-66.5
 30
0.0
 11
29.375
 21
-68.016000000000005
 31
0.0
  0
LINE
  5
D8
100
AcDbEntity
100
AcDbLine
  8
0
 62
256
370
-1
  6
ByLayer
 10
29.375
 20
-68.016000000000005
 30
0.0
 11
27.625
 21
-68.016000000000005
 31
0.0
  0
LINE
  5
D9
100
AcDbEntity
100
AcDbLine
  8
0
 62
256
370
-1
  6
ByLayer
 10
27.625
 20
-68.016000000000005
 30
0.0
 11
26.75
 21
-66.5
 31
0.0
  0
LINE
  5
DA
100
AcDbEntity
100
AcDbLine
  8
0
 62
256
370
-1
  6
ByLayer
 10
26.75
 20
-29.5
 30
0.0
 11
27.625
 21
-27.984000000000002
 31
0.0
  0
LINE
  5
DB
100
AcDbEntity
100
AcDbLine
  8
0
 62
256
370
-1
  6
ByLayer
 10
27.625
 20
-27.984000000000002
 30
0.0
 11
29.375
 21
-27.984000000000002
 31
0.0
  0
LINE
  5
DC
100
AcDbEntity
100
AcDbLine
  8
0
 62
256
370
-1
  6
ByLayer
 10
29.375
 20
-27.984000000000002
 30
0.0
 11
30.25
 21
-29.5
 31
0.0
  0
LINE
  5
DD
100
AcDbEntity
100
AcDbLine
  8
0
 62
256
370
-1
  6
ByLayer
 10
30.25
 20
-29.5
 30
0.0
 11
29.375
 21
-31.015999999999998
 31
0.0
  0
LINE
  5
DE
100
AcDbEntity
100
AcDbLine
  8
0
 62
256
370
-1
  6
ByLayer
 10
29.375
 20
-31.015999999999998
 30
0.0
 11
27.625
 21
-31.015999999999998
 31
0.0
  0
LINE
  5
DF
100
AcDbEntity
100
AcDbLine
  8
0
 62
256
370
-1
  6
ByLayer
 10
27.625
 20
-31.015999999999998
 30
0.0
 11
26.75
 21
-29.5
 31
0.0
  0
LINE
  5
E0
100
AcDbEntity
100
AcDbLine
  8
0
 62
256
370
-1
  6
ByLayer
 10
34.75
 20
-11.5
 30
0.0
 11
35.625
 21
-9.984
 31
0.0
  0
LINE
  5
E1
100
AcDbEntity
100
AcDbLine
  8
0
 62
256
370
-1
  6
ByLayer
 10
35.625
 20
-9.984
 30
0.0
 11
37.375
 21
-9.984
 31
0.0
  0
LINE
  5
E2
100
AcDbEntity
100
AcDbLine
  8
0
 62
256
370
-1
  6
ByLayer
 10
37.375
 20
-9.984
 30
0.0
 11
38.25
 21
-11.5
 31
0.0
  0
LINE
  5
E3
100
AcDbEntity
100
AcDbLine
  8
0
 62
256
370
-1
  6
ByLayer
 10
38.25
 20
-11.5
 30
0.0
 11
37.375
 21
-13.016
 31
0.0
  0
LINE
  5
E4
100
AcDbEntity
100
AcDbLine
  8
0
 62
256
370
-1
  6
ByLayer
 10
37.375
 20
-13.016
 30
0.0
 11
35.625
 21
-13.016
 31
0.0
  0
LINE
  5
E5
100
AcDbEntity
100
AcDbLine
  8
0
 62
256
370
-1
  6
ByLayer
 10
35.625
 20
-13.016
 30
0.0
 11
34.75
 21
-11.5
 31
0.0
  0
LINE
  5
E6
100
AcDbEntity
100
AcDbLine
  8
0
 62
256
370
-1
  6
ByLayer
 10
34.75
 20
25.5
 30
0.0
 11
35.625
 21
27.015999999999998
 31
0.0
  0
LINE
  5
E7
100
AcDbEntity
100
AcDbLine
  8
0
 62
256
370
-1
  6
ByLayer
 10
35.625
 20
27.015999999999998
 30
0.0
 11
37.375
 21
27.015999999999998
 31
0.0
  0
LINE
  5
E8
100
AcDbEntity
100
AcDbLine
  8
0
 62
256
370
-1
  6
ByLayer
 10
37.375
 20
27.015999999999998
 30
0.0
 11
38.25
 21
25.5
 31
0.0
  0
LINE
  5
E9
100
AcDbEntity
100
AcDbLine
  8
0
 62
256
370
-1
  6
ByLayer
 10
38.25
 20
25.5
 30
0.0
 11
37.375
 21
23.984000000000002
 31
0.0
  0
LINE
  5
EA
100
AcDbEntity
100
AcDbLine
  8
0
 62
256
370
-1
  6
ByLayer
 10
37.375
 20
23.984000000000002
 30
0.0
 11
35.625
 21
23.984000000000002
 31
0.0
  0
LINE
  5
EB
100
AcDbEntity
100
AcDbLine
  8
0
 62
256
370
-1
  6
ByLayer
 10
35.625
 20
23.984000000000002
 30
0.0
 11
34.75
 21
25.5
 31
0.0
  0
LINE
  5
EC
100
AcDbEntity
100
AcDbLine
  8
0
 62
256
370
-1
  6
ByLayer
 10
36.25
 20
39.0
 30
0.0
 11
37.125
 21
40.515999999999998
 31
0.0
  0
LINE
  5
ED
100
AcDbEntity
100
AcDbLine
  8
0
 62
256
370
-1
  6
ByLayer
 10
37.125
 20
40.515999999999998
 30
0.0
 11
38.875
 21
40.515999999999998
 31
0.0
  0
LINE
  5
EE
100
AcDbEntity
100
AcDbLine
  8
0
 62
256
370
-1
  6
ByLayer
 10
38.875
 20
40.515999999999998
 30
0.0
 11
39.75
 21
39.0
 31
0.0
  0
LINE
  5
EF
100
AcDbEntity
100
AcDbLine
  8
0
 62
256
370
-1
  6
ByLayer
 10
39.75
 20
39.0
 30
0.0
 11
38.875
 21
37.484000000000002
 31
0.0
  0
LINE
  5
F0
100
AcDbEntity
100
AcDbLine
  8
0
 62
256
370
-1
  6
ByLayer
 10
38.875
 20
37.484000000000002
 30
0.0
 11
37.125
 21
37.484000000000002
 31
0.0
  0
LINE
  5
F1
100
AcDbEntity
100
AcDbLine
  8
0
 62
256
370
-1
  6
ByLayer
 10
37.125
 20
37.484000000000002
 30
0.0
 11
36.25
 21
39.0
 31
0.0
  0
LINE
  5
F2
100
AcDbEntity
100
AcDbLine
  8
0
 62
256
370
-1
  6
ByLayer
 10
36.25
 20
81.0
 30
0.0
 11
37.125
 21
82.516000000000005
 31
0.0
  0
LINE
  5
F3
100
AcDbEntity
100
AcDbLine
  8
0
 62
256
370
-1
  6
ByLayer
 10
37.125
 20
82.516000000000005
 30
0.0
 11
38.875
 21
82.516000000000005
 31
0.0
  0
LINE
  5
F4
100
AcDbEntity
100
AcDbLine
  8
0
 62
256
370
-1
  6
ByLayer
 10
38.875
 20
82.516000000000005
 30
0.0
 11
39.75
 21
81.0
 31
0.0
  0
LINE
  5
F5
100
AcDbEntity
100
AcDbLine
  8
0
 62
256
370
-1
  6
ByLayer
 10
39.75
 20
81.0
 30
0.0
 11
38.875
 21
79.483999999999995
 31
0.0
  0
LINE
  5
F6
100
AcDbEntity
100
AcDbLine
  8
0
 62
256
370
-1
  6
ByLayer
 10
38.875
 20
79.483999999999995
 30
0.0
 11
37.125
 21
79.483999999999995
 31
0.0
  0
LINE
  5
F7
100
AcDbEntity
100
AcDbLine
  8
0
 62
256
370
-1
  6
ByLayer
 10
37.125
 20
79.483999999999995
 30
0.0
 11
36.25
 21
81.0
 31
0.0
  0
LINE
  5
F8
100
AcDbEntity
100
AcDbLine
  8
0
 62
256
370
-1
  6
ByLayer
 10
45.622999999999998
 20
-88.998999999999995
 30
0.0
 11
45.868000000000002
 21
-87.253
 31
0.0
  0
LINE
  5
F9
100
AcDbEntity
100
AcDbLine
  8
0
 62
256
370
-1
  6
ByLayer
 10
45.868000000000002
 20
-87.253
 30
0.0
 11
47.604999999999997
 21
-86.947000000000003
 31
0.0
  0
LINE
  5
FA
100
AcDbEntity
100
AcDbLine
  8
0
 62
256
370
-1
  6
ByLayer
 10
47.604999999999997
 20
-86.947000000000003
 30
0.0
 11
48.433
 21
-88.504000000000005
 31
0.0
  0
LINE
  5
FB
100
AcDbEntity
100
AcDbLine
  8
0
 62
256
370
-1
  6
ByLayer
 10
48.433
 20
-88.504000000000005
 30
0.0
 11
47.207999999999998
 21
-89.772000000000006
 31
0.0
  0
LINE
  5
FC
100
AcDbEntity
100
AcDbLine
  8
0
 62
256
370
-1
  6
ByLayer
 10
47.207999999999998
 20
-89.772000000000006
 30
0.0
 11
45.622999999999998
 21
-88.998999999999995
 31
0.0
  0
LINE
  5
FD
100
AcDbEntity
100
AcDbLine
  8
0
 62
256
370
-1
  6
ByLayer
 10
63.75
 20
-66.5
 30
0.0
 11
64.625
 21
-64.983999999999995
 31
0.0
  0
LINE
  5
FE
100
AcDbEntity
100
AcDbLine
  8
0
 62
256
370
-1
  6
ByLayer
 10
64.625
 20
-64.983999999999995
 30
0.0
 11
66.375
 21
-64.983999999999995
 31
0.0
  0
LINE
  5
FF
100
AcDbEntity
100
AcDbLine
  8
0
 62
256
370
-1
  6
ByLayer
 10
66.375
 20
-64.983999999999995
 30
0.0
 11
67.25
 21
-66.5
 31
0.0
  0
LINE
  5
100
100
AcDbEntity
100
AcDbLine
  8
0
 62
256
370
-1
  6
ByLayer
 10
67.25
 20
-66.5
 30
0.0
 11
66.375
 21
-68.016000000000005
 31
0.0
  0
LINE
  5
101
100
AcDbEntity
100
AcDbLine
  8
0
 62
256
370
-1
  6
ByLayer
 10
66.375
 20
-68.016000000000005
 30
0.0
 11
64.625
 21
-68.016000000000005
 31
0.0
  0
LINE
  5
102
100
AcDbEntity
100
AcDbLine
  8
0
 62
256
370
-1
  6
ByLayer
 10
64.625
 20
-68.016000000000005
 30
0.0
 11
63.75
 21
-66.5
 31
0.0
  0
LINE
  5
103
100
AcDbEntity
100
AcDbLine
  8
0
 62
256
370
-1
  6
ByLayer
 10
63.75
 20
-29.5
 30
0.0
 11
64.625
 21
-27.984000000000002
 31
0.0
  0
LINE
  5
104
100
AcDbEntity
100
AcDbLine
  8
0
 62
256
370
-1
  6
ByLayer
 10
64.625
 20
-27.984000000000002
 30
0.0
 11
66.375
 21
-27.984000000000002
 31
0.0
  0
LINE
  5
105
100
AcDbEntity
100
AcDbLine
  8
0
 62
256
370
-1
  6
ByLayer
 10
66.375
 20
-27.984000000000002
 30
0.0
 11
67.25
 21
-29.5
 31
0.0
  0
LINE
  5
106
100
AcDbEntity
100
AcDbLine
  8
0
 62
256
370
-1
  6
ByLayer
 10
67.25
 20
-29.5
 30
0.0
 11
66.375
 21
-31.015999999999998
 31
0.0
  0
LINE
  5
107
100
AcDbEntity
100
AcDbLine
  8
0
 62
256
370
-1
  6
ByLayer
 10
66.375
 20
-31.015999999999998
 30
0.0
 11
64.625
 21
-31.015999999999998
 31
0.0
  0
LINE
  5
108
100
AcDbEntity
100
AcDbLine
  8
0
 62
256
370
-1
  6
ByLayer
 10
64.625
 20
-31.015999999999998
 30
0.0
 11
63.75
 21
-29.5
 31
0.0
  0
LINE
  5
109
100
AcDbEntity
100
AcDbLine
  8
0
 62
256
370
-1
  6
ByLayer
 10
71.75
 20
-11.5
 30
0.0
 11
72.625
 21
-9.984
 31
0.0
  0
LINE
  5
10A
100
AcDbEntity
100
AcDbLine
  8
0
 62
256
370
-1
  6
ByLayer
 10
72.625
 20
-9.984
 30
0.0
 11
74.375
 21
-9.984
 31
0.0
  0
LINE
  5
10B
100
AcDbEntity
100
AcDbLine
  8
0
 62
256
370
-1
  6
ByLayer
 10
74.375
 20
-9.984
 30
0.0
 11
75.25
 21
-11.5
 31
0.0
  0
LINE
  5
10C
100
AcDbEntity
100
AcDbLine
  8
0
 62
256
370
-1
  6
ByLayer
 10
75.25
 20
-11.5
 30
0.0
 11
74.375
 21
-13.016
 31
0.0
  0
LINE
  5
10D
100
AcDbEntity
100
AcDbLine
  8
0
 62
256
370
-1
  6
ByLayer
 10
74.375
 20
-13.016
 30
0.0
 11
72.625
 21
-13.016
 31
0.0
  0
LINE
  5
10E
100
AcDbEntity
100
AcDbLine
  8
0
 62
256
370
-1
  6
ByLayer
 10
72.625
 20
-13.016
 30
0.0
 11
71.75
 21
-11.5
 31
0.0
  0
LINE
  5
10F
100
AcDbEntity
100
AcDbLine
  8
0
 62
256
370
-1
  6
ByLayer
 10
71.75
 20
25.5
 30
0.0
 11
72.625
 21
27.015999999999998
 31
0.0
  0
LINE
  5
110
100
AcDbEntity
100
AcDbLine
  8
0
 62
256
370
-1
  6
ByLayer
 10
72.625
 20
27.015999999999998
 30
0.0
 11
74.375
 21
27.015999999999998
 31
0.0
  0
LINE
  5
111
100
AcDbEntity
100
AcDbLine
  8
0
 62
256
370
-1
  6
ByLayer
 10
74.375
 20
27.015999999999998
 30
0.0
 11
75.25
 21
25.5
 31
0.0
  0
LINE
  5
112
100
AcDbEntity
100
AcDbLine
  8
0
 62
256
370
-1
  6
ByLayer
 10
75.25
 20
25.5
 30
0.0
 11
74.375
 21
23.984000000000002
 31
0.0
  0
LINE
  5
113
100
AcDbEntity
100
AcDbLine
  8
0
 62
256
370
-1
  6
ByLayer
 10
74.375
 20
23.984000000000002
 30
0.0
 11
72.625
 21
23.984000000000002
 31
0.0
  0
LINE
  5
114
100
AcDbEntity
100
AcDbLine
  8
0
 62
256
370
-1
  6
ByLayer
 10
72.625
 20
23.984000000000002
 30
0.0
 11
71.75
 21
25.5
 31
0.0
  0
LINE
  5
115
100
AcDbEntity
100
AcDbLine
  8
0
 62
256
370
-1
  6
ByLayer
 10
79.337999999999994
 20
46.875999999999998
 30
0.0
 11
79.531999999999996
 21
48.719999999999999
 31
0.0
  0
LINE
  5
116
100
AcDbEntity
100
AcDbLine
  8
0
 62
256
370
-1
  6
ByLayer
 10
79.531999999999996
 20
48.719999999999999
 30
0.0
 11
80.772000000000006
 21
50.097999999999999
 31
0.0
  0
LINE
  5
117
100
AcDbEntity
100
AcDbLine
  8
0
 62
256
370
-1
  6
ByLayer
 10
80.772000000000006
 20
50.097999999999999
 30
0.0
 11
82.585999999999999
 21
50.484000000000002
 31
0.0
  0
LINE
  5
118
100
AcDbEntity
100
AcDbLine
  8
0
 62
256
370
-1
  6
ByLayer
 10
82.585999999999999
 20
50.484000000000002
 30
0.0
 11
84.280000000000001
 21
49.728999999999999
 31
0.0
  0
LINE
  5
119
100
AcDbEntity
100
AcDbLine
  8
0
 62
256
370
-1
  6
ByLayer
 10
84.280000000000001
 20
49.728999999999999
 30
0.0
 11
85.206999999999994
 21
48.124000000000002
 31
0.0
  0
LINE
  5
11A
100
AcDbEntity
100
AcDbLine
  8
0
 62
256
370
-1
  6
ByLayer
 10
85.206999999999994
 20
48.124000000000002
 30
0.0
 11
85.013000000000005
 21
46.280000000000001
 31
0.0
  0
LINE
  5
11B
100
AcDbEntity
100
AcDbLine
  8
0
 62
256
370
-1
  6
ByLayer
 10
85.013000000000005
 20
46.280000000000001
 30
0.0
 11
83.772000000000006
 21
44.902000000000001
 31
0.0
  0
LINE
  5
11C
100
AcDbEntity
100
AcDbLine
  8
0
 62
256
370
-1
  6
ByLayer
 10
83.772000000000006
 20
44.902000000000001
 30
0.0
 11
81.959000000000003
 21
44.515999999999998
 31
0.0
  0
LINE
  5
11D
100
AcDbEntity
100
AcDbLine
  8
0
 62
256
370
-1
  6
ByLayer
 10
81.959000000000003
 20
44.515999999999998
 30
0.0
 11
80.265000000000001
 21
45.271000000000001
 31
0.0
  0
LINE
  5
11E
100
AcDbEntity
100
AcDbLine
  8
0
 62
256
370
-1
  6
ByLayer
 10
80.265000000000001
 20
45.271000000000001
 30
0.0
 11
79.337999999999994
 21
46.875999999999998
 31
0.0
  0
LINE
  5
11F
100
AcDbEntity
100
AcDbLine
  8
0
 62
256
370
-1
  6
ByLayer
 10
97.156000000000006
 20
16.661000000000001
 30
0.0
 11
97.402000000000001
 21
18.407
 31
0.0
  0
LINE
  5
120
100
AcDbEntity
100
AcDbLine
  8
0
 62
256
370
-1
  6
ByLayer
 10
97.402000000000001
 20
18.407
 30
0.0
 11
99.138000000000005
 21
18.713000000000001
 31
0.0
  0
LINE
  5
121
100
AcDbEntity
100
AcDbLine
  8
0
 62
256
370
-1
  6
ByLayer
 10
99.138000000000005
 20
18.713000000000001
 30
0.0
 11
99.965999999999994
 21
17.155999999999999
 31
0.0
  0
LINE
  5
122
100
AcDbEntity
100
AcDbLine
  8
0
 62
256
370
-1
  6
ByLayer
 10
99.965999999999994
 20
17.155999999999999
 30
0.0
 11
98.741
 21
15.888
 31
0.0
  0
LINE
  5
123
100
AcDbEntity
100
AcDbLine
  8
0
 62
256
370
-1
  6
ByLayer
 10
98.741
 20
15.888
 30
0.0
 11
97.156000000000006
 21
16.661000000000001
 31
0.0
  0
LINE
  5
124
100
AcDbEntity
100
AcDbLine
  8
Hole cross hairs
 62
256
370
-1
  6
ByLayer
 10
-90.957999999999998
 20
44.878999999999998
 30
0.0
 11
-89.006500000000003
 21
42.994
 31
0.0
  0
LINE
  5
125
100
AcDbEntity
100
AcDbLine
  8
Hole cross hairs
 62
256
370
-1
  6
ByLayer
 10
-88.807999999999993
 20
44.406500000000001
 30
0.0
 11
-91.203999999999994
 21
43.133000000000003
 31
0.0
  0
LINE
  5
126
100
AcDbEntity
100
AcDbLine
  8
Hole cross hairs
 62
256
370
-1
  6
ByLayer
 10
-68.808000000000007
 20
-70.585999999999999
 30
0.0
 11
-69.997500000000002
 21
-73.024500000000003
 31
0.0
  0
LINE
  5
127
100
AcDbEntity
100
AcDbLine
  8
Hole cross hairs
 62
256
370
-1
  6
ByLayer
 10
-68.592500000000001
 20
-72.777000000000001
 30
0.0
 11
-70.545000000000002
 21
-70.891999999999996
 31
0.0
  0
LINE
  5
128
100
AcDbEntity
100
AcDbLine
  8
Hole cross hairs
 62
256
370
-1
  6
ByLayer
 10
-41.174999999999997
 20
-82.634
 30
0.0
 11
-39.424999999999997
 21
-85.665999999999997
 31
0.0
  0
LINE
  5
129
100
AcDbEntity
100
AcDbLine
  8
Hole cross hairs
 62
256
370
-1
  6
ByLayer
 10
-39.424999999999997
 20
-82.634
 30
0.0
 11
-41.174999999999997
 21
-85.665999999999997
 31
0.0
  0
LINE
  5
12A
100
AcDbEntity
100
AcDbLine
  8
Hole cross hairs
 62
256
370
-1
  6
ByLayer
 10
0.9270000000000001
 20
-92.147000000000006
 30
0.0
 11
-0.9270000000000001
 21
-97.852999999999994
 31
0.0
  0
LINE
  5
12B
100
AcDbEntity
100
AcDbLine
  8
Hole cross hairs
 62
256
370
-1
  6
ByLayer
 10
-2.7134999999999998
 20
-94.118499999999997
 30
0.0
 11
2.7134999999999998
 21
-95.881500000000003
 31
0.0
  0
LINE
  5
12C
100
AcDbEntity
100
AcDbLine
  8
Hole cross hairs
 62
256
370
-1
  6
ByLayer
 10
48.018999999999998
 20
-87.725500000000011
 30
0.0
 11
45.622999999999998
 21
-88.998999999999995
 31
0.0
  0
LINE
  5
12D
100
AcDbEntity
100
AcDbLine
  8
Hole cross hairs
 62
256
370
-1
  6
ByLayer
 10
45.868000000000002
 20
-87.253
 30
0.0
 11
47.820499999999996
 21
-89.138000000000005
 31
0.0
  0
LINE
  5
12E
100
AcDbEntity
100
AcDbLine
  8
Hole cross hairs
 62
256
370
-1
  6
ByLayer
 10
13.112500000000001
 20
-78.292000000000002
 30
0.0
 11
10.487500000000001
 21
-79.807999999999993
 31
0.0
  0
LINE
  5
12F
100
AcDbEntity
100
AcDbLine
  8
Hole cross hairs
 62
256
370
-1
  6
ByLayer
 10
10.925000000000001
 20
-77.534000000000006
 30
0.0
 11
12.675000000000001
 21
-80.566000000000003
 31
0.0
  0
LINE
  5
130
100
AcDbEntity
100
AcDbLine
  8
Hole cross hairs
 62
256
370
-1
  6
ByLayer
 10
28.5
 20
-64.983999999999995
 30
0.0
 11
28.5
 21
-68.016000000000005
 31
0.0
  0
LINE
  5
131
100
AcDbEntity
100
AcDbLine
  8
Hole cross hairs
 62
256
370
-1
  6
ByLayer
 10
26.75
 20
-66.5
 30
0.0
 11
30.25
 21
-66.5
 31
0.0
  0
LINE
  5
132
100
AcDbEntity
100
AcDbLine
  8
Hole cross hairs
 62
256
370
-1
  6
ByLayer
 10
67.25
 20
-66.5
 30
0.0
 11
63.75
 21
-66.5
 31
0.0
  0
LINE
  5
133
100
AcDbEntity
100
AcDbLine
  8
Hole cross hairs
 62
256
370
-1
  6
ByLayer
 10
65.5
 20
-64.983999999999995
 30
0.0
 11
65.5
 21
-68.016000000000005
 31
0.0
  0
LINE
  5
134
100
AcDbEntity
100
AcDbLine
  8
Hole cross hairs
 62
256
370
-1
  6
ByLayer
 10
65.5
 20
-27.984000000000002
 30
0.0
 11
65.5
 21
-31.015999999999998
 31
0.0
  0
LINE
  5
135
100
AcDbEntity
100
AcDbLine
  8
Hole cross hairs
 62
256
370
-1
  6
ByLayer
 10
28.5
 20
-27.984000000000002
 30
0.0
 11
28.5
 21
-31.015999999999998
 31
0.0
  0
LINE
  5
136
100
AcDbEntity
100
AcDbLine
  8
Hole cross hairs
 62
256
370
-1
  6
ByLayer
 10
11.800000000000001
 20
-49.533999999999999
 30
0.0
 11
11.800000000000001
 21
-52.566000000000003
 31
0.0
  0
LINE
  5
137
100
AcDbEntity
100
AcDbLine
  8
Hole cross hairs
 62
256
370
-1
  6
ByLayer
 10
-39.0
 20
-34.334000000000003
 30
0.0
 11
-39.0
 21
-37.366
 31
0.0
  0
LINE
  5
138
100
AcDbEntity
100
AcDbLine
  8
Hole cross hairs
 62
256
370
-1
  6
ByLayer
 10
-38.5
 20
-16.984000000000002
 30
0.0
 11
-38.5
 21
-20.015999999999998
 31
0.0
  0
LINE
  5
139
100
AcDbEntity
100
AcDbLine
  8
Hole cross hairs
 62
256
370
-1
  6
ByLayer
 10
-1.5
 20
-16.984000000000002
 30
0.0
 11
-1.5
 21
-20.015999999999998
 31
0.0
  0
LINE
  5
13A
100
AcDbEntity
100
AcDbLine
  8
Hole cross hairs
 62
256
370
-1
  6
ByLayer
 10
18.488999999999997
 20
5.8979999999999997
 30
0.0
 11
17.504999999999999
 21
-5.9800000000000004
 31
0.0
  0
LINE
  5
13B
100
AcDbEntity
100
AcDbLine
  8
Hole cross hairs
 62
256
370
-1
  6
ByLayer
 10
24.0
 20
0.0
 30
0.0
 11
12.082000000000001
 21
0.0
 31
0.0
  0
LINE
  5
13C
100
AcDbEntity
100
AcDbLine
  8
Hole cross hairs
 62
256
370
-1
  6
ByLayer
 10
73.5
 20
-9.984
 30
0.0
 11
73.5
 21
-13.016
 31
0.0
  0
LINE
  5
13D
100
AcDbEntity
100
AcDbLine
  8
Hole cross hairs
 62
256
370
-1
  6
ByLayer
 10
36.5
 20
-9.984
 30
0.0
 11
36.5
 21
-13.016
 31
0.0
  0
LINE
  5
13E
100
AcDbEntity
100
AcDbLine
  8
Hole cross hairs
 62
256
370
-1
  6
ByLayer
 10
73.5
 20
27.015999999999998
 30
0.0
 11
73.5
 21
23.984000000000002
 31
0.0
  0
LINE
  5
13F
100
AcDbEntity
100
AcDbLine
  8
Hole cross hairs
 62
256
370
-1
  6
ByLayer
 10
36.5
 20
27.015999999999998
 30
0.0
 11
36.5
 21
23.984000000000002
 31
0.0
  0
LINE
  5
140
100
AcDbEntity
100
AcDbLine
  8
Hole cross hairs
 62
256
370
-1
  6
ByLayer
 10
38.0
 20
40.515999999999998
 30
0.0
 11
38.0
 21
37.484000000000002
 31
0.0
  0
LINE
  5
141
100
AcDbEntity
100
AcDbLine
  8
Hole cross hairs
 62
256
370
-1
  6
ByLayer
 10
-1.5
 20
20.015999999999998
 30
0.0
 11
-1.5
 21
16.984000000000002
 31
0.0
  0
LINE
  5
142
100
AcDbEntity
100
AcDbLine
  8
Hole cross hairs
 62
256
370
-1
  6
ByLayer
 10
-38.5
 20
20.015999999999998
 30
0.0
 11
-38.5
 21
16.984000000000002
 31
0.0
  0
LINE
  5
143
100
AcDbEntity
100
AcDbLine
  8
Hole cross hairs
 62
256
370
-1
  6
ByLayer
 10
-28.0
 20
37.515999999999998
 30
0.0
 11
-28.0
 21
34.484000000000002
 31
0.0
  0
LINE
  5
144
100
AcDbEntity
100
AcDbLine
  8
Hole cross hairs
 62
256
370
-1
  6
ByLayer
 10
-28.0
 20
85.516000000000005
 30
0.0
 11
-28.0
 21
82.483999999999995
 31
0.0
  0
LINE
  5
145
100
AcDbEntity
100
AcDbLine
  8
Hole cross hairs
 62
256
370
-1
  6
ByLayer
 10
38.0
 20
82.516000000000005
 30
0.0
 11
38.0
 21
79.483999999999995
 31
0.0
  0
LINE
  5
146
100
AcDbEntity
100
AcDbLine
  8
Hole cross hairs
 62
256
370
-1
  6
ByLayer
 10
-55.698499999999996
 20
35.290999999999997
 30
0.0
 11
-56.885000000000005
 21
29.709
 31
0.0
  0
LINE
  5
147
100
AcDbEntity
100
AcDbLine
  8
Hole cross hairs
 62
256
370
-1
  6
ByLayer
 10
83.432999999999993
 20
50.106499999999997
 30
0.0
 11
81.111999999999995
 21
44.893500000000003
 31
0.0
  0
LINE
  5
148
100
AcDbEntity
100
AcDbLine
  8
Hole cross hairs
 62
256
370
-1
  6
ByLayer
 10
98.27000000000001
 20
18.560000000000002
 30
0.0
 11
98.741
 21
15.888
 31
0.0
  0
LINE
  5
149
100
AcDbEntity
100
AcDbLine
  8
Hole cross hairs
 62
256
370
-1
  6
ByLayer
 10
99.965999999999994
 20
17.155999999999999
 30
0.0
 11
97.278999999999996
 21
17.533999999999999
 31
0.0
  0
LINE
  5
14A
100
AcDbEntity
100
AcDbLine
  8
Hole cross hairs
 62
256
370
-1
  6
ByLayer
 10
14.790500000000002
 20
98.183999999999997
 30
0.0
 11
12.837999999999999
 21
100.069
 31
0.0
  0
LINE
  5
14B
100
AcDbEntity
100
AcDbLine
  8
Hole cross hairs
 62
256
370
-1
  6
ByLayer
 10
14.989000000000001
 20
99.596499999999992
 30
0.0
 11
12.593
 21
98.322999999999993
 31
0.0
  0
LINE
  5
14C
100
AcDbEntity
100
AcDbLine
  8
Hole cross hairs
 62
256
370
-1
  6
ByLayer
 10
85.013000000000005
 20
46.280000000000001
 30
0.0
 11
79.531999999999996
 21
48.719999999999999
 31
0.0
  0
LINE
  5
14D
100
AcDbEntity
100
AcDbLine
  8
Hole cross hairs
 62
256
370
-1
  6
ByLayer
 10
-53.356999999999999
 20
31.876000000000001
 30
0.0
 11
-59.225999999999999
 21
33.124000000000002
 31
0.0
  0
LINE
  5
14E
100
AcDbEntity
100
AcDbLine
  8
Hole cross hairs
 62
256
370
-1
  6
ByLayer
 10
10.050000000000001
 20
-51.049999999999997
 30
0.0
 11
13.550000000000001
 21
-51.049999999999997
 31
0.0
  0
LINE
  5
14F
100
AcDbEntity
100
AcDbLine
  8
Hole cross hairs
 62
256
370
-1
  6
ByLayer
 10
-37.25
 20
-35.850000000000001
 30
0.0
 11
-40.75
 21
-35.850000000000001
 31
0.0
  0
LINE
  5
150
100
AcDbEntity
100
AcDbLine
  8
Hole cross hairs
 62
256
370
-1
  6
ByLayer
 10
0.25
 20
-18.5
 30
0.0
 11
-3.25
 21
-18.5
 31
0.0
  0
LINE
  5
151
100
AcDbEntity
100
AcDbLine
  8
Hole cross hairs
 62
256
370
-1
  6
ByLayer
 10
-36.75
 20
-18.5
 30
0.0
 11
-40.25
 21
-18.5
 31
0.0
  0
LINE
  5
152
100
AcDbEntity
100
AcDbLine
  8
Hole cross hairs
 62
256
370
-1
  6
ByLayer
 10
63.75
 20
-29.5
 30
0.0
 11
67.25
 21
-29.5
 31
0.0
  0
LINE
  5
153
100
AcDbEntity
100
AcDbLine
  8
Hole cross hairs
 62
256
370
-1
  6
ByLayer
 10
30.25
 20
-29.5
 30
0.0
 11
26.75
 21
-29.5
 31
0.0
  0
LINE
  5
154
100
AcDbEntity
100
AcDbLine
  8
Hole cross hairs
 62
256
370
-1
  6
ByLayer
 10
38.25
 20
-11.5
 30
0.0
 11
34.75
 21
-11.5
 31
0.0
  0
LINE
  5
155
100
AcDbEntity
100
AcDbLine
  8
Hole cross hairs
 62
256
370
-1
  6
ByLayer
 10
71.75
 20
-11.5
 30
0.0
 11
75.25
 21
-11.5
 31
0.0
  0
LINE
  5
156
100
AcDbEntity
100
AcDbLine
  8
Hole cross hairs
 62
256
370
-1
  6
ByLayer
 10
0.25
 20
18.5
 30
0.0
 11
-3.25
 21
18.5
 31
0.0
  0
LINE
  5
157
100
AcDbEntity
100
AcDbLine
  8
Hole cross hairs
 62
256
370
-1
  6
ByLayer
 10
-36.75
 20
18.5
 30
0.0
 11
-40.25
 21
18.5
 31
0.0
  0
LINE
  5
158
100
AcDbEntity
100
AcDbLine
  8
Hole cross hairs
 62
256
370
-1
  6
ByLayer
 10
34.75
 20
25.5
 30
0.0
 11
38.25
 21
25.5
 31
0.0
  0
LINE
  5
159
100
AcDbEntity
100
AcDbLine
  8
Hole cross hairs
 62
256
370
-1
  6
ByLayer
 10
71.75
 20
25.5
 30
0.0
 11
75.25
 21
25.5
 31
0.0
  0
LINE
  5
15A
100
AcDbEntity
100
AcDbLine
  8
Hole cross hairs
 62
256
370
-1
  6
ByLayer
 10
39.75
 20
39.0
 30
0.0
 11
36.25
 21
39.0
 31
0.0
  0
LINE
  5
15B
100
AcDbEntity
100
AcDbLine
  8
Hole cross hairs
 62
256
370
-1
  6
ByLayer
 10
-26.25
 20
36.0
 30
0.0
 11
-29.75
 21
36.0
 31
0.0
  0
LINE
  5
15C
100
AcDbEntity
100
AcDbLine
  8
Hole cross hairs
 62
256
370
-1
  6
ByLayer
 10
39.75
 20
81.0
 30
0.0
 11
36.25
 21
81.0
 31
0.0
  0
LINE
  5
15D
100
AcDbEntity
100
AcDbLine
  8
Hole cross hairs
 62
256
370
-1
  6
ByLayer
 10
-26.25
 20
84.0
 30
0.0
 11
-29.75
 21
84.0
 31
0.0
  0
ENDSEC
  0
SECTION
  2
OBJECTS
  0
DICTIONARY
  5
C
100
AcDbDictionary
280
0
281
1
  3
ACAD_GROUP
350
D
  3
ACAD_LAYOUT
350
1A
  3
ACAD_MLINESTYLE
350
17
  3
ACAD_PLOTSETTINGS
350
19
  3
ACAD_PLOTSTYLENAME
350
E
  3
AcDbVariableDictionary
350
15E
  0
DICTIONARY
  5
D
100
AcDbDictionary
280
0
281
1
  0
ACDBDICTIONARYWDFLT
  5
E
100
AcDbDictionary
281
1
  3
Normal
350
F
100
AcDbDictionaryWithDefault
340
F
  0
ACDBPLACEHOLDER
  5
F
  0
DICTIONARY
  5
17
100
AcDbDictionary
280
0
281
1
  3
Standard
350
18
  0
MLINESTYLE
  5
18
100
AcDbMlineStyle
  2
STANDARD
 70
0
  3

 62
256
 51
90.0
 52
90.0
 71
2
 49
0.5
 62
256
  6
BYLAYER
 49
-0.5
 62
256
  6
BYLAYER
  0
DICTIONARY
  5
19
100
AcDbDictionary
280
0
281
1
  0
DICTIONARY
  5
1A
100
AcDbDictionary
281
1
  3
Layout1
350
1E
  3
Layout2
350
26
  3
Model
350
22
  0
LAYOUT
  5
1E
100
AcDbPlotSettings
  1

  2
C:\Program Files\AutoCAD 2002\plotters\DWF ePlot (optimized for plotting).pc3
  4

  6

 40
0.0
 41
0.0
 42
0.0
 43
0.0
 44
0.0
 45
0.0
 46
0.0
 47
0.0
 48
0.0
 49
0.0
140
0.0
141
0.0
142
1.0
143
1.0
 70
688
 72
0
 73
0
 74
5
  7

 75
16
147
1.0
148
0.0
149
0.0
100
AcDbLayout
  1
Layout1
 70
1
 71
1
 10
0.0
 20
0.0
 11
420.0
 21
297.0
 12
0.0
 22
0.0
 32
0.0
 14
100000000000000000000.0
 24
100000000000000000000.0
 34
100000000000000000000.0
 15
-100000000000000000000.0
 25
-100000000000000000000.0
 35
-100000000000000000000.0
146
0.0
 13
0.0
 23
0.0
 33
0.0
 16
1.0
 26
0.0
 36
0.0
 17
0.0
 27
1.0
 37
0.0
 76
0
330
1B
  0
LAYOUT
  5
22
100
AcDbPlotSettings
  1

  2
C:\Program Files\AutoCAD 2002\plotters\DWF ePlot (optimized for plotting).pc3
  4

  6

 40
0.0
 41
0.0
 42
0.0
 43
0.0
 44
0.0
 45
0.0
 46
0.0
 47
0.0
 48
0.0
 49
0.0
140
0.0
141
0.0
142
1.0
143
1.0
 70
1712
 72
0
 73
0
 74
0
  7

 75
0
147
1.0
148
0.0
149
0.0
100
AcDbLayout
  1
Model
 70
1
 71
0
 10
0.0
 20
0.0
 11
12.0
 21
9.0
 12
0.0
 22
0.0
 32
0.0
 14
0.0
 24
0.0
 34
0.0
 15
0.0
 25
0.0
 35
0.0
146
0.0
 13
0.0
 23
0.0
 33
0.0
 16
1.0
 26
0.0
 36
0.0
 17
0.0
 27
1.0
 37
0.0
 76
0
330
1F
  0
LAYOUT
  5
26
100
AcDbPlotSettings
  1

  2
C:\Program Files\AutoCAD 2002\plotters\DWF ePlot (optimized for plotting).pc3
  4

  6

 40
0.0
 41
0.0
 42
0.0
 43
0.0
 44
0.0
 45
0.0
 46
0.0
 47
0.0
 48
0.0
 49
0.0
140
0.0
141
0.0
142
1.0
143
1.0
 70
688
 72
0
 73
0
 74
5
  7

 75
16
147
1.0
148
0.0
149
0.0
100
AcDbLayout
  1
Layout2
 70
1
 71
2
 10
0.0
 20
0.0
 11
12.0
 21
9.0
 12
0.0
 22
0.0
 32
0.0
 14
0.0
 24
0.0
 34
0.0
 15
0.0
 25
0.0
 35
0.0
146
0.0
 13
0.0
 23
0.0
 33
0.0
 16
1.0
 26
0.0
 36
0.0
 17
0.0
 27
1.0
 37
0.0
 76
0
330
23
  0
DICTIONARY
  5
15E
100
AcDbDictionary
281
1
  3
DIMASSOC
350
160
  3
HIDETEXT
350
15F
  0
DICTIONARYVAR
  5
15F
100
DictionaryVariables
280
0
  1
2
  0
DICTIONARYVAR
  5
160
100
DictionaryVariables
280
0
  1
1
  0
ENDSEC
  0
EOF
