solid OpenSCAD_Model
  facet normal -1 -0 -0
    outer loop
      vertex -46 -4.5 1.55
      vertex -46 -4.5 14.55
      vertex -46 11.5 1.55
    endloop
  endfacet
  facet normal -1 0 0
    outer loop
      vertex -46 11.5 1.55
      vertex -46 -4.5 14.55
      vertex -46 11.5 14.55
    endloop
  endfacet
  facet normal 0 -1 0
    outer loop
      vertex -46 -4.5 14.55
      vertex -46 -4.5 1.55
      vertex -43.5 -4.5 1.55
    endloop
  endfacet
  facet normal 0 -1 0
    outer loop
      vertex -25 -4.5 1.6
      vertex -46 -4.5 14.55
      vertex -43.5 -4.5 1.6
    endloop
  endfacet
  facet normal 0 -1 0
    outer loop
      vertex -43.5 -4.5 1.6
      vertex -46 -4.5 14.55
      vertex -43.5 -4.5 1.55
    endloop
  endfacet
  facet normal 0 -1 0
    outer loop
      vertex -25 -4.5 14.55
      vertex -46 -4.5 14.55
      vertex -25 -4.5 1.6
    endloop
  endfacet
  facet normal -0 -0 -1
    outer loop
      vertex -46 -4.5 1.55
      vertex -46 11.5 1.55
      vertex -43.5 -4.5 1.55
    endloop
  endfacet
  facet normal 0 0 -1
    outer loop
      vertex -43.5 -4.5 1.55
      vertex -46 11.5 1.55
      vertex -43.5 11.5 1.55
    endloop
  endfacet
  facet normal 0 1 0
    outer loop
      vertex -46 11.5 1.55
      vertex -46 11.5 14.55
      vertex -43.5 11.5 1.55
    endloop
  endfacet
  facet normal 0 1 0
    outer loop
      vertex -43.5 11.5 1.6
      vertex -46 11.5 14.55
      vertex -25 11.5 14.55
    endloop
  endfacet
  facet normal 0 1 0
    outer loop
      vertex -43.5 11.5 1.55
      vertex -46 11.5 14.55
      vertex -43.5 11.5 1.6
    endloop
  endfacet
  facet normal 0 1 0
    outer loop
      vertex -43.5 11.5 1.6
      vertex -25 11.5 14.55
      vertex -25 11.5 1.6
    endloop
  endfacet
  facet normal 0 -0 1
    outer loop
      vertex -46 11.5 14.55
      vertex -46 -4.5 14.55
      vertex -25 -4.5 14.55
    endloop
  endfacet
  facet normal 0 0 1
    outer loop
      vertex -25 11.5 14.55
      vertex -46 11.5 14.55
      vertex -25 -4.5 14.55
    endloop
  endfacet
  facet normal 1 0 -0
    outer loop
      vertex -25 -4.5 14.55
      vertex -25 -4.5 1.6
      vertex -25 11.5 1.6
    endloop
  endfacet
  facet normal 1 0 0
    outer loop
      vertex -25 11.5 14.55
      vertex -25 -4.5 14.55
      vertex -25 11.5 1.6
    endloop
  endfacet
  facet normal 0 -0 1
    outer loop
      vertex -43.5 -4.5 1.6
      vertex -43.5 -16 1.6
      vertex -43.2487 -18.391 1.6
    endloop
  endfacet
  facet normal 0 0 1
    outer loop
      vertex -41.3037 -22.7595 1.6
      vertex -43.5 -4.5 1.6
      vertex -42.5058 -20.6775 1.6
    endloop
  endfacet
  facet normal 0 0 1
    outer loop
      vertex -42.5058 -20.6775 1.6
      vertex -43.5 -4.5 1.6
      vertex -43.2487 -18.391 1.6
    endloop
  endfacet
  facet normal 0 0 1
    outer loop
      vertex -39.695 -24.5462 1.6
      vertex -43.5 -4.5 1.6
      vertex -41.3037 -22.7595 1.6
    endloop
  endfacet
  facet normal 0 0 1
    outer loop
      vertex -37.75 -25.9593 1.6
      vertex -43.5 -4.5 1.6
      vertex -39.695 -24.5462 1.6
    endloop
  endfacet
  facet normal 0 0 1
    outer loop
      vertex -35.5537 -26.9371 1.6
      vertex -43.5 -4.5 1.6
      vertex -37.75 -25.9593 1.6
    endloop
  endfacet
  facet normal 0 0 1
    outer loop
      vertex -33.2021 -27.437 1.6
      vertex -43.5 -4.5 1.6
      vertex -35.5537 -26.9371 1.6
    endloop
  endfacet
  facet normal -0 0 1
    outer loop
      vertex -28.875 -25.5155 1.6
      vertex -43.5 -4.5 1.6
      vertex -33.2021 -27.437 1.6
    endloop
  endfacet
  facet normal 0 0 1
    outer loop
      vertex 37.125 -22.5155 1.6
      vertex -43.5 -4.5 1.6
      vertex 34.1 -22 1.6
    endloop
  endfacet
  facet normal 0 0 1
    outer loop
      vertex 37.125 -22.5155 1.6
      vertex 36.25 -21 1.6
      vertex -43.5 -4.5 1.6
    endloop
  endfacet
  facet normal 0 -0 1
    outer loop
      vertex 39.75 -21 1.6
      vertex 38.875 -22.5155 1.6
      vertex 41.3037 -22.7595 1.6
    endloop
  endfacet
  facet normal -0 0 1
    outer loop
      vertex 36.25 21 1.6
      vertex 34.1 22 1.6
      vertex -25 11.5 1.6
    endloop
  endfacet
  facet normal 0 0 1
    outer loop
      vertex 30.5 -17 1.6
      vertex -25 -4.5 1.6
      vertex -43.5 -4.5 1.6
    endloop
  endfacet
  facet normal 0 0 1
    outer loop
      vertex -43.5 11.5 1.6
      vertex -42.5058 20.6775 1.6
      vertex -43.2487 18.391 1.6
    endloop
  endfacet
  facet normal 0 0 1
    outer loop
      vertex 43.5 16 1.6
      vertex 30.5 -4 1.6
      vertex 43.5 -4 1.6
    endloop
  endfacet
  facet normal 0 0 1
    outer loop
      vertex -24.5 -27 1.6
      vertex -27.125 -22.4845 1.6
      vertex -26.25 -24 1.6
    endloop
  endfacet
  facet normal 0 0 1
    outer loop
      vertex -24.5 -27 1.6
      vertex -24.5 -22 1.6
      vertex -27.125 -22.4845 1.6
    endloop
  endfacet
  facet normal 0 0 1
    outer loop
      vertex -24.5 22 1.6
      vertex -26.25 24 1.6
      vertex -27.125 22.4845 1.6
    endloop
  endfacet
  facet normal 0 0 1
    outer loop
      vertex -24.5 22 1.6
      vertex -27.125 25.5155 1.6
      vertex -26.25 24 1.6
    endloop
  endfacet
  facet normal -0 0 1
    outer loop
      vertex -27.125 25.5155 1.6
      vertex -24.5 27 1.6
      vertex -28.875 25.5155 1.6
    endloop
  endfacet
  facet normal 0 0 1
    outer loop
      vertex -24.5 22 1.6
      vertex -24.5 27 1.6
      vertex -27.125 25.5155 1.6
    endloop
  endfacet
  facet normal 0 0 1
    outer loop
      vertex 38.875 22.5155 1.6
      vertex 39.75 21 1.6
      vertex 41.3037 22.7595 1.6
    endloop
  endfacet
  facet normal 0 -0 1
    outer loop
      vertex -43.5 16 1.6
      vertex -43.5 11.5 1.6
      vertex -43.2487 18.391 1.6
    endloop
  endfacet
  facet normal 0 0 1
    outer loop
      vertex 34.1 27 1.6
      vertex 37.75 25.9593 1.6
      vertex 35.5537 26.9371 1.6
    endloop
  endfacet
  facet normal -0 0 1
    outer loop
      vertex -24.5 -27 1.6
      vertex -28.875 -25.5155 1.6
      vertex -33.2021 -27.437 1.6
    endloop
  endfacet
  facet normal -0 -0 1
    outer loop
      vertex -29.75 -24 1.6
      vertex -43.5 -4.5 1.6
      vertex -28.875 -25.5155 1.6
    endloop
  endfacet
  facet normal -0 0 1
    outer loop
      vertex -28.875 -22.4845 1.6
      vertex -43.5 -4.5 1.6
      vertex -29.75 -24 1.6
    endloop
  endfacet
  facet normal -0 0 1
    outer loop
      vertex -27.125 -22.4845 1.6
      vertex -43.5 -4.5 1.6
      vertex -28.875 -22.4845 1.6
    endloop
  endfacet
  facet normal 0 -0 1
    outer loop
      vertex 34.1 -22 1.6
      vertex 34.1 -27 1.6
      vertex 35.5537 -26.9371 1.6
    endloop
  endfacet
  facet normal -0 0 1
    outer loop
      vertex -24.5 -22 1.6
      vertex -43.5 -4.5 1.6
      vertex -27.125 -22.4845 1.6
    endloop
  endfacet
  facet normal 0 0 1
    outer loop
      vertex 34.1 27 1.6
      vertex 39.695 24.5462 1.6
      vertex 37.75 25.9593 1.6
    endloop
  endfacet
  facet normal 0 0 1
    outer loop
      vertex 34.1 -22 1.6
      vertex 35.5537 -26.9371 1.6
      vertex 37.75 -25.9593 1.6
    endloop
  endfacet
  facet normal 0 0 1
    outer loop
      vertex -24.5 -27 1.6
      vertex -26.25 -24 1.6
      vertex -27.125 -25.5155 1.6
    endloop
  endfacet
  facet normal 0 0 1
    outer loop
      vertex -33.2021 27.437 1.6
      vertex -25 11.5 1.6
      vertex -28.875 22.4845 1.6
    endloop
  endfacet
  facet normal 0 -0 1
    outer loop
      vertex 34.1 27 1.6
      vertex 34.1 22 1.6
      vertex 39.695 24.5462 1.6
    endloop
  endfacet
  facet normal 0 0 1
    outer loop
      vertex -33.2021 27.437 1.6
      vertex -28.875 22.4845 1.6
      vertex -29.75 24 1.6
    endloop
  endfacet
  facet normal 0 0 1
    outer loop
      vertex -33.2021 27.437 1.6
      vertex -29.75 24 1.6
      vertex -28.875 25.5155 1.6
    endloop
  endfacet
  facet normal 0 0 1
    outer loop
      vertex -24.5 27 1.6
      vertex 34.1 27 1.6
      vertex 33.2021 27.437 1.6
    endloop
  endfacet
  facet normal 0 0 1
    outer loop
      vertex -24.5 -27 1.6
      vertex -27.125 -25.5155 1.6
      vertex -28.875 -25.5155 1.6
    endloop
  endfacet
  facet normal 0 0 1
    outer loop
      vertex -28.875 22.4845 1.6
      vertex -25 11.5 1.6
      vertex -27.125 22.4845 1.6
    endloop
  endfacet
  facet normal -0 0 1
    outer loop
      vertex 33.2021 -27.437 1.6
      vertex -24.5 -27 1.6
      vertex -33.2021 -27.437 1.6
    endloop
  endfacet
  facet normal 0 0 1
    outer loop
      vertex 34.1 -22 1.6
      vertex 37.75 -25.9593 1.6
      vertex 39.695 -24.5462 1.6
    endloop
  endfacet
  facet normal 0 0 1
    outer loop
      vertex -24.5 -22 1.6
      vertex 34.1 -22 1.6
      vertex -43.5 -4.5 1.6
    endloop
  endfacet
  facet normal 0 0 1
    outer loop
      vertex 34.1 22 1.6
      vertex -24.5 22 1.6
      vertex -25 11.5 1.6
    endloop
  endfacet
  facet normal -0 -0 1
    outer loop
      vertex 37.125 -22.5155 1.6
      vertex 34.1 -22 1.6
      vertex 39.695 -24.5462 1.6
    endloop
  endfacet
  facet normal 0 0 1
    outer loop
      vertex 36.25 -21 1.6
      vertex 37.125 -19.4845 1.6
      vertex -43.5 -4.5 1.6
    endloop
  endfacet
  facet normal 0 0 1
    outer loop
      vertex 35.5537 -26.9371 1.6
      vertex 34.1 -27 1.6
      vertex 33.2021 -27.437 1.6
    endloop
  endfacet
  facet normal 0 0 1
    outer loop
      vertex -27.125 22.4845 1.6
      vertex -25 11.5 1.6
      vertex -24.5 22 1.6
    endloop
  endfacet
  facet normal 0 0 1
    outer loop
      vertex -33.2021 27.437 1.6
      vertex -24.5 27 1.6
      vertex 33.2021 27.437 1.6
    endloop
  endfacet
  facet normal 0 0 1
    outer loop
      vertex -33.2021 27.437 1.6
      vertex -28.875 25.5155 1.6
      vertex -24.5 27 1.6
    endloop
  endfacet
  facet normal 0 0 1
    outer loop
      vertex 33.2021 27.437 1.6
      vertex 34.1 27 1.6
      vertex 35.5537 26.9371 1.6
    endloop
  endfacet
  facet normal -0 0 1
    outer loop
      vertex 41.3037 -22.7595 1.6
      vertex 37.125 -22.5155 1.6
      vertex 39.695 -24.5462 1.6
    endloop
  endfacet
  facet normal 0 0 1
    outer loop
      vertex 36.25 21 1.6
      vertex 37.125 22.5155 1.6
      vertex 34.1 22 1.6
    endloop
  endfacet
  facet normal 0 0 1
    outer loop
      vertex 37.125 -19.4845 1.6
      vertex 38.875 -19.4845 1.6
      vertex 30.5 -17 1.6
    endloop
  endfacet
  facet normal -0 -0 1
    outer loop
      vertex 30.5 -17 1.6
      vertex -43.5 -4.5 1.6
      vertex 37.125 -19.4845 1.6
    endloop
  endfacet
  facet normal 0 0 1
    outer loop
      vertex 43.2487 -18.391 1.6
      vertex 38.875 -19.4845 1.6
      vertex 42.5058 -20.6775 1.6
    endloop
  endfacet
  facet normal -0 0 1
    outer loop
      vertex 43.2487 -18.391 1.6
      vertex 30.5 -17 1.6
      vertex 38.875 -19.4845 1.6
    endloop
  endfacet
  facet normal 0 0 1
    outer loop
      vertex 42.5058 -20.6775 1.6
      vertex 39.75 -21 1.6
      vertex 41.3037 -22.7595 1.6
    endloop
  endfacet
  facet normal 0 0 1
    outer loop
      vertex 41.3037 -22.7595 1.6
      vertex 38.875 -22.5155 1.6
      vertex 37.125 -22.5155 1.6
    endloop
  endfacet
  facet normal 0 0 1
    outer loop
      vertex 38.875 -19.4845 1.6
      vertex 39.75 -21 1.6
      vertex 42.5058 -20.6775 1.6
    endloop
  endfacet
  facet normal 0 0 1
    outer loop
      vertex 34.1 -27 1.6
      vertex -24.5 -27 1.6
      vertex 33.2021 -27.437 1.6
    endloop
  endfacet
  facet normal 0 -0 1
    outer loop
      vertex 39.75 21 1.6
      vertex 38.875 19.4845 1.6
      vertex 42.5058 20.6775 1.6
    endloop
  endfacet
  facet normal 0 -0 1
    outer loop
      vertex 39.695 24.5462 1.6
      vertex 37.125 22.5155 1.6
      vertex 41.3037 22.7595 1.6
    endloop
  endfacet
  facet normal 0 0 1
    outer loop
      vertex 39.695 24.5462 1.6
      vertex 34.1 22 1.6
      vertex 37.125 22.5155 1.6
    endloop
  endfacet
  facet normal 0 0 1
    outer loop
      vertex 37.125 22.5155 1.6
      vertex 38.875 22.5155 1.6
      vertex 41.3037 22.7595 1.6
    endloop
  endfacet
  facet normal 0 -0 1
    outer loop
      vertex 41.3037 22.7595 1.6
      vertex 39.75 21 1.6
      vertex 42.5058 20.6775 1.6
    endloop
  endfacet
  facet normal 0 -0 1
    outer loop
      vertex 42.5058 20.6775 1.6
      vertex 38.875 19.4845 1.6
      vertex 43.2487 18.391 1.6
    endloop
  endfacet
  facet normal 0 0 1
    outer loop
      vertex -43.5 11.5 1.6
      vertex -41.3037 22.7595 1.6
      vertex -42.5058 20.6775 1.6
    endloop
  endfacet
  facet normal 0 0 1
    outer loop
      vertex 43.3949 -17 1.6
      vertex 30.5 -17 1.6
      vertex 43.2487 -18.391 1.6
    endloop
  endfacet
  facet normal 0 0 1
    outer loop
      vertex 30.5 -17 1.6
      vertex 30.5 -4 1.6
      vertex -25 -4.5 1.6
    endloop
  endfacet
  facet normal 0 0 1
    outer loop
      vertex -43.5 11.5 1.6
      vertex -39.695 24.5462 1.6
      vertex -41.3037 22.7595 1.6
    endloop
  endfacet
  facet normal 0 0 1
    outer loop
      vertex -43.5 11.5 1.6
      vertex -37.75 25.9593 1.6
      vertex -39.695 24.5462 1.6
    endloop
  endfacet
  facet normal 0 0 1
    outer loop
      vertex -43.5 11.5 1.6
      vertex -35.5537 26.9371 1.6
      vertex -37.75 25.9593 1.6
    endloop
  endfacet
  facet normal 0 0 1
    outer loop
      vertex -43.5 11.5 1.6
      vertex -33.2021 27.437 1.6
      vertex -35.5537 26.9371 1.6
    endloop
  endfacet
  facet normal 0 0 1
    outer loop
      vertex -43.5 11.5 1.6
      vertex -25 11.5 1.6
      vertex -33.2021 27.437 1.6
    endloop
  endfacet
  facet normal 0 0 1
    outer loop
      vertex -25 11.5 1.6
      vertex 37.125 19.4845 1.6
      vertex 36.25 21 1.6
    endloop
  endfacet
  facet normal 0 0 1
    outer loop
      vertex -25 11.5 1.6
      vertex 38.875 19.4845 1.6
      vertex 37.125 19.4845 1.6
    endloop
  endfacet
  facet normal 0 0 1
    outer loop
      vertex -25 11.5 1.6
      vertex 43.2487 18.391 1.6
      vertex 38.875 19.4845 1.6
    endloop
  endfacet
  facet normal 0 0 1
    outer loop
      vertex -25 11.5 1.6
      vertex 43.5 16 1.6
      vertex 43.2487 18.391 1.6
    endloop
  endfacet
  facet normal 0 0 1
    outer loop
      vertex -25 11.5 1.6
      vertex 30.5 -4 1.6
      vertex 43.5 16 1.6
    endloop
  endfacet
  facet normal 0 -0 1
    outer loop
      vertex -25 11.5 1.6
      vertex -25 -4.5 1.6
      vertex 30.5 -4 1.6
    endloop
  endfacet
  facet normal -1 -0 -0
    outer loop
      vertex -43.5 -16 0
      vertex -43.5 -16 1.6
      vertex -43.5 16 0
    endloop
  endfacet
  facet normal -1 0 0
    outer loop
      vertex -43.5 -4.5 1.55
      vertex -43.5 -16 1.6
      vertex -43.5 -4.5 1.6
    endloop
  endfacet
  facet normal -1 0 0
    outer loop
      vertex -43.5 16 0
      vertex -43.5 -16 1.6
      vertex -43.5 -4.5 1.55
    endloop
  endfacet
  facet normal -1 0 0
    outer loop
      vertex -43.5 16 0
      vertex -43.5 11.5 1.55
      vertex -43.5 11.5 1.6
    endloop
  endfacet
  facet normal -1 0 0
    outer loop
      vertex -43.5 16 0
      vertex -43.5 11.5 1.6
      vertex -43.5 16 1.6
    endloop
  endfacet
  facet normal -1 0 0
    outer loop
      vertex -43.5 11.5 1.55
      vertex -43.5 16 0
      vertex -43.5 -4.5 1.55
    endloop
  endfacet
  facet normal -0.994522 0.104529 0
    outer loop
      vertex -43.5 16 0
      vertex -43.5 16 1.6
      vertex -43.2487 18.391 0
    endloop
  endfacet
  facet normal -0.994522 0.104529 0
    outer loop
      vertex -43.2487 18.391 0
      vertex -43.5 16 1.6
      vertex -43.2487 18.391 1.6
    endloop
  endfacet
  facet normal -0.951057 0.309017 0
    outer loop
      vertex -43.2487 18.391 0
      vertex -43.2487 18.391 1.6
      vertex -42.5058 20.6775 0
    endloop
  endfacet
  facet normal -0.951057 0.309017 0
    outer loop
      vertex -42.5058 20.6775 0
      vertex -43.2487 18.391 1.6
      vertex -42.5058 20.6775 1.6
    endloop
  endfacet
  facet normal -0.866025 0.5 0
    outer loop
      vertex -42.5058 20.6775 0
      vertex -42.5058 20.6775 1.6
      vertex -41.3037 22.7595 0
    endloop
  endfacet
  facet normal -0.866025 0.5 0
    outer loop
      vertex -41.3037 22.7595 0
      vertex -42.5058 20.6775 1.6
      vertex -41.3037 22.7595 1.6
    endloop
  endfacet
  facet normal -0.743145 0.669131 0
    outer loop
      vertex -41.3037 22.7595 0
      vertex -41.3037 22.7595 1.6
      vertex -39.695 24.5462 0
    endloop
  endfacet
  facet normal -0.743145 0.669131 0
    outer loop
      vertex -39.695 24.5462 0
      vertex -41.3037 22.7595 1.6
      vertex -39.695 24.5462 1.6
    endloop
  endfacet
  facet normal -0.587785 0.809017 0
    outer loop
      vertex -39.695 24.5462 0
      vertex -39.695 24.5462 1.6
      vertex -37.75 25.9593 0
    endloop
  endfacet
  facet normal -0.587785 0.809017 0
    outer loop
      vertex -37.75 25.9593 0
      vertex -39.695 24.5462 1.6
      vertex -37.75 25.9593 1.6
    endloop
  endfacet
  facet normal -0.406737 0.913545 0
    outer loop
      vertex -37.75 25.9593 0
      vertex -37.75 25.9593 1.6
      vertex -35.5537 26.9371 0
    endloop
  endfacet
  facet normal -0.406737 0.913545 0
    outer loop
      vertex -35.5537 26.9371 0
      vertex -37.75 25.9593 1.6
      vertex -35.5537 26.9371 1.6
    endloop
  endfacet
  facet normal -0.207912 0.978148 0
    outer loop
      vertex -35.5537 26.9371 0
      vertex -35.5537 26.9371 1.6
      vertex -33.2021 27.437 0
    endloop
  endfacet
  facet normal -0.207912 0.978148 0
    outer loop
      vertex -33.2021 27.437 0
      vertex -35.5537 26.9371 1.6
      vertex -33.2021 27.437 1.6
    endloop
  endfacet
  facet normal 0 1 0
    outer loop
      vertex -33.2021 27.437 0
      vertex -33.2021 27.437 1.6
      vertex 33.2021 27.437 0
    endloop
  endfacet
  facet normal 0 1 0
    outer loop
      vertex 33.2021 27.437 0
      vertex -33.2021 27.437 1.6
      vertex 33.2021 27.437 1.6
    endloop
  endfacet
  facet normal 0.207912 0.978148 0
    outer loop
      vertex 33.2021 27.437 0
      vertex 33.2021 27.437 1.6
      vertex 35.5537 26.9371 0
    endloop
  endfacet
  facet normal 0.207912 0.978148 0
    outer loop
      vertex 35.5537 26.9371 0
      vertex 33.2021 27.437 1.6
      vertex 35.5537 26.9371 1.6
    endloop
  endfacet
  facet normal 0.406737 0.913545 0
    outer loop
      vertex 35.5537 26.9371 0
      vertex 35.5537 26.9371 1.6
      vertex 37.75 25.9593 0
    endloop
  endfacet
  facet normal 0.406737 0.913545 0
    outer loop
      vertex 37.75 25.9593 0
      vertex 35.5537 26.9371 1.6
      vertex 37.75 25.9593 1.6
    endloop
  endfacet
  facet normal 0.587785 0.809017 0
    outer loop
      vertex 37.75 25.9593 0
      vertex 37.75 25.9593 1.6
      vertex 39.695 24.5462 0
    endloop
  endfacet
  facet normal 0.587785 0.809017 0
    outer loop
      vertex 39.695 24.5462 0
      vertex 37.75 25.9593 1.6
      vertex 39.695 24.5462 1.6
    endloop
  endfacet
  facet normal 0.743145 0.669131 0
    outer loop
      vertex 41.3037 22.7595 0
      vertex 39.695 24.5462 0
      vertex 39.695 24.5462 1.6
    endloop
  endfacet
  facet normal 0.743145 0.669131 -0
    outer loop
      vertex 41.3037 22.7595 1.6
      vertex 41.3037 22.7595 0
      vertex 39.695 24.5462 1.6
    endloop
  endfacet
  facet normal 0.866025 0.5 0
    outer loop
      vertex 42.5058 20.6775 0
      vertex 41.3037 22.7595 0
      vertex 41.3037 22.7595 1.6
    endloop
  endfacet
  facet normal 0.866025 0.5 -0
    outer loop
      vertex 42.5058 20.6775 1.6
      vertex 42.5058 20.6775 0
      vertex 41.3037 22.7595 1.6
    endloop
  endfacet
  facet normal 0.951057 0.309017 0
    outer loop
      vertex 43.2487 18.391 0
      vertex 42.5058 20.6775 0
      vertex 42.5058 20.6775 1.6
    endloop
  endfacet
  facet normal 0.951057 0.309017 -0
    outer loop
      vertex 43.2487 18.391 1.6
      vertex 43.2487 18.391 0
      vertex 42.5058 20.6775 1.6
    endloop
  endfacet
  facet normal 0.994522 0.104529 0
    outer loop
      vertex 43.5 16 0
      vertex 43.2487 18.391 0
      vertex 43.2487 18.391 1.6
    endloop
  endfacet
  facet normal 0.994522 0.104529 -0
    outer loop
      vertex 43.5 16 1.6
      vertex 43.5 16 0
      vertex 43.2487 18.391 1.6
    endloop
  endfacet
  facet normal 1 0 -0
    outer loop
      vertex 43.5 -16 1.55
      vertex 43.5 -16 0
      vertex 43.5 16 0
    endloop
  endfacet
  facet normal 1 0 -0
    outer loop
      vertex 43.5 -4 1.55
      vertex 43.5 -16 1.55
      vertex 43.5 16 0
    endloop
  endfacet
  facet normal 1 0 0
    outer loop
      vertex 43.5 16 1.6
      vertex 43.5 -4 1.55
      vertex 43.5 16 0
    endloop
  endfacet
  facet normal 1 0 -0
    outer loop
      vertex 43.5 -4 1.6
      vertex 43.5 -4 1.55
      vertex 43.5 16 1.6
    endloop
  endfacet
  facet normal 0 1 0
    outer loop
      vertex 30.5 -4 1.6
      vertex 30.5 -4 8.55
      vertex 43.5 -4 1.6
    endloop
  endfacet
  facet normal 0 1 0
    outer loop
      vertex 43.5 -4 1.6
      vertex 30.5 -4 8.55
      vertex 44 -4 8.55
    endloop
  endfacet
  facet normal 0 1 0
    outer loop
      vertex 43.5 -4 1.6
      vertex 44 -4 8.55
      vertex 44 -4 1.55
    endloop
  endfacet
  facet normal 0 1 -0
    outer loop
      vertex 43.5 -4 1.6
      vertex 44 -4 1.55
      vertex 43.5 -4 1.55
    endloop
  endfacet
  facet normal -1 -0 -0
    outer loop
      vertex 30.5 -17 1.6
      vertex 30.5 -17 8.55
      vertex 30.5 -4 1.6
    endloop
  endfacet
  facet normal -1 0 0
    outer loop
      vertex 30.5 -4 1.6
      vertex 30.5 -17 8.55
      vertex 30.5 -4 8.55
    endloop
  endfacet
  facet normal 0 -1 0
    outer loop
      vertex 30.5 -17 8.55
      vertex 30.5 -17 1.6
      vertex 43.3949 -17 1.6
    endloop
  endfacet
  facet normal 0 -1 0
    outer loop
      vertex 44 -17 1.55
      vertex 30.5 -17 8.55
      vertex 43.3949 -17 1.6
    endloop
  endfacet
  facet normal -0 -1 -0
    outer loop
      vertex 43.3949 -17 1.55
      vertex 44 -17 1.55
      vertex 43.3949 -17 1.6
    endloop
  endfacet
  facet normal 0 -1 0
    outer loop
      vertex 44 -17 1.55
      vertex 44 -17 8.55
      vertex 30.5 -17 8.55
    endloop
  endfacet
  facet normal 0.994522 -0.104529 0
    outer loop
      vertex 43.2487 -18.391 1.6
      vertex 43.2487 -18.391 0
      vertex 43.5 -16 0
    endloop
  endfacet
  facet normal 0.994522 -0.104529 5.22957e-015
    outer loop
      vertex 43.3949 -17 1.55
      vertex 43.2487 -18.391 1.6
      vertex 43.5 -16 0
    endloop
  endfacet
  facet normal 0.994522 -0.104529 0
    outer loop
      vertex 43.5 -16 1.55
      vertex 43.3949 -17 1.55
      vertex 43.5 -16 0
    endloop
  endfacet
  facet normal 0.994522 -0.104529 0
    outer loop
      vertex 43.3949 -17 1.55
      vertex 43.3949 -17 1.6
      vertex 43.2487 -18.391 1.6
    endloop
  endfacet
  facet normal 0.951057 -0.309017 0
    outer loop
      vertex 42.5058 -20.6775 1.6
      vertex 42.5058 -20.6775 0
      vertex 43.2487 -18.391 0
    endloop
  endfacet
  facet normal 0.951057 -0.309017 0
    outer loop
      vertex 43.2487 -18.391 1.6
      vertex 42.5058 -20.6775 1.6
      vertex 43.2487 -18.391 0
    endloop
  endfacet
  facet normal 0.866025 -0.5 0
    outer loop
      vertex 41.3037 -22.7595 1.6
      vertex 41.3037 -22.7595 0
      vertex 42.5058 -20.6775 0
    endloop
  endfacet
  facet normal 0.866025 -0.5 0
    outer loop
      vertex 42.5058 -20.6775 1.6
      vertex 41.3037 -22.7595 1.6
      vertex 42.5058 -20.6775 0
    endloop
  endfacet
  facet normal 0.743145 -0.669131 0
    outer loop
      vertex 39.695 -24.5462 1.6
      vertex 39.695 -24.5462 0
      vertex 41.3037 -22.7595 0
    endloop
  endfacet
  facet normal 0.743145 -0.669131 0
    outer loop
      vertex 41.3037 -22.7595 1.6
      vertex 39.695 -24.5462 1.6
      vertex 41.3037 -22.7595 0
    endloop
  endfacet
  facet normal 0.587785 -0.809017 0
    outer loop
      vertex 37.75 -25.9593 1.6
      vertex 37.75 -25.9593 0
      vertex 39.695 -24.5462 0
    endloop
  endfacet
  facet normal 0.587785 -0.809017 0
    outer loop
      vertex 39.695 -24.5462 1.6
      vertex 37.75 -25.9593 1.6
      vertex 39.695 -24.5462 0
    endloop
  endfacet
  facet normal 0.406737 -0.913545 0
    outer loop
      vertex 35.5537 -26.9371 1.6
      vertex 35.5537 -26.9371 0
      vertex 37.75 -25.9593 0
    endloop
  endfacet
  facet normal 0.406737 -0.913545 0
    outer loop
      vertex 37.75 -25.9593 1.6
      vertex 35.5537 -26.9371 1.6
      vertex 37.75 -25.9593 0
    endloop
  endfacet
  facet normal 0.207912 -0.978148 0
    outer loop
      vertex 33.2021 -27.437 1.6
      vertex 33.2021 -27.437 0
      vertex 35.5537 -26.9371 0
    endloop
  endfacet
  facet normal 0.207912 -0.978148 0
    outer loop
      vertex 35.5537 -26.9371 1.6
      vertex 33.2021 -27.437 1.6
      vertex 35.5537 -26.9371 0
    endloop
  endfacet
  facet normal 0 -1 0
    outer loop
      vertex -33.2021 -27.437 1.6
      vertex -33.2021 -27.437 0
      vertex 33.2021 -27.437 0
    endloop
  endfacet
  facet normal 0 -1 0
    outer loop
      vertex 33.2021 -27.437 1.6
      vertex -33.2021 -27.437 1.6
      vertex 33.2021 -27.437 0
    endloop
  endfacet
  facet normal -0.207912 -0.978148 0
    outer loop
      vertex -35.5537 -26.9371 1.6
      vertex -35.5537 -26.9371 0
      vertex -33.2021 -27.437 0
    endloop
  endfacet
  facet normal -0.207912 -0.978148 0
    outer loop
      vertex -33.2021 -27.437 1.6
      vertex -35.5537 -26.9371 1.6
      vertex -33.2021 -27.437 0
    endloop
  endfacet
  facet normal -0.406737 -0.913545 0
    outer loop
      vertex -37.75 -25.9593 1.6
      vertex -37.75 -25.9593 0
      vertex -35.5537 -26.9371 0
    endloop
  endfacet
  facet normal -0.406737 -0.913545 0
    outer loop
      vertex -35.5537 -26.9371 1.6
      vertex -37.75 -25.9593 1.6
      vertex -35.5537 -26.9371 0
    endloop
  endfacet
  facet normal -0.587785 -0.809017 0
    outer loop
      vertex -39.695 -24.5462 1.6
      vertex -39.695 -24.5462 0
      vertex -37.75 -25.9593 0
    endloop
  endfacet
  facet normal -0.587785 -0.809017 0
    outer loop
      vertex -37.75 -25.9593 1.6
      vertex -39.695 -24.5462 1.6
      vertex -37.75 -25.9593 0
    endloop
  endfacet
  facet normal -0.743145 -0.669131 -0
    outer loop
      vertex -41.3037 -22.7595 0
      vertex -39.695 -24.5462 0
      vertex -41.3037 -22.7595 1.6
    endloop
  endfacet
  facet normal -0.743145 -0.669131 0
    outer loop
      vertex -41.3037 -22.7595 1.6
      vertex -39.695 -24.5462 0
      vertex -39.695 -24.5462 1.6
    endloop
  endfacet
  facet normal -0.866025 -0.5 -0
    outer loop
      vertex -42.5058 -20.6775 0
      vertex -41.3037 -22.7595 0
      vertex -42.5058 -20.6775 1.6
    endloop
  endfacet
  facet normal -0.866025 -0.5 0
    outer loop
      vertex -42.5058 -20.6775 1.6
      vertex -41.3037 -22.7595 0
      vertex -41.3037 -22.7595 1.6
    endloop
  endfacet
  facet normal -0.951057 -0.309017 -0
    outer loop
      vertex -43.2487 -18.391 0
      vertex -42.5058 -20.6775 0
      vertex -43.2487 -18.391 1.6
    endloop
  endfacet
  facet normal -0.951057 -0.309017 0
    outer loop
      vertex -43.2487 -18.391 1.6
      vertex -42.5058 -20.6775 0
      vertex -42.5058 -20.6775 1.6
    endloop
  endfacet
  facet normal -0.994522 -0.104529 -0
    outer loop
      vertex -43.5 -16 0
      vertex -43.2487 -18.391 0
      vertex -43.5 -16 1.6
    endloop
  endfacet
  facet normal -0.994522 -0.104529 0
    outer loop
      vertex -43.5 -16 1.6
      vertex -43.2487 -18.391 0
      vertex -43.2487 -18.391 1.6
    endloop
  endfacet
  facet normal 0.866025 0.5 0
    outer loop
      vertex -29.75 -24 1.6
      vertex -28.875 -25.5155 1.6
      vertex -28.875 -25.5155 0
    endloop
  endfacet
  facet normal 0.866025 0.5 0
    outer loop
      vertex -29.75 -24 0
      vertex -29.75 -24 1.6
      vertex -28.875 -25.5155 0
    endloop
  endfacet
  facet normal 0 1 0
    outer loop
      vertex -27.125 -25.5155 1.6
      vertex -27.125 -25.5155 0
      vertex -28.875 -25.5155 1.6
    endloop
  endfacet
  facet normal 0 1 -0
    outer loop
      vertex -28.875 -25.5155 1.6
      vertex -27.125 -25.5155 0
      vertex -28.875 -25.5155 0
    endloop
  endfacet
  facet normal -0.866025 0.5 0
    outer loop
      vertex -26.25 -24 1.6
      vertex -26.25 -24 0
      vertex -27.125 -25.5155 1.6
    endloop
  endfacet
  facet normal -0.866025 0.5 0
    outer loop
      vertex -27.125 -25.5155 1.6
      vertex -26.25 -24 0
      vertex -27.125 -25.5155 0
    endloop
  endfacet
  facet normal -0.866025 -0.5 0
    outer loop
      vertex -26.25 -24 1.6
      vertex -27.125 -22.4845 1.6
      vertex -26.25 -24 0
    endloop
  endfacet
  facet normal -0.866025 -0.5 0
    outer loop
      vertex -26.25 -24 0
      vertex -27.125 -22.4845 1.6
      vertex -27.125 -22.4845 0
    endloop
  endfacet
  facet normal 0 -1 0
    outer loop
      vertex -27.125 -22.4845 0
      vertex -27.125 -22.4845 1.6
      vertex -28.875 -22.4845 1.6
    endloop
  endfacet
  facet normal -0 -1 -0
    outer loop
      vertex -28.875 -22.4845 0
      vertex -27.125 -22.4845 0
      vertex -28.875 -22.4845 1.6
    endloop
  endfacet
  facet normal 0.866025 -0.5 0
    outer loop
      vertex -28.875 -22.4845 0
      vertex -28.875 -22.4845 1.6
      vertex -29.75 -24 1.6
    endloop
  endfacet
  facet normal 0.866025 -0.5 0
    outer loop
      vertex -29.75 -24 0
      vertex -28.875 -22.4845 0
      vertex -29.75 -24 1.6
    endloop
  endfacet
  facet normal 0 1 0
    outer loop
      vertex -27.125 22.4845 1.6
      vertex -27.125 22.4845 0
      vertex -28.875 22.4845 1.6
    endloop
  endfacet
  facet normal 0 1 -0
    outer loop
      vertex -28.875 22.4845 1.6
      vertex -27.125 22.4845 0
      vertex -28.875 22.4845 0
    endloop
  endfacet
  facet normal 0.866025 0.5 0
    outer loop
      vertex -29.75 24 1.6
      vertex -28.875 22.4845 1.6
      vertex -28.875 22.4845 0
    endloop
  endfacet
  facet normal 0.866025 0.5 0
    outer loop
      vertex -29.75 24 0
      vertex -29.75 24 1.6
      vertex -28.875 22.4845 0
    endloop
  endfacet
  facet normal -0.866025 0.5 0
    outer loop
      vertex -26.25 24 1.6
      vertex -26.25 24 0
      vertex -27.125 22.4845 1.6
    endloop
  endfacet
  facet normal -0.866025 0.5 0
    outer loop
      vertex -27.125 22.4845 1.6
      vertex -26.25 24 0
      vertex -27.125 22.4845 0
    endloop
  endfacet
  facet normal -0.866025 -0.5 0
    outer loop
      vertex -26.25 24 1.6
      vertex -27.125 25.5155 1.6
      vertex -26.25 24 0
    endloop
  endfacet
  facet normal -0.866025 -0.5 0
    outer loop
      vertex -26.25 24 0
      vertex -27.125 25.5155 1.6
      vertex -27.125 25.5155 0
    endloop
  endfacet
  facet normal 0 -1 0
    outer loop
      vertex -27.125 25.5155 0
      vertex -27.125 25.5155 1.6
      vertex -28.875 25.5155 1.6
    endloop
  endfacet
  facet normal -0 -1 -0
    outer loop
      vertex -28.875 25.5155 0
      vertex -27.125 25.5155 0
      vertex -28.875 25.5155 1.6
    endloop
  endfacet
  facet normal 0.866025 -0.5 0
    outer loop
      vertex -28.875 25.5155 0
      vertex -28.875 25.5155 1.6
      vertex -29.75 24 1.6
    endloop
  endfacet
  facet normal 0.866025 -0.5 0
    outer loop
      vertex -29.75 24 0
      vertex -28.875 25.5155 0
      vertex -29.75 24 1.6
    endloop
  endfacet
  facet normal -1 -0 -0
    outer loop
      vertex -24.5 -27 1.6
      vertex -24.5 -27 10.55
      vertex -24.5 -22 1.6
    endloop
  endfacet
  facet normal -1 0 0
    outer loop
      vertex -24.5 -22 1.6
      vertex -24.5 -27 10.55
      vertex -24.5 -22 10.55
    endloop
  endfacet
  facet normal 0 -1 0
    outer loop
      vertex -24.5 -27 10.55
      vertex -24.5 -27 1.6
      vertex 34.1 -27 1.6
    endloop
  endfacet
  facet normal 0 -1 0
    outer loop
      vertex 34.1 -27 10.55
      vertex -24.5 -27 10.55
      vertex 34.1 -27 1.6
    endloop
  endfacet
  facet normal 1 0 -0
    outer loop
      vertex 34.1 -27 10.55
      vertex 34.1 -27 1.6
      vertex 34.1 -22 1.6
    endloop
  endfacet
  facet normal 1 0 0
    outer loop
      vertex 34.1 -22 10.55
      vertex 34.1 -27 10.55
      vertex 34.1 -22 1.6
    endloop
  endfacet
  facet normal 0 1 0
    outer loop
      vertex -24.5 -22 1.6
      vertex -24.5 -22 10.55
      vertex 34.1 -22 1.6
    endloop
  endfacet
  facet normal 0 1 0
    outer loop
      vertex 34.1 -22 1.6
      vertex -24.5 -22 10.55
      vertex 34.1 -22 10.55
    endloop
  endfacet
  facet normal -1 -0 -0
    outer loop
      vertex -24.5 22 1.6
      vertex -24.5 22 10.55
      vertex -24.5 27 1.6
    endloop
  endfacet
  facet normal -1 0 0
    outer loop
      vertex -24.5 27 1.6
      vertex -24.5 22 10.55
      vertex -24.5 27 10.55
    endloop
  endfacet
  facet normal 0 -1 0
    outer loop
      vertex -24.5 22 10.55
      vertex -24.5 22 1.6
      vertex 34.1 22 1.6
    endloop
  endfacet
  facet normal 0 -1 0
    outer loop
      vertex 34.1 22 10.55
      vertex -24.5 22 10.55
      vertex 34.1 22 1.6
    endloop
  endfacet
  facet normal 1 0 -0
    outer loop
      vertex 34.1 22 10.55
      vertex 34.1 22 1.6
      vertex 34.1 27 1.6
    endloop
  endfacet
  facet normal 1 0 0
    outer loop
      vertex 34.1 27 10.55
      vertex 34.1 22 10.55
      vertex 34.1 27 1.6
    endloop
  endfacet
  facet normal 0 1 0
    outer loop
      vertex -24.5 27 1.6
      vertex -24.5 27 10.55
      vertex 34.1 27 1.6
    endloop
  endfacet
  facet normal 0 1 0
    outer loop
      vertex 34.1 27 1.6
      vertex -24.5 27 10.55
      vertex 34.1 27 10.55
    endloop
  endfacet
  facet normal 0 1 0
    outer loop
      vertex 38.875 -22.5155 1.6
      vertex 38.875 -22.5155 0
      vertex 37.125 -22.5155 1.6
    endloop
  endfacet
  facet normal 0 1 -0
    outer loop
      vertex 37.125 -22.5155 1.6
      vertex 38.875 -22.5155 0
      vertex 37.125 -22.5155 0
    endloop
  endfacet
  facet normal 0.866025 0.5 0
    outer loop
      vertex 36.25 -21 1.6
      vertex 37.125 -22.5155 1.6
      vertex 37.125 -22.5155 0
    endloop
  endfacet
  facet normal 0.866025 0.5 0
    outer loop
      vertex 36.25 -21 0
      vertex 36.25 -21 1.6
      vertex 37.125 -22.5155 0
    endloop
  endfacet
  facet normal -0.866025 0.5 0
    outer loop
      vertex 39.75 -21 1.6
      vertex 39.75 -21 0
      vertex 38.875 -22.5155 1.6
    endloop
  endfacet
  facet normal -0.866025 0.5 0
    outer loop
      vertex 38.875 -22.5155 1.6
      vertex 39.75 -21 0
      vertex 38.875 -22.5155 0
    endloop
  endfacet
  facet normal -0.866025 -0.5 0
    outer loop
      vertex 39.75 -21 1.6
      vertex 38.875 -19.4845 1.6
      vertex 39.75 -21 0
    endloop
  endfacet
  facet normal -0.866025 -0.5 0
    outer loop
      vertex 39.75 -21 0
      vertex 38.875 -19.4845 1.6
      vertex 38.875 -19.4845 0
    endloop
  endfacet
  facet normal 0 -1 0
    outer loop
      vertex 38.875 -19.4845 0
      vertex 38.875 -19.4845 1.6
      vertex 37.125 -19.4845 1.6
    endloop
  endfacet
  facet normal -0 -1 -0
    outer loop
      vertex 37.125 -19.4845 0
      vertex 38.875 -19.4845 0
      vertex 37.125 -19.4845 1.6
    endloop
  endfacet
  facet normal 0.866025 -0.5 0
    outer loop
      vertex 37.125 -19.4845 0
      vertex 37.125 -19.4845 1.6
      vertex 36.25 -21 1.6
    endloop
  endfacet
  facet normal 0.866025 -0.5 0
    outer loop
      vertex 36.25 -21 0
      vertex 37.125 -19.4845 0
      vertex 36.25 -21 1.6
    endloop
  endfacet
  facet normal 0 1 0
    outer loop
      vertex 38.875 19.4845 1.6
      vertex 38.875 19.4845 0
      vertex 37.125 19.4845 1.6
    endloop
  endfacet
  facet normal 0 1 -0
    outer loop
      vertex 37.125 19.4845 1.6
      vertex 38.875 19.4845 0
      vertex 37.125 19.4845 0
    endloop
  endfacet
  facet normal 0.866025 0.5 0
    outer loop
      vertex 36.25 21 1.6
      vertex 37.125 19.4845 1.6
      vertex 37.125 19.4845 0
    endloop
  endfacet
  facet normal 0.866025 0.5 0
    outer loop
      vertex 36.25 21 0
      vertex 36.25 21 1.6
      vertex 37.125 19.4845 0
    endloop
  endfacet
  facet normal -0.866025 0.5 0
    outer loop
      vertex 39.75 21 1.6
      vertex 39.75 21 0
      vertex 38.875 19.4845 1.6
    endloop
  endfacet
  facet normal -0.866025 0.5 0
    outer loop
      vertex 38.875 19.4845 1.6
      vertex 39.75 21 0
      vertex 38.875 19.4845 0
    endloop
  endfacet
  facet normal -0.866025 -0.5 0
    outer loop
      vertex 39.75 21 1.6
      vertex 38.875 22.5155 1.6
      vertex 39.75 21 0
    endloop
  endfacet
  facet normal -0.866025 -0.5 0
    outer loop
      vertex 39.75 21 0
      vertex 38.875 22.5155 1.6
      vertex 38.875 22.5155 0
    endloop
  endfacet
  facet normal 0 -1 0
    outer loop
      vertex 38.875 22.5155 0
      vertex 38.875 22.5155 1.6
      vertex 37.125 22.5155 1.6
    endloop
  endfacet
  facet normal -0 -1 -0
    outer loop
      vertex 37.125 22.5155 0
      vertex 38.875 22.5155 0
      vertex 37.125 22.5155 1.6
    endloop
  endfacet
  facet normal 0.866025 -0.5 0
    outer loop
      vertex 37.125 22.5155 0
      vertex 37.125 22.5155 1.6
      vertex 36.25 21 1.6
    endloop
  endfacet
  facet normal 0.866025 -0.5 0
    outer loop
      vertex 36.25 21 0
      vertex 37.125 22.5155 0
      vertex 36.25 21 1.6
    endloop
  endfacet
  facet normal -0 -0 -1
    outer loop
      vertex -43.5 -16 0
      vertex -43.5 16 0
      vertex -43.2487 -18.391 0
    endloop
  endfacet
  facet normal 0 0 -1
    outer loop
      vertex -43.2487 -18.391 0
      vertex -43.5 16 0
      vertex -43.2487 18.391 0
    endloop
  endfacet
  facet normal 0 -0 -1
    outer loop
      vertex -43.2487 -18.391 0
      vertex -43.2487 18.391 0
      vertex -42.5058 20.6775 0
    endloop
  endfacet
  facet normal 0 0 -1
    outer loop
      vertex -43.2487 -18.391 0
      vertex -42.5058 20.6775 0
      vertex -41.3037 22.7595 0
    endloop
  endfacet
  facet normal 0 0 -1
    outer loop
      vertex -43.2487 -18.391 0
      vertex -41.3037 22.7595 0
      vertex -39.695 24.5462 0
    endloop
  endfacet
  facet normal 0 0 -1
    outer loop
      vertex -43.2487 -18.391 0
      vertex -39.695 24.5462 0
      vertex -37.75 25.9593 0
    endloop
  endfacet
  facet normal 0 0 -1
    outer loop
      vertex -43.2487 -18.391 0
      vertex -37.75 25.9593 0
      vertex -35.5537 26.9371 0
    endloop
  endfacet
  facet normal 0 0 -1
    outer loop
      vertex -43.2487 -18.391 0
      vertex -35.5537 26.9371 0
      vertex -33.2021 27.437 0
    endloop
  endfacet
  facet normal 0 -0 -1
    outer loop
      vertex -27.125 25.5155 0
      vertex -33.2021 27.437 0
      vertex 33.2021 27.437 0
    endloop
  endfacet
  facet normal 0 0 -1
    outer loop
      vertex -43.2487 -18.391 0
      vertex 33.2021 27.437 0
      vertex 35.5537 26.9371 0
    endloop
  endfacet
  facet normal 0 0 -1
    outer loop
      vertex -43.2487 -18.391 0
      vertex 35.5537 26.9371 0
      vertex 37.75 25.9593 0
    endloop
  endfacet
  facet normal 0 0 -1
    outer loop
      vertex -43.2487 -18.391 0
      vertex 37.75 25.9593 0
      vertex 39.695 24.5462 0
    endloop
  endfacet
  facet normal 0 0 -1
    outer loop
      vertex 38.875 22.5155 0
      vertex 39.695 24.5462 0
      vertex 41.3037 22.7595 0
    endloop
  endfacet
  facet normal -0 0 -1
    outer loop
      vertex 39.75 21 0
      vertex 41.3037 22.7595 0
      vertex 42.5058 20.6775 0
    endloop
  endfacet
  facet normal 0 0 -1
    outer loop
      vertex -43.2487 -18.391 0
      vertex 42.5058 20.6775 0
      vertex 43.2487 18.391 0
    endloop
  endfacet
  facet normal 0 0 -1
    outer loop
      vertex -43.2487 -18.391 0
      vertex 43.2487 18.391 0
      vertex 43.5 16 0
    endloop
  endfacet
  facet normal 0 0 -1
    outer loop
      vertex -43.2487 -18.391 0
      vertex 43.5 16 0
      vertex 43.5 -16 0
    endloop
  endfacet
  facet normal -0 0 -1
    outer loop
      vertex -43.2487 -18.391 0
      vertex 43.5 -16 0
      vertex 43.2487 -18.391 0
    endloop
  endfacet
  facet normal -0 0 -1
    outer loop
      vertex 38.875 -19.4845 0
      vertex 43.2487 -18.391 0
      vertex 42.5058 -20.6775 0
    endloop
  endfacet
  facet normal -0 0 -1
    outer loop
      vertex 39.75 -21 0
      vertex 42.5058 -20.6775 0
      vertex 41.3037 -22.7595 0
    endloop
  endfacet
  facet normal 0 0 -1
    outer loop
      vertex -43.2487 -18.391 0
      vertex 41.3037 -22.7595 0
      vertex 39.695 -24.5462 0
    endloop
  endfacet
  facet normal 0 0 -1
    outer loop
      vertex -43.2487 -18.391 0
      vertex 39.695 -24.5462 0
      vertex 37.75 -25.9593 0
    endloop
  endfacet
  facet normal 0 0 -1
    outer loop
      vertex -43.2487 -18.391 0
      vertex 37.75 -25.9593 0
      vertex 35.5537 -26.9371 0
    endloop
  endfacet
  facet normal 0 0 -1
    outer loop
      vertex -43.2487 -18.391 0
      vertex 35.5537 -26.9371 0
      vertex 33.2021 -27.437 0
    endloop
  endfacet
  facet normal 0 0 -1
    outer loop
      vertex -28.875 -25.5155 0
      vertex 33.2021 -27.437 0
      vertex -33.2021 -27.437 0
    endloop
  endfacet
  facet normal 0 0 -1
    outer loop
      vertex -43.2487 -18.391 0
      vertex -33.2021 -27.437 0
      vertex -35.5537 -26.9371 0
    endloop
  endfacet
  facet normal 0 0 -1
    outer loop
      vertex -43.2487 -18.391 0
      vertex -35.5537 -26.9371 0
      vertex -37.75 -25.9593 0
    endloop
  endfacet
  facet normal 0 0 -1
    outer loop
      vertex -43.2487 -18.391 0
      vertex -37.75 -25.9593 0
      vertex -39.695 -24.5462 0
    endloop
  endfacet
  facet normal 0 0 -1
    outer loop
      vertex -43.2487 -18.391 0
      vertex -39.695 -24.5462 0
      vertex -41.3037 -22.7595 0
    endloop
  endfacet
  facet normal 0 0 -1
    outer loop
      vertex -43.2487 -18.391 0
      vertex -41.3037 -22.7595 0
      vertex -42.5058 -20.6775 0
    endloop
  endfacet
  facet normal -0 0 -1
    outer loop
      vertex -26.25 24 0
      vertex 33.2021 27.437 0
      vertex -27.125 22.4845 0
    endloop
  endfacet
  facet normal 0 0 -1
    outer loop
      vertex -43.2487 -18.391 0
      vertex -29.75 -24 0
      vertex -33.2021 -27.437 0
    endloop
  endfacet
  facet normal 0 0 -1
    outer loop
      vertex -27.125 -25.5155 0
      vertex 33.2021 -27.437 0
      vertex -28.875 -25.5155 0
    endloop
  endfacet
  facet normal 0 0 -1
    outer loop
      vertex -29.75 -24 0
      vertex -28.875 -25.5155 0
      vertex -33.2021 -27.437 0
    endloop
  endfacet
  facet normal 0 0 -1
    outer loop
      vertex -27.125 -22.4845 0
      vertex 33.2021 -27.437 0
      vertex -26.25 -24 0
    endloop
  endfacet
  facet normal 0 0 -1
    outer loop
      vertex -26.25 -24 0
      vertex 33.2021 -27.437 0
      vertex -27.125 -25.5155 0
    endloop
  endfacet
  facet normal 0 0 -1
    outer loop
      vertex -43.2487 -18.391 0
      vertex 33.2021 -27.437 0
      vertex -27.125 -22.4845 0
    endloop
  endfacet
  facet normal 0 0 -1
    outer loop
      vertex -43.2487 -18.391 0
      vertex -27.125 -22.4845 0
      vertex -28.875 -22.4845 0
    endloop
  endfacet
  facet normal 0 0 -1
    outer loop
      vertex -43.2487 -18.391 0
      vertex -33.2021 27.437 0
      vertex -29.75 24 0
    endloop
  endfacet
  facet normal 0 0 -1
    outer loop
      vertex -43.2487 -18.391 0
      vertex -29.75 24 0
      vertex -28.875 22.4845 0
    endloop
  endfacet
  facet normal 0 0 -1
    outer loop
      vertex -43.2487 -18.391 0
      vertex -28.875 22.4845 0
      vertex -27.125 22.4845 0
    endloop
  endfacet
  facet normal 0 0 -1
    outer loop
      vertex -43.2487 -18.391 0
      vertex -27.125 22.4845 0
      vertex 33.2021 27.437 0
    endloop
  endfacet
  facet normal -0 0 -1
    outer loop
      vertex -27.125 25.5155 0
      vertex 33.2021 27.437 0
      vertex -26.25 24 0
    endloop
  endfacet
  facet normal -0 -0 -1
    outer loop
      vertex -28.875 25.5155 0
      vertex -33.2021 27.437 0
      vertex -27.125 25.5155 0
    endloop
  endfacet
  facet normal 0 -0 -1
    outer loop
      vertex 36.25 -21 0
      vertex -43.2487 -18.391 0
      vertex 37.125 -19.4845 0
    endloop
  endfacet
  facet normal 0 -0 -1
    outer loop
      vertex -29.75 24 0
      vertex -33.2021 27.437 0
      vertex -28.875 25.5155 0
    endloop
  endfacet
  facet normal 0 0 -1
    outer loop
      vertex 39.75 -21 0
      vertex 41.3037 -22.7595 0
      vertex 38.875 -22.5155 0
    endloop
  endfacet
  facet normal 0 0 -1
    outer loop
      vertex -43.2487 -18.391 0
      vertex 36.25 -21 0
      vertex 37.125 -22.5155 0
    endloop
  endfacet
  facet normal 0 0 -1
    outer loop
      vertex -43.2487 -18.391 0
      vertex 37.125 -22.5155 0
      vertex 41.3037 -22.7595 0
    endloop
  endfacet
  facet normal 0 0 -1
    outer loop
      vertex 37.125 -22.5155 0
      vertex 38.875 -22.5155 0
      vertex 41.3037 -22.7595 0
    endloop
  endfacet
  facet normal 0 0 -1
    outer loop
      vertex 38.875 -19.4845 0
      vertex 42.5058 -20.6775 0
      vertex 39.75 -21 0
    endloop
  endfacet
  facet normal 0 0 -1
    outer loop
      vertex -43.2487 -18.391 0
      vertex 43.2487 -18.391 0
      vertex 38.875 -19.4845 0
    endloop
  endfacet
  facet normal 0 0 -1
    outer loop
      vertex 37.125 19.4845 0
      vertex -43.2487 -18.391 0
      vertex 36.25 21 0
    endloop
  endfacet
  facet normal 0 0 -1
    outer loop
      vertex -43.2487 -18.391 0
      vertex 38.875 -19.4845 0
      vertex 37.125 -19.4845 0
    endloop
  endfacet
  facet normal 0 0 -1
    outer loop
      vertex 39.75 21 0
      vertex 42.5058 20.6775 0
      vertex 38.875 19.4845 0
    endloop
  endfacet
  facet normal 0 0 -1
    outer loop
      vertex -43.2487 -18.391 0
      vertex 37.125 19.4845 0
      vertex 38.875 19.4845 0
    endloop
  endfacet
  facet normal 0 0 -1
    outer loop
      vertex -43.2487 -18.391 0
      vertex 38.875 19.4845 0
      vertex 42.5058 20.6775 0
    endloop
  endfacet
  facet normal -0 0 -1
    outer loop
      vertex 38.875 22.5155 0
      vertex 41.3037 22.7595 0
      vertex 39.75 21 0
    endloop
  endfacet
  facet normal -0 0 -1
    outer loop
      vertex 37.125 22.5155 0
      vertex 39.695 24.5462 0
      vertex 38.875 22.5155 0
    endloop
  endfacet
  facet normal 0 0 -1
    outer loop
      vertex -43.2487 -18.391 0
      vertex 39.695 24.5462 0
      vertex 37.125 22.5155 0
    endloop
  endfacet
  facet normal 0 0 -1
    outer loop
      vertex -43.2487 -18.391 0
      vertex 37.125 22.5155 0
      vertex 36.25 21 0
    endloop
  endfacet
  facet normal 0 -0 -1
    outer loop
      vertex -29.75 -24 0
      vertex -43.2487 -18.391 0
      vertex -28.875 -22.4845 0
    endloop
  endfacet
  facet normal -0 0 -1
    outer loop
      vertex 43.3949 -17 1.55
      vertex 43.5 -16 1.55
      vertex 44 -17 1.55
    endloop
  endfacet
  facet normal 0 0 -1
    outer loop
      vertex 44 -17 1.55
      vertex 43.5 -16 1.55
      vertex 43.5 -4 1.55
    endloop
  endfacet
  facet normal 0 0 -1
    outer loop
      vertex 44 -17 1.55
      vertex 43.5 -4 1.55
      vertex 44 -4 1.55
    endloop
  endfacet
  facet normal 1 0 -0
    outer loop
      vertex 44 -17 8.55
      vertex 44 -17 1.55
      vertex 44 -4 1.55
    endloop
  endfacet
  facet normal 1 0 0
    outer loop
      vertex 44 -4 8.55
      vertex 44 -17 8.55
      vertex 44 -4 1.55
    endloop
  endfacet
  facet normal 0 -0 1
    outer loop
      vertex 30.5 -4 8.55
      vertex 30.5 -17 8.55
      vertex 44 -17 8.55
    endloop
  endfacet
  facet normal 0 0 1
    outer loop
      vertex 44 -4 8.55
      vertex 30.5 -4 8.55
      vertex 44 -17 8.55
    endloop
  endfacet
  facet normal 0 -0 1
    outer loop
      vertex -24.5 -22 10.55
      vertex -24.5 -27 10.55
      vertex 34.1 -27 10.55
    endloop
  endfacet
  facet normal 0 0 1
    outer loop
      vertex 34.1 -22 10.55
      vertex -24.5 -22 10.55
      vertex 34.1 -27 10.55
    endloop
  endfacet
  facet normal 0 -0 1
    outer loop
      vertex -24.5 27 10.55
      vertex -24.5 22 10.55
      vertex 34.1 22 10.55
    endloop
  endfacet
  facet normal 0 0 1
    outer loop
      vertex 34.1 27 10.55
      vertex -24.5 27 10.55
      vertex 34.1 22 10.55
    endloop
  endfacet
endsolid OpenSCAD_Model
