solid OpenSCAD_Model
  facet normal -1 -0 -0
    outer loop
      vertex -41.3582 -21.4861 0
      vertex -41.3582 -21.4861 1.6
      vertex -41.3582 21.4861 0
    endloop
  endfacet
  facet normal -1 0 0
    outer loop
      vertex -41.3582 21.4861 0
      vertex -41.3582 -21.4861 1.6
      vertex -41.3582 21.4861 1.6
    endloop
  endfacet
  facet normal -0.841254 -0.54064 -0
    outer loop
      vertex -41.3582 -21.4861 0
      vertex -40.292 -23.1451 0
      vertex -41.3582 -21.4861 1.6
    endloop
  endfacet
  facet normal -0.841254 -0.54064 0
    outer loop
      vertex -41.3582 -21.4861 1.6
      vertex -40.292 -23.1451 0
      vertex -40.292 -23.1451 1.6
    endloop
  endfacet
  facet normal -0 -0 -1
    outer loop
      vertex -41.3582 -21.4861 0
      vertex -41.3582 21.4861 0
      vertex -40.292 -23.1451 0
    endloop
  endfacet
  facet normal 0 0 -1
    outer loop
      vertex -40.292 -23.1451 0
      vertex -41.3582 21.4861 0
      vertex -40.292 23.1451 0
    endloop
  endfacet
  facet normal 0 -0 -1
    outer loop
      vertex -39.2135 21.3817 0
      vertex -40.292 23.1451 0
      vertex -38.4981 23.9644 0
    endloop
  endfacet
  facet normal 0 -0 -1
    outer loop
      vertex -36.5 20.5 0
      vertex -38.4981 23.9644 0
      vertex 37.5019 23.9644 0
    endloop
  endfacet
  facet normal 0 0 -1
    outer loop
      vertex 38.4635 21.9266 0
      vertex 39.454 23.6837 0
      vertex 40.9444 22.3922 0
    endloop
  endfacet
  facet normal -0 0 -1
    outer loop
      vertex 39.5 20.5 0
      vertex 40.9444 22.3922 0
      vertex 41.5 20.5 0
    endloop
  endfacet
  facet normal -0 0 -1
    outer loop
      vertex 38.4635 -19.0734 0
      vertex 41.5 20.5 0
      vertex 41.5 -20.5 0
    endloop
  endfacet
  facet normal -0 0 -1
    outer loop
      vertex -40.292 -23.1451 0
      vertex 40.9444 -22.3922 0
      vertex 39.454 -23.6837 0
    endloop
  endfacet
  facet normal 0 0 -1
    outer loop
      vertex -40.292 -23.1451 0
      vertex 39.454 -23.6837 0
      vertex 37.5019 -23.9644 0
    endloop
  endfacet
  facet normal 0 0 -1
    outer loop
      vertex -40.292 -23.1451 0
      vertex 37.5019 -23.9644 0
      vertex -38.4981 -23.9644 0
    endloop
  endfacet
  facet normal 0 -0 -1
    outer loop
      vertex -37.5365 -19.0734 0
      vertex -39.2135 -19.6183 0
      vertex 37.5019 23.9644 0
    endloop
  endfacet
  facet normal 0 0 -1
    outer loop
      vertex -40.292 -23.1451 0
      vertex -39.2135 -19.6183 0
      vertex -39.2135 -21.3817 0
    endloop
  endfacet
  facet normal 0 0 -1
    outer loop
      vertex 36.7865 -21.3817 0
      vertex -40.292 -23.1451 0
      vertex -37.5365 -21.9266 0
    endloop
  endfacet
  facet normal -0 0 -1
    outer loop
      vertex -37.5365 -19.0734 0
      vertex 37.5019 23.9644 0
      vertex -36.5 -20.5 0
    endloop
  endfacet
  facet normal 0 0 -1
    outer loop
      vertex 39.5 -20.5 0
      vertex 40.9444 -22.3922 0
      vertex 38.4635 -21.9266 0
    endloop
  endfacet
  facet normal 0 0 -1
    outer loop
      vertex -39.2135 21.3817 0
      vertex -38.4981 23.9644 0
      vertex -37.5365 21.9266 0
    endloop
  endfacet
  facet normal 0 -0 -1
    outer loop
      vertex -40.292 -23.1451 0
      vertex -40.292 23.1451 0
      vertex -39.2135 21.3817 0
    endloop
  endfacet
  facet normal 0 0 -1
    outer loop
      vertex -37.5365 19.0734 0
      vertex -39.2135 -19.6183 0
      vertex -40.292 -23.1451 0
    endloop
  endfacet
  facet normal 0 0 -1
    outer loop
      vertex -40.292 -23.1451 0
      vertex -39.2135 21.3817 0
      vertex -39.2135 19.6183 0
    endloop
  endfacet
  facet normal 0 0 -1
    outer loop
      vertex -37.5365 19.0734 0
      vertex -40.292 -23.1451 0
      vertex -39.2135 19.6183 0
    endloop
  endfacet
  facet normal 0 0 -1
    outer loop
      vertex -39.2135 -19.6183 0
      vertex -37.5365 19.0734 0
      vertex 37.5019 23.9644 0
    endloop
  endfacet
  facet normal -0 -0 -1
    outer loop
      vertex -37.5365 21.9266 0
      vertex -38.4981 23.9644 0
      vertex -36.5 20.5 0
    endloop
  endfacet
  facet normal 0 0 -1
    outer loop
      vertex -37.5365 19.0734 0
      vertex -36.5 20.5 0
      vertex 37.5019 23.9644 0
    endloop
  endfacet
  facet normal 0 0 -1
    outer loop
      vertex -37.5365 -21.9266 0
      vertex 41.5 20.5 0
      vertex 36.7865 -19.6183 0
    endloop
  endfacet
  facet normal 0 0 -1
    outer loop
      vertex 39.5 -20.5 0
      vertex 41.5 -20.5 0
      vertex 40.9444 -22.3922 0
    endloop
  endfacet
  facet normal 0 0 -1
    outer loop
      vertex -40.292 -23.1451 0
      vertex 36.7865 -21.3817 0
      vertex 38.4635 -21.9266 0
    endloop
  endfacet
  facet normal 0 0 -1
    outer loop
      vertex -40.292 -23.1451 0
      vertex 38.4635 -21.9266 0
      vertex 40.9444 -22.3922 0
    endloop
  endfacet
  facet normal 0 0 -1
    outer loop
      vertex 36.7865 -19.6183 0
      vertex 41.5 20.5 0
      vertex 38.4635 -19.0734 0
    endloop
  endfacet
  facet normal 0 0 -1
    outer loop
      vertex 36.7865 19.6183 0
      vertex -36.5 -20.5 0
      vertex 36.7865 21.3817 0
    endloop
  endfacet
  facet normal 0 0 -1
    outer loop
      vertex 38.4635 -19.0734 0
      vertex 41.5 -20.5 0
      vertex 39.5 -20.5 0
    endloop
  endfacet
  facet normal 0 0 -1
    outer loop
      vertex 36.7865 -21.3817 0
      vertex -37.5365 -21.9266 0
      vertex 36.7865 -19.6183 0
    endloop
  endfacet
  facet normal -0 0 -1
    outer loop
      vertex 38.4635 21.9266 0
      vertex 40.9444 22.3922 0
      vertex 39.5 20.5 0
    endloop
  endfacet
  facet normal 0 0 -1
    outer loop
      vertex 36.7865 21.3817 0
      vertex 39.454 23.6837 0
      vertex 38.4635 21.9266 0
    endloop
  endfacet
  facet normal 0 0 -1
    outer loop
      vertex -37.5365 -21.9266 0
      vertex -40.292 -23.1451 0
      vertex -39.2135 -21.3817 0
    endloop
  endfacet
  facet normal 0 0 -1
    outer loop
      vertex -36.5 -20.5 0
      vertex 37.5019 23.9644 0
      vertex 39.454 23.6837 0
    endloop
  endfacet
  facet normal 0 0 -1
    outer loop
      vertex -36.5 -20.5 0
      vertex 39.454 23.6837 0
      vertex 36.7865 21.3817 0
    endloop
  endfacet
  facet normal 0 0 -1
    outer loop
      vertex 39.5 20.5 0
      vertex 41.5 20.5 0
      vertex 38.4635 19.0734 0
    endloop
  endfacet
  facet normal 0 0 -1
    outer loop
      vertex -36.5 -20.5 0
      vertex 36.7865 19.6183 0
      vertex 38.4635 19.0734 0
    endloop
  endfacet
  facet normal 0 0 -1
    outer loop
      vertex -36.5 -20.5 0
      vertex 38.4635 19.0734 0
      vertex 41.5 20.5 0
    endloop
  endfacet
  facet normal -0 0 -1
    outer loop
      vertex -36.5 -20.5 0
      vertex 41.5 20.5 0
      vertex -37.5365 -21.9266 0
    endloop
  endfacet
  facet normal -0.841254 0.54064 0
    outer loop
      vertex -41.3582 21.4861 0
      vertex -41.3582 21.4861 1.6
      vertex -40.292 23.1451 0
    endloop
  endfacet
  facet normal -0.841254 0.54064 0
    outer loop
      vertex -40.292 23.1451 0
      vertex -41.3582 21.4861 1.6
      vertex -40.292 23.1451 1.6
    endloop
  endfacet
  facet normal 0 -0 1
    outer loop
      vertex -41.3582 21.4861 1.6
      vertex -41.3582 -21.4861 1.6
      vertex -40.292 -23.1451 1.6
    endloop
  endfacet
  facet normal -0 0 1
    outer loop
      vertex -39.2135 -21.3817 1.6
      vertex -41.3582 21.4861 1.6
      vertex -40.292 -23.1451 1.6
    endloop
  endfacet
  facet normal -0 0 1
    outer loop
      vertex -33.5 -10 1.6
      vertex -41.3582 21.4861 1.6
      vertex -33.5 -23.9644 1.6
    endloop
  endfacet
  facet normal -0 0 1
    outer loop
      vertex -33.5 3 1.6
      vertex -41.3582 21.4861 1.6
      vertex -33.5 -10 1.6
    endloop
  endfacet
  facet normal -0 0 1
    outer loop
      vertex -14.5 -23.9644 1.6
      vertex -19.5 -10 1.6
      vertex -19.5 -23.9644 1.6
    endloop
  endfacet
  facet normal 0 0 1
    outer loop
      vertex -14.5 -8 1.6
      vertex -19.5 -10 1.6
      vertex -14.5 -23.9644 1.6
    endloop
  endfacet
  facet normal 0 0 1
    outer loop
      vertex 38.4635 21.9266 1.6
      vertex 39.5 20.5 1.6
      vertex 41.5 20.5 1.6
    endloop
  endfacet
  facet normal 0 0 1
    outer loop
      vertex -33.5 3 1.6
      vertex -37.5365 19.0734 1.6
      vertex -39.2135 19.6183 1.6
    endloop
  endfacet
  facet normal -0 0 1
    outer loop
      vertex -6 -17 1.6
      vertex -7.5 -8 1.6
      vertex -7.5 -23.9644 1.6
    endloop
  endfacet
  facet normal 0 0 1
    outer loop
      vertex -17.5 3 1.6
      vertex -14.5 -8 1.6
      vertex -7.5 -8 1.6
    endloop
  endfacet
  facet normal 0 0 1
    outer loop
      vertex -33.5 3 1.6
      vertex -39.2135 19.6183 1.6
      vertex -41.3582 21.4861 1.6
    endloop
  endfacet
  facet normal 0 0 1
    outer loop
      vertex -36.5 20.5 1.6
      vertex -33.5 23.9644 1.6
      vertex -37.5365 21.9266 1.6
    endloop
  endfacet
  facet normal 0 0 1
    outer loop
      vertex -6 -17 1.6
      vertex -6 23.9644 1.6
      vertex -7.5 -8 1.6
    endloop
  endfacet
  facet normal 0 -0 1
    outer loop
      vertex 39.5 -20.5 1.6
      vertex 38.4635 -21.9266 1.6
      vertex 40.9444 -22.3922 1.6
    endloop
  endfacet
  facet normal 0 0 1
    outer loop
      vertex -39.2135 21.3817 1.6
      vertex -37.5365 21.9266 1.6
      vertex -41.3582 21.4861 1.6
    endloop
  endfacet
  facet normal -0 0 1
    outer loop
      vertex 37.5019 -23.9644 1.6
      vertex -6 -17 1.6
      vertex -7.5 -23.9644 1.6
    endloop
  endfacet
  facet normal 0 -0 1
    outer loop
      vertex -17.5 3 1.6
      vertex -19.5 -10 1.6
      vertex -14.5 -8 1.6
    endloop
  endfacet
  facet normal -0 0 1
    outer loop
      vertex -19.5 -10 1.6
      vertex -33.5 3 1.6
      vertex -33.5 -10 1.6
    endloop
  endfacet
  facet normal 0 -0 1
    outer loop
      vertex -38.4981 23.9644 1.6
      vertex -41.3582 21.4861 1.6
      vertex -33.5 23.9644 1.6
    endloop
  endfacet
  facet normal 0 -0 1
    outer loop
      vertex -40.292 23.1451 1.6
      vertex -41.3582 21.4861 1.6
      vertex -38.4981 23.9644 1.6
    endloop
  endfacet
  facet normal 0 0 1
    outer loop
      vertex -38.4981 -23.9644 1.6
      vertex -39.2135 -21.3817 1.6
      vertex -40.292 -23.1451 1.6
    endloop
  endfacet
  facet normal -0 0 1
    outer loop
      vertex -39.2135 -19.6183 1.6
      vertex -41.3582 21.4861 1.6
      vertex -39.2135 -21.3817 1.6
    endloop
  endfacet
  facet normal 0 0 1
    outer loop
      vertex -39.2135 19.6183 1.6
      vertex -39.2135 21.3817 1.6
      vertex -41.3582 21.4861 1.6
    endloop
  endfacet
  facet normal 0 0 1
    outer loop
      vertex 36.7865 -19.6183 1.6
      vertex 38.4635 -19.0734 1.6
      vertex 33 -17 1.6
    endloop
  endfacet
  facet normal 0 0 1
    outer loop
      vertex -33.5 -23.9644 1.6
      vertex -41.3582 21.4861 1.6
      vertex -37.5365 -19.0734 1.6
    endloop
  endfacet
  facet normal -0 0 1
    outer loop
      vertex -33.5 -23.9644 1.6
      vertex -36.5 -20.5 1.6
      vertex -38.4981 -23.9644 1.6
    endloop
  endfacet
  facet normal 0 0 1
    outer loop
      vertex -33.5 -23.9644 1.6
      vertex -37.5365 -19.0734 1.6
      vertex -36.5 -20.5 1.6
    endloop
  endfacet
  facet normal 0 0 1
    outer loop
      vertex -36.5 -20.5 1.6
      vertex -37.5365 -21.9266 1.6
      vertex -38.4981 -23.9644 1.6
    endloop
  endfacet
  facet normal 0 0 1
    outer loop
      vertex -33.5 3 1.6
      vertex -33.5 23.9644 1.6
      vertex -36.5 20.5 1.6
    endloop
  endfacet
  facet normal 0 -0 1
    outer loop
      vertex 33 -17 1.6
      vertex -6 -17 1.6
      vertex 37.5019 -23.9644 1.6
    endloop
  endfacet
  facet normal 0 0 1
    outer loop
      vertex -39.2135 -19.6183 1.6
      vertex -37.5365 -19.0734 1.6
      vertex -41.3582 21.4861 1.6
    endloop
  endfacet
  facet normal 0 0 1
    outer loop
      vertex -33.5 23.9644 1.6
      vertex -41.3582 21.4861 1.6
      vertex -37.5365 21.9266 1.6
    endloop
  endfacet
  facet normal 0 0 1
    outer loop
      vertex 38.4635 21.9266 1.6
      vertex 41.5 20.5 1.6
      vertex 40.9444 22.3922 1.6
    endloop
  endfacet
  facet normal 0 0 1
    outer loop
      vertex 36.7865 -21.3817 1.6
      vertex 37.5019 -23.9644 1.6
      vertex 39.454 -23.6837 1.6
    endloop
  endfacet
  facet normal 0 0 1
    outer loop
      vertex 38.4635 -19.0734 1.6
      vertex 39.5 -20.5 1.6
      vertex 41.5 -20.5 1.6
    endloop
  endfacet
  facet normal -0 -0 1
    outer loop
      vertex 38.4635 -21.9266 1.6
      vertex 36.7865 -21.3817 1.6
      vertex 39.454 -23.6837 1.6
    endloop
  endfacet
  facet normal 0 0 1
    outer loop
      vertex -7.5 -8 1.6
      vertex -6 23.9644 1.6
      vertex -17.5 3 1.6
    endloop
  endfacet
  facet normal 0 0 1
    outer loop
      vertex 41.5 -20.5 1.6
      vertex 39.5 -20.5 1.6
      vertex 40.9444 -22.3922 1.6
    endloop
  endfacet
  facet normal -0 0 1
    outer loop
      vertex 40.9444 -22.3922 1.6
      vertex 38.4635 -21.9266 1.6
      vertex 39.454 -23.6837 1.6
    endloop
  endfacet
  facet normal -0 -0 1
    outer loop
      vertex 38.4635 19.0734 1.6
      vertex 36.7865 19.6183 1.6
      vertex 41.5 -20.5 1.6
    endloop
  endfacet
  facet normal 0 -0 1
    outer loop
      vertex 39.5 20.5 1.6
      vertex 38.4635 19.0734 1.6
      vertex 41.5 20.5 1.6
    endloop
  endfacet
  facet normal 0 0 1
    outer loop
      vertex 33 -17 1.6
      vertex 36.7865 -21.3817 1.6
      vertex 36.7865 -19.6183 1.6
    endloop
  endfacet
  facet normal 0 0 1
    outer loop
      vertex 33 -17 1.6
      vertex 37.5019 -23.9644 1.6
      vertex 36.7865 -21.3817 1.6
    endloop
  endfacet
  facet normal 0 0 1
    outer loop
      vertex 41.5 20.5 1.6
      vertex 38.4635 19.0734 1.6
      vertex 41.5 -20.5 1.6
    endloop
  endfacet
  facet normal 0 0 1
    outer loop
      vertex -33.5 3 1.6
      vertex -36.5 20.5 1.6
      vertex -37.5365 19.0734 1.6
    endloop
  endfacet
  facet normal 0 0 1
    outer loop
      vertex -17.5 3 1.6
      vertex -33.5 3 1.6
      vertex -19.5 -10 1.6
    endloop
  endfacet
  facet normal -0 0 1
    outer loop
      vertex -37.5365 -21.9266 1.6
      vertex -39.2135 -21.3817 1.6
      vertex -38.4981 -23.9644 1.6
    endloop
  endfacet
  facet normal 0 -0 1
    outer loop
      vertex -17.5 23.9644 1.6
      vertex -17.5 3 1.6
      vertex -6 23.9644 1.6
    endloop
  endfacet
  facet normal 0 0 1
    outer loop
      vertex 33 23.9644 1.6
      vertex 39.454 23.6837 1.6
      vertex 37.5019 23.9644 1.6
    endloop
  endfacet
  facet normal 0 0 1
    outer loop
      vertex 33 23.9644 1.6
      vertex 40.9444 22.3922 1.6
      vertex 39.454 23.6837 1.6
    endloop
  endfacet
  facet normal 0 0 1
    outer loop
      vertex 33 23.9644 1.6
      vertex 38.4635 21.9266 1.6
      vertex 40.9444 22.3922 1.6
    endloop
  endfacet
  facet normal 0 0 1
    outer loop
      vertex 33 23.9644 1.6
      vertex 36.7865 21.3817 1.6
      vertex 38.4635 21.9266 1.6
    endloop
  endfacet
  facet normal 0 0 1
    outer loop
      vertex 33 23.9644 1.6
      vertex 36.7865 19.6183 1.6
      vertex 36.7865 21.3817 1.6
    endloop
  endfacet
  facet normal 0 0 1
    outer loop
      vertex 33 23.9644 1.6
      vertex 41.5 -20.5 1.6
      vertex 36.7865 19.6183 1.6
    endloop
  endfacet
  facet normal 0 0 1
    outer loop
      vertex 33 23.9644 1.6
      vertex 38.4635 -19.0734 1.6
      vertex 41.5 -20.5 1.6
    endloop
  endfacet
  facet normal 0 -0 1
    outer loop
      vertex 33 23.9644 1.6
      vertex 33 -17 1.6
      vertex 38.4635 -19.0734 1.6
    endloop
  endfacet
  facet normal -0.415415 -0.909632 0
    outer loop
      vertex -40.292 -23.1451 1.6
      vertex -40.292 -23.1451 0
      vertex -38.4981 -23.9644 0
    endloop
  endfacet
  facet normal -0.415415 -0.909632 0
    outer loop
      vertex -38.4981 -23.9644 1.6
      vertex -40.292 -23.1451 1.6
      vertex -38.4981 -23.9644 0
    endloop
  endfacet
  facet normal 0 -1 0
    outer loop
      vertex -38.4981 -23.9644 1.6
      vertex -38.4981 -23.9644 0
      vertex 37.5019 -23.9644 0
    endloop
  endfacet
  facet normal 0 -1 0
    outer loop
      vertex -33.5 -23.9644 1.55
      vertex -38.4981 -23.9644 1.6
      vertex 37.5019 -23.9644 0
    endloop
  endfacet
  facet normal 0 -1 0
    outer loop
      vertex 37.5019 -23.9644 1.6
      vertex -7.5 -23.9644 1.6
      vertex 37.5019 -23.9644 0
    endloop
  endfacet
  facet normal 0 -1 0
    outer loop
      vertex -7.5 -23.9644 1.6
      vertex -7.5 -23.9644 1.55
      vertex 37.5019 -23.9644 0
    endloop
  endfacet
  facet normal 0 -1 0
    outer loop
      vertex -19.5 -23.9644 1.6
      vertex -19.5 -23.9644 1.55
      vertex -14.5 -23.9644 1.55
    endloop
  endfacet
  facet normal 0 -1 0
    outer loop
      vertex -7.5 -23.9644 1.55
      vertex -14.5 -23.9644 1.55
      vertex 37.5019 -23.9644 0
    endloop
  endfacet
  facet normal 0 -1 0
    outer loop
      vertex -14.5 -23.9644 1.55
      vertex -19.5 -23.9644 1.55
      vertex 37.5019 -23.9644 0
    endloop
  endfacet
  facet normal 0 -1 0
    outer loop
      vertex -19.5 -23.9644 1.55
      vertex -33.5 -23.9644 1.55
      vertex 37.5019 -23.9644 0
    endloop
  endfacet
  facet normal 0 -1 0
    outer loop
      vertex -33.5 -23.9644 1.55
      vertex -33.5 -23.9644 1.6
      vertex -38.4981 -23.9644 1.6
    endloop
  endfacet
  facet normal 0 -1 0
    outer loop
      vertex -14.5 -23.9644 1.55
      vertex -14.5 -23.9644 1.6
      vertex -19.5 -23.9644 1.6
    endloop
  endfacet
  facet normal 0.142315 -0.989821 0
    outer loop
      vertex 37.5019 -23.9644 1.6
      vertex 37.5019 -23.9644 0
      vertex 39.454 -23.6837 0
    endloop
  endfacet
  facet normal 0.142315 -0.989821 0
    outer loop
      vertex 39.454 -23.6837 1.6
      vertex 37.5019 -23.9644 1.6
      vertex 39.454 -23.6837 0
    endloop
  endfacet
  facet normal 0.654861 -0.755749 0
    outer loop
      vertex 39.454 -23.6837 1.6
      vertex 39.454 -23.6837 0
      vertex 40.9444 -22.3922 0
    endloop
  endfacet
  facet normal 0.654861 -0.755749 0
    outer loop
      vertex 40.9444 -22.3922 1.6
      vertex 39.454 -23.6837 1.6
      vertex 40.9444 -22.3922 0
    endloop
  endfacet
  facet normal 0.959493 -0.281733 0
    outer loop
      vertex 40.9444 -22.3922 1.6
      vertex 40.9444 -22.3922 0
      vertex 41.5 -20.5 0
    endloop
  endfacet
  facet normal 0.959493 -0.281733 0
    outer loop
      vertex 41.5 -20.5 1.6
      vertex 40.9444 -22.3922 1.6
      vertex 41.5 -20.5 0
    endloop
  endfacet
  facet normal 1 0 -0
    outer loop
      vertex 41.5 -20.5 1.6
      vertex 41.5 -20.5 0
      vertex 41.5 20.5 0
    endloop
  endfacet
  facet normal 1 0 0
    outer loop
      vertex 41.5 20.5 1.6
      vertex 41.5 -20.5 1.6
      vertex 41.5 20.5 0
    endloop
  endfacet
  facet normal 0.959493 0.281733 0
    outer loop
      vertex 41.5 20.5 0
      vertex 40.9444 22.3922 0
      vertex 40.9444 22.3922 1.6
    endloop
  endfacet
  facet normal 0.959493 0.281733 -0
    outer loop
      vertex 41.5 20.5 1.6
      vertex 41.5 20.5 0
      vertex 40.9444 22.3922 1.6
    endloop
  endfacet
  facet normal 0.654861 0.755749 0
    outer loop
      vertex 39.454 23.6837 0
      vertex 39.454 23.6837 1.6
      vertex 40.9444 22.3922 0
    endloop
  endfacet
  facet normal 0.654861 0.755749 0
    outer loop
      vertex 40.9444 22.3922 0
      vertex 39.454 23.6837 1.6
      vertex 40.9444 22.3922 1.6
    endloop
  endfacet
  facet normal 0.142315 0.989821 0
    outer loop
      vertex 37.5019 23.9644 0
      vertex 37.5019 23.9644 1.6
      vertex 39.454 23.6837 0
    endloop
  endfacet
  facet normal 0.142315 0.989821 0
    outer loop
      vertex 39.454 23.6837 0
      vertex 37.5019 23.9644 1.6
      vertex 39.454 23.6837 1.6
    endloop
  endfacet
  facet normal 0 1 0
    outer loop
      vertex -38.4981 23.9644 0
      vertex -38.4981 23.9644 1.6
      vertex 37.5019 23.9644 0
    endloop
  endfacet
  facet normal 0 1 0
    outer loop
      vertex -33.5 23.9644 1.55
      vertex -38.4981 23.9644 1.6
      vertex -33.5 23.9644 1.6
    endloop
  endfacet
  facet normal 0 1 0
    outer loop
      vertex 37.5019 23.9644 0
      vertex -38.4981 23.9644 1.6
      vertex -33.5 23.9644 1.55
    endloop
  endfacet
  facet normal 0 1 -0
    outer loop
      vertex 33 23.9644 1.55
      vertex 37.5019 23.9644 0
      vertex -6 23.9644 1.55
    endloop
  endfacet
  facet normal 0 1 0
    outer loop
      vertex 37.5019 23.9644 0
      vertex -17.5 23.9644 1.55
      vertex -17.5 23.9644 1.6
    endloop
  endfacet
  facet normal 0 1 0
    outer loop
      vertex -6 23.9644 1.55
      vertex -17.5 23.9644 1.6
      vertex -6 23.9644 1.6
    endloop
  endfacet
  facet normal 0 1 0
    outer loop
      vertex 37.5019 23.9644 0
      vertex -17.5 23.9644 1.6
      vertex -6 23.9644 1.55
    endloop
  endfacet
  facet normal 0 1 0
    outer loop
      vertex 37.5019 23.9644 0
      vertex 33 23.9644 1.55
      vertex 33 23.9644 1.6
    endloop
  endfacet
  facet normal 0 1 0
    outer loop
      vertex 37.5019 23.9644 0
      vertex 33 23.9644 1.6
      vertex 37.5019 23.9644 1.6
    endloop
  endfacet
  facet normal 0 1 -0
    outer loop
      vertex -17.5 23.9644 1.55
      vertex 37.5019 23.9644 0
      vertex -33.5 23.9644 1.55
    endloop
  endfacet
  facet normal -0.415415 0.909632 0
    outer loop
      vertex -40.292 23.1451 0
      vertex -40.292 23.1451 1.6
      vertex -38.4981 23.9644 0
    endloop
  endfacet
  facet normal -0.415415 0.909632 0
    outer loop
      vertex -38.4981 23.9644 0
      vertex -40.292 23.1451 1.6
      vertex -38.4981 23.9644 1.6
    endloop
  endfacet
  facet normal 0.309017 -0.951056 0
    outer loop
      vertex -37.5365 -19.0734 0
      vertex -37.5365 -19.0734 1.6
      vertex -39.2135 -19.6183 1.6
    endloop
  endfacet
  facet normal 0.309017 -0.951056 0
    outer loop
      vertex -39.2135 -19.6183 0
      vertex -37.5365 -19.0734 0
      vertex -39.2135 -19.6183 1.6
    endloop
  endfacet
  facet normal 1 0 0
    outer loop
      vertex -39.2135 -19.6183 0
      vertex -39.2135 -19.6183 1.6
      vertex -39.2135 -21.3817 1.6
    endloop
  endfacet
  facet normal 1 0 0
    outer loop
      vertex -39.2135 -21.3817 0
      vertex -39.2135 -19.6183 0
      vertex -39.2135 -21.3817 1.6
    endloop
  endfacet
  facet normal -0.809017 -0.587785 0
    outer loop
      vertex -36.5 -20.5 1.6
      vertex -37.5365 -19.0734 1.6
      vertex -36.5 -20.5 0
    endloop
  endfacet
  facet normal -0.809017 -0.587785 0
    outer loop
      vertex -36.5 -20.5 0
      vertex -37.5365 -19.0734 1.6
      vertex -37.5365 -19.0734 0
    endloop
  endfacet
  facet normal -0.809017 0.587785 0
    outer loop
      vertex -36.5 -20.5 1.6
      vertex -36.5 -20.5 0
      vertex -37.5365 -21.9266 1.6
    endloop
  endfacet
  facet normal -0.809017 0.587785 0
    outer loop
      vertex -37.5365 -21.9266 1.6
      vertex -36.5 -20.5 0
      vertex -37.5365 -21.9266 0
    endloop
  endfacet
  facet normal 0.309017 0.951056 -0
    outer loop
      vertex -37.5365 -21.9266 1.6
      vertex -37.5365 -21.9266 0
      vertex -39.2135 -21.3817 1.6
    endloop
  endfacet
  facet normal 0.309017 0.951056 -0
    outer loop
      vertex -39.2135 -21.3817 1.6
      vertex -37.5365 -21.9266 0
      vertex -39.2135 -21.3817 0
    endloop
  endfacet
  facet normal 1 0 0
    outer loop
      vertex -39.2135 21.3817 0
      vertex -39.2135 21.3817 1.6
      vertex -39.2135 19.6183 1.6
    endloop
  endfacet
  facet normal 1 0 0
    outer loop
      vertex -39.2135 19.6183 0
      vertex -39.2135 21.3817 0
      vertex -39.2135 19.6183 1.6
    endloop
  endfacet
  facet normal 0.309017 -0.951056 0
    outer loop
      vertex -37.5365 21.9266 0
      vertex -37.5365 21.9266 1.6
      vertex -39.2135 21.3817 1.6
    endloop
  endfacet
  facet normal 0.309017 -0.951056 0
    outer loop
      vertex -39.2135 21.3817 0
      vertex -37.5365 21.9266 0
      vertex -39.2135 21.3817 1.6
    endloop
  endfacet
  facet normal -0.809017 -0.587785 0
    outer loop
      vertex -36.5 20.5 1.6
      vertex -37.5365 21.9266 1.6
      vertex -36.5 20.5 0
    endloop
  endfacet
  facet normal -0.809017 -0.587785 0
    outer loop
      vertex -36.5 20.5 0
      vertex -37.5365 21.9266 1.6
      vertex -37.5365 21.9266 0
    endloop
  endfacet
  facet normal -0.809017 0.587785 0
    outer loop
      vertex -36.5 20.5 1.6
      vertex -36.5 20.5 0
      vertex -37.5365 19.0734 1.6
    endloop
  endfacet
  facet normal -0.809017 0.587785 0
    outer loop
      vertex -37.5365 19.0734 1.6
      vertex -36.5 20.5 0
      vertex -37.5365 19.0734 0
    endloop
  endfacet
  facet normal 0.309017 0.951056 -0
    outer loop
      vertex -37.5365 19.0734 1.6
      vertex -37.5365 19.0734 0
      vertex -39.2135 19.6183 1.6
    endloop
  endfacet
  facet normal 0.309017 0.951056 -0
    outer loop
      vertex -39.2135 19.6183 1.6
      vertex -37.5365 19.0734 0
      vertex -39.2135 19.6183 0
    endloop
  endfacet
  facet normal 0.309017 -0.951056 0
    outer loop
      vertex 38.4635 -19.0734 0
      vertex 38.4635 -19.0734 1.6
      vertex 36.7865 -19.6183 1.6
    endloop
  endfacet
  facet normal 0.309017 -0.951056 0
    outer loop
      vertex 36.7865 -19.6183 0
      vertex 38.4635 -19.0734 0
      vertex 36.7865 -19.6183 1.6
    endloop
  endfacet
  facet normal 1 0 0
    outer loop
      vertex 36.7865 -19.6183 0
      vertex 36.7865 -19.6183 1.6
      vertex 36.7865 -21.3817 1.6
    endloop
  endfacet
  facet normal 1 0 0
    outer loop
      vertex 36.7865 -21.3817 0
      vertex 36.7865 -19.6183 0
      vertex 36.7865 -21.3817 1.6
    endloop
  endfacet
  facet normal -0.809017 -0.587785 0
    outer loop
      vertex 39.5 -20.5 1.6
      vertex 38.4635 -19.0734 1.6
      vertex 39.5 -20.5 0
    endloop
  endfacet
  facet normal -0.809017 -0.587785 0
    outer loop
      vertex 39.5 -20.5 0
      vertex 38.4635 -19.0734 1.6
      vertex 38.4635 -19.0734 0
    endloop
  endfacet
  facet normal -0.809017 0.587785 0
    outer loop
      vertex 39.5 -20.5 1.6
      vertex 39.5 -20.5 0
      vertex 38.4635 -21.9266 1.6
    endloop
  endfacet
  facet normal -0.809017 0.587785 0
    outer loop
      vertex 38.4635 -21.9266 1.6
      vertex 39.5 -20.5 0
      vertex 38.4635 -21.9266 0
    endloop
  endfacet
  facet normal 0.309017 0.951056 -0
    outer loop
      vertex 38.4635 -21.9266 1.6
      vertex 38.4635 -21.9266 0
      vertex 36.7865 -21.3817 1.6
    endloop
  endfacet
  facet normal 0.309017 0.951056 -0
    outer loop
      vertex 36.7865 -21.3817 1.6
      vertex 38.4635 -21.9266 0
      vertex 36.7865 -21.3817 0
    endloop
  endfacet
  facet normal 1 0 0
    outer loop
      vertex 36.7865 21.3817 0
      vertex 36.7865 21.3817 1.6
      vertex 36.7865 19.6183 1.6
    endloop
  endfacet
  facet normal 1 0 0
    outer loop
      vertex 36.7865 19.6183 0
      vertex 36.7865 21.3817 0
      vertex 36.7865 19.6183 1.6
    endloop
  endfacet
  facet normal 0.309017 -0.951056 0
    outer loop
      vertex 38.4635 21.9266 0
      vertex 38.4635 21.9266 1.6
      vertex 36.7865 21.3817 1.6
    endloop
  endfacet
  facet normal 0.309017 -0.951056 0
    outer loop
      vertex 36.7865 21.3817 0
      vertex 38.4635 21.9266 0
      vertex 36.7865 21.3817 1.6
    endloop
  endfacet
  facet normal -0.809017 -0.587785 0
    outer loop
      vertex 39.5 20.5 1.6
      vertex 38.4635 21.9266 1.6
      vertex 39.5 20.5 0
    endloop
  endfacet
  facet normal -0.809017 -0.587785 0
    outer loop
      vertex 39.5 20.5 0
      vertex 38.4635 21.9266 1.6
      vertex 38.4635 21.9266 0
    endloop
  endfacet
  facet normal -0.809017 0.587785 0
    outer loop
      vertex 39.5 20.5 1.6
      vertex 39.5 20.5 0
      vertex 38.4635 19.0734 1.6
    endloop
  endfacet
  facet normal -0.809017 0.587785 0
    outer loop
      vertex 38.4635 19.0734 1.6
      vertex 39.5 20.5 0
      vertex 38.4635 19.0734 0
    endloop
  endfacet
  facet normal 0.309017 0.951056 -0
    outer loop
      vertex 38.4635 19.0734 1.6
      vertex 38.4635 19.0734 0
      vertex 36.7865 19.6183 1.6
    endloop
  endfacet
  facet normal 0.309017 0.951056 -0
    outer loop
      vertex 36.7865 19.6183 1.6
      vertex 38.4635 19.0734 0
      vertex 36.7865 19.6183 0
    endloop
  endfacet
  facet normal -1 -0 -0
    outer loop
      vertex -33.5 3 1.6
      vertex -33.5 3 14.55
      vertex -33.5 23.9644 1.6
    endloop
  endfacet
  facet normal -1 0 -0
    outer loop
      vertex -33.5 23.9644 1.6
      vertex -33.5 3 14.55
      vertex -33.5 24 14.55
    endloop
  endfacet
  facet normal -1 -0 0
    outer loop
      vertex -33.5 23.9644 1.6
      vertex -33.5 24 14.55
      vertex -33.5 24 1.55
    endloop
  endfacet
  facet normal -1 0 0
    outer loop
      vertex -33.5 23.9644 1.6
      vertex -33.5 24 1.55
      vertex -33.5 23.9644 1.55
    endloop
  endfacet
  facet normal 0 -1 0
    outer loop
      vertex -33.5 3 14.55
      vertex -33.5 3 1.6
      vertex -17.5 3 1.6
    endloop
  endfacet
  facet normal 0 -1 0
    outer loop
      vertex -17.5 3 14.55
      vertex -33.5 3 14.55
      vertex -17.5 3 1.6
    endloop
  endfacet
  facet normal 1 0 -0
    outer loop
      vertex -17.5 3 14.55
      vertex -17.5 3 1.6
      vertex -17.5 23.9644 1.6
    endloop
  endfacet
  facet normal 1 0 0
    outer loop
      vertex -17.5 24 14.55
      vertex -17.5 3 14.55
      vertex -17.5 23.9644 1.6
    endloop
  endfacet
  facet normal 1 0 0
    outer loop
      vertex -17.5 23.9644 1.55
      vertex -17.5 24 1.55
      vertex -17.5 23.9644 1.6
    endloop
  endfacet
  facet normal 1 0 0
    outer loop
      vertex -17.5 24 1.55
      vertex -17.5 24 14.55
      vertex -17.5 23.9644 1.6
    endloop
  endfacet
  facet normal -1 -0 -0
    outer loop
      vertex -6 -17 1.6
      vertex -6 -17 11.55
      vertex -6 23.9644 1.6
    endloop
  endfacet
  facet normal -1 0 -0
    outer loop
      vertex -6 23.9644 1.6
      vertex -6 -17 11.55
      vertex -6 24 11.55
    endloop
  endfacet
  facet normal -1 -0 0
    outer loop
      vertex -6 23.9644 1.6
      vertex -6 24 11.55
      vertex -6 24 1.55
    endloop
  endfacet
  facet normal -1 0 0
    outer loop
      vertex -6 23.9644 1.6
      vertex -6 24 1.55
      vertex -6 23.9644 1.55
    endloop
  endfacet
  facet normal 0 -1 0
    outer loop
      vertex -6 -17 11.55
      vertex -6 -17 1.6
      vertex 33 -17 1.6
    endloop
  endfacet
  facet normal 0 -1 0
    outer loop
      vertex 33 -17 11.55
      vertex -6 -17 11.55
      vertex 33 -17 1.6
    endloop
  endfacet
  facet normal 1 0 -0
    outer loop
      vertex 33 -17 11.55
      vertex 33 -17 1.6
      vertex 33 23.9644 1.6
    endloop
  endfacet
  facet normal 1 0 0
    outer loop
      vertex 33 24 11.55
      vertex 33 -17 11.55
      vertex 33 23.9644 1.6
    endloop
  endfacet
  facet normal 1 0 0
    outer loop
      vertex 33 23.9644 1.55
      vertex 33 24 1.55
      vertex 33 23.9644 1.6
    endloop
  endfacet
  facet normal 1 0 0
    outer loop
      vertex 33 24 1.55
      vertex 33 24 11.55
      vertex 33 23.9644 1.6
    endloop
  endfacet
  facet normal 1 0 -0
    outer loop
      vertex -7.5 -24 15.55
      vertex -7.5 -24 1.55
      vertex -7.5 -23.9644 1.55
    endloop
  endfacet
  facet normal 1 -0 0
    outer loop
      vertex -7.5 -8 1.6
      vertex -7.5 -24 15.55
      vertex -7.5 -23.9644 1.6
    endloop
  endfacet
  facet normal 1 -0 0
    outer loop
      vertex -7.5 -23.9644 1.6
      vertex -7.5 -24 15.55
      vertex -7.5 -23.9644 1.55
    endloop
  endfacet
  facet normal 1 0 0
    outer loop
      vertex -7.5 -8 15.55
      vertex -7.5 -24 15.55
      vertex -7.5 -8 1.6
    endloop
  endfacet
  facet normal 0 1 0
    outer loop
      vertex -14.5 -8 1.6
      vertex -14.5 -8 15.55
      vertex -7.5 -8 1.6
    endloop
  endfacet
  facet normal 0 1 0
    outer loop
      vertex -7.5 -8 1.6
      vertex -14.5 -8 15.55
      vertex -7.5 -8 15.55
    endloop
  endfacet
  facet normal -1 -0 -0
    outer loop
      vertex -14.5 -24 1.55
      vertex -14.5 -24 15.55
      vertex -14.5 -23.9644 1.55
    endloop
  endfacet
  facet normal -1 0 -0
    outer loop
      vertex -14.5 -23.9644 1.6
      vertex -14.5 -24 15.55
      vertex -14.5 -8 15.55
    endloop
  endfacet
  facet normal -1 0 0
    outer loop
      vertex -14.5 -23.9644 1.55
      vertex -14.5 -24 15.55
      vertex -14.5 -23.9644 1.6
    endloop
  endfacet
  facet normal -1 -0 0
    outer loop
      vertex -14.5 -23.9644 1.6
      vertex -14.5 -8 15.55
      vertex -14.5 -8 1.6
    endloop
  endfacet
  facet normal 1 0 -0
    outer loop
      vertex -19.5 -24 16.55
      vertex -19.5 -24 1.55
      vertex -19.5 -23.9644 1.55
    endloop
  endfacet
  facet normal 1 -0 0
    outer loop
      vertex -19.5 -10 1.6
      vertex -19.5 -24 16.55
      vertex -19.5 -23.9644 1.6
    endloop
  endfacet
  facet normal 1 -0 0
    outer loop
      vertex -19.5 -23.9644 1.6
      vertex -19.5 -24 16.55
      vertex -19.5 -23.9644 1.55
    endloop
  endfacet
  facet normal 1 0 0
    outer loop
      vertex -19.5 -10 16.55
      vertex -19.5 -24 16.55
      vertex -19.5 -10 1.6
    endloop
  endfacet
  facet normal 0 1 0
    outer loop
      vertex -33.5 -10 1.6
      vertex -33.5 -10 16.55
      vertex -19.5 -10 1.6
    endloop
  endfacet
  facet normal 0 1 0
    outer loop
      vertex -19.5 -10 1.6
      vertex -33.5 -10 16.55
      vertex -19.5 -10 16.55
    endloop
  endfacet
  facet normal -1 -0 -0
    outer loop
      vertex -33.5 -24 1.55
      vertex -33.5 -24 16.55
      vertex -33.5 -23.9644 1.55
    endloop
  endfacet
  facet normal -1 0 -0
    outer loop
      vertex -33.5 -23.9644 1.6
      vertex -33.5 -24 16.55
      vertex -33.5 -10 16.55
    endloop
  endfacet
  facet normal -1 0 0
    outer loop
      vertex -33.5 -23.9644 1.55
      vertex -33.5 -24 16.55
      vertex -33.5 -23.9644 1.6
    endloop
  endfacet
  facet normal -1 -0 0
    outer loop
      vertex -33.5 -23.9644 1.6
      vertex -33.5 -10 16.55
      vertex -33.5 -10 1.6
    endloop
  endfacet
  facet normal -0 -0 -1
    outer loop
      vertex -33.5 -24 1.55
      vertex -33.5 -23.9644 1.55
      vertex -19.5 -24 1.55
    endloop
  endfacet
  facet normal 0 0 -1
    outer loop
      vertex -19.5 -24 1.55
      vertex -33.5 -23.9644 1.55
      vertex -19.5 -23.9644 1.55
    endloop
  endfacet
  facet normal -0 -0 -1
    outer loop
      vertex -14.5 -24 1.55
      vertex -14.5 -23.9644 1.55
      vertex -7.5 -24 1.55
    endloop
  endfacet
  facet normal 0 0 -1
    outer loop
      vertex -7.5 -24 1.55
      vertex -14.5 -23.9644 1.55
      vertex -7.5 -23.9644 1.55
    endloop
  endfacet
  facet normal -0 -0 -1
    outer loop
      vertex -6 23.9644 1.55
      vertex -6 24 1.55
      vertex 33 23.9644 1.55
    endloop
  endfacet
  facet normal 0 0 -1
    outer loop
      vertex 33 23.9644 1.55
      vertex -6 24 1.55
      vertex 33 24 1.55
    endloop
  endfacet
  facet normal -0 -0 -1
    outer loop
      vertex -33.5 23.9644 1.55
      vertex -33.5 24 1.55
      vertex -17.5 23.9644 1.55
    endloop
  endfacet
  facet normal 0 0 -1
    outer loop
      vertex -17.5 23.9644 1.55
      vertex -33.5 24 1.55
      vertex -17.5 24 1.55
    endloop
  endfacet
  facet normal 0 1 0
    outer loop
      vertex -33.5 24 1.55
      vertex -33.5 24 14.55
      vertex -17.5 24 1.55
    endloop
  endfacet
  facet normal 0 1 0
    outer loop
      vertex -17.5 24 1.55
      vertex -33.5 24 14.55
      vertex -17.5 24 14.55
    endloop
  endfacet
  facet normal 0 -0 1
    outer loop
      vertex -33.5 24 14.55
      vertex -33.5 3 14.55
      vertex -17.5 3 14.55
    endloop
  endfacet
  facet normal 0 0 1
    outer loop
      vertex -17.5 24 14.55
      vertex -33.5 24 14.55
      vertex -17.5 3 14.55
    endloop
  endfacet
  facet normal 0 1 0
    outer loop
      vertex -6 24 1.55
      vertex -6 24 11.55
      vertex 33 24 1.55
    endloop
  endfacet
  facet normal 0 1 0
    outer loop
      vertex 33 24 1.55
      vertex -6 24 11.55
      vertex 33 24 11.55
    endloop
  endfacet
  facet normal 0 -0 1
    outer loop
      vertex -6 24 11.55
      vertex -6 -17 11.55
      vertex 33 -17 11.55
    endloop
  endfacet
  facet normal 0 0 1
    outer loop
      vertex 33 24 11.55
      vertex -6 24 11.55
      vertex 33 -17 11.55
    endloop
  endfacet
  facet normal 0 -1 0
    outer loop
      vertex -14.5 -24 15.55
      vertex -14.5 -24 1.55
      vertex -7.5 -24 1.55
    endloop
  endfacet
  facet normal 0 -1 0
    outer loop
      vertex -7.5 -24 15.55
      vertex -14.5 -24 15.55
      vertex -7.5 -24 1.55
    endloop
  endfacet
  facet normal 0 -0 1
    outer loop
      vertex -14.5 -8 15.55
      vertex -14.5 -24 15.55
      vertex -7.5 -24 15.55
    endloop
  endfacet
  facet normal 0 0 1
    outer loop
      vertex -7.5 -8 15.55
      vertex -14.5 -8 15.55
      vertex -7.5 -24 15.55
    endloop
  endfacet
  facet normal 0 -1 0
    outer loop
      vertex -33.5 -24 16.55
      vertex -33.5 -24 1.55
      vertex -19.5 -24 1.55
    endloop
  endfacet
  facet normal 0 -1 0
    outer loop
      vertex -19.5 -24 16.55
      vertex -33.5 -24 16.55
      vertex -19.5 -24 1.55
    endloop
  endfacet
  facet normal 0 -0 1
    outer loop
      vertex -33.5 -10 16.55
      vertex -33.5 -24 16.55
      vertex -19.5 -24 16.55
    endloop
  endfacet
  facet normal 0 0 1
    outer loop
      vertex -19.5 -10 16.55
      vertex -33.5 -10 16.55
      vertex -19.5 -24 16.55
    endloop
  endfacet
endsolid OpenSCAD_Model
